<svg width="576" height="512" viewBox="0 0 576 512" fill="none" xmlns="http://www.w3.org/2000/svg">
<path d="M333.5 201.4C333.5 179.3 317.9 167.1 290.5 167.1H240.1V238.3H282.6C315.4 238.2 333.5 225 333.5 201.4ZM517 188.6C507.5 157.7 506.1 119.8 507.2 90.5C508.3 60 484.5 32 452.5 32H123.7C91.6 32 67.9 60.1 69 90.5C70 119.8 68.7 157.7 59.2 188.6C49.6 219.6 33.5 239.2 7 241.7V270.2C33.4 272.7 49.6 292.3 59.2 323.3C68.7 354.2 70.1 392.1 69 421.4C67.9 451.9 91.7 479.9 123.7 479.9H452.4C484.5 479.9 508.2 451.8 507.1 421.4C506.1 392.1 507.4 354.2 516.9 323.3C526.5 292.3 542.6 272.7 569 270.2V241.7C542.7 239.2 526.5 219.6 517 188.6ZM300.2 375.1H202.3V136.8H299.7C343 136.8 371.4 160.2 371.4 196.2C371.4 221.5 352.3 244.1 327.9 248V249.3C361.1 252.9 383.4 275.9 383.4 307.6C383.4 349.7 352.1 375.1 300.2 375.1ZM290.2 266.4H240.1V344.8H292.4C326.6 344.8 344.7 331.1 344.7 305.3C344.7 279.6 326.1 266.4 290.2 266.4Z" fill="white"/>
</svg>
