<svg width="24" height="24" viewBox="0 0 24 24" fill="none" xmlns="http://www.w3.org/2000/svg">
<g clip-path="url(#clip0)">
<path d="M24 18.588C23.6507 18.7201 23.2651 18.7198 22.916 18.5872C22.5669 18.4546 22.2784 18.1988 22.105 17.868L18.655 13.097L18.155 12.43L14.152 17.874C13.989 18.1909 13.7161 18.4375 13.3845 18.5678C13.0529 18.6981 12.6851 18.7032 12.35 18.582L17.508 11.662L12.71 5.41102C13.055 5.2867 13.4323 5.28505 13.7784 5.40636C14.1244 5.52766 14.4181 5.76451 14.61 6.07702L18.186 10.907L21.782 6.09702C21.9463 5.78581 22.2192 5.54581 22.5488 5.42265C22.8785 5.29949 23.2419 5.30176 23.57 5.42902L21.708 7.90002L19.186 11.183C19.116 11.2455 19.0599 11.3221 19.0215 11.4077C18.9832 11.4934 18.9633 11.5862 18.9633 11.68C18.9633 11.7739 18.9832 11.8667 19.0215 11.9523C19.0599 12.038 19.116 12.1145 19.186 12.177L23.99 18.589L24 18.588ZM0.00200055 11.576L0.422001 9.50102C1.576 5.39802 6.28 3.69102 9.516 6.23102C11.411 7.72002 11.884 9.82802 11.791 12.204H1.116C0.943001 16.447 4.005 19.009 7.92 17.7C8.55466 17.4716 9.12274 17.0893 9.57336 16.5873C10.024 16.0854 10.343 15.4796 10.502 14.824C10.709 14.158 11.05 14.044 11.676 14.236C11.5717 15.0484 11.2845 15.8266 10.8361 16.5119C10.3876 17.1973 9.78962 17.7721 9.087 18.193C7.92642 18.8279 6.59483 19.0795 5.28262 18.9119C3.97042 18.7443 2.7448 18.1661 1.781 17.26C0.82803 16.1874 0.252077 14.8325 0.141001 13.402C0.141001 13.167 0.0610006 12.947 0.00700055 12.736C0.00213258 12.3497 -0.000200801 11.9634 5.52187e-07 11.577L0.00200055 11.576ZM1.129 11.29H10.783C10.723 8.21402 8.782 6.03202 6.193 6.01202C3.311 5.97202 1.249 8.10602 1.122 11.276L1.129 11.29Z" fill="white"/>
</g>
<defs>
<clipPath id="clip0">
<rect width="24" height="24" fill="white"/>
</clipPath>
</defs>
</svg>
