<svg width="64" height="64" viewBox="0 0 64 64" fill="none" xmlns="http://www.w3.org/2000/svg">
<g clip-path="url(#clip0)">
<path d="M57.327 12.44C53.4584 7.43047 48.1911 3.68069 42.1913 1.66491C36.1915 -0.350877 29.7286 -0.542121 23.6201 1.11536C17.5116 2.77285 12.0318 6.2046 7.87376 10.9766C3.71573 15.7486 1.06625 21.6465 0.260388 27.9244C-0.54547 34.2023 0.528498 40.5782 3.34647 46.2457C6.16443 51.9131 10.5998 56.6177 16.0917 59.7642C21.5835 62.9108 27.8852 64.358 34.1996 63.923C40.514 63.4879 46.5576 61.19 51.566 57.32C65.546 46.516 68.126 26.425 57.326 12.44H57.327Z" fill="#0F243E"/>
<path d="M42.793 20.388L29.3 33.988L25.487 30.068C38.767 16.788 40.1 17.988 42.794 20.388H42.793Z" fill="white"/>
<path d="M29.3 34.36C29.1805 34.3571 29.0664 34.3096 28.98 34.227L25.14 30.387C25.0535 30.2975 25.0052 30.1779 25.0052 30.0535C25.0052 29.9291 25.0535 29.8095 25.14 29.72C38.233 16.627 40.02 17.24 43.113 20.04C43.218 20.124 43.277 20.252 43.273 20.387C43.293 20.517 43.243 20.65 43.14 20.734L29.647 34.228C29.552 34.315 29.429 34.362 29.3 34.361V34.36ZM26.153 30.067L29.3 33.214L42.1 20.414C41.658 19.8601 41.0274 19.4886 40.3288 19.3706C39.6301 19.2525 38.9124 19.3961 38.313 19.774C35.993 20.814 32.26 23.987 26.153 30.067V30.067Z" fill="#0F243E"/>
<path d="M33.167 37.748L29.487 33.988L42.98 20.654C46.607 24.201 41.22 30.121 33.167 37.747V37.748Z" fill="white"/>
<path d="M33.167 38.228C33.049 38.2186 32.9369 38.172 32.847 38.095L29.087 34.415C29.0306 34.2782 29.0306 34.1247 29.087 33.988C29.047 33.876 29.047 33.753 29.087 33.641L42.58 20.148C42.775 19.965 43.078 19.965 43.273 20.148C44.158 20.962 44.643 22.12 44.606 23.321C44.606 26.921 40.499 31.454 33.513 38.068C33.4197 38.1604 33.2968 38.217 33.166 38.228H33.167ZM30.18 33.988L33.193 37C38.526 31.96 43.62 26.76 43.646 23.24C43.675 22.4938 43.4283 21.763 42.953 21.187L30.18 33.988Z" fill="#0F243E"/>
<path d="M25.593 30.148L28.26 32.815C28.277 32.83 28.2907 32.8485 28.3 32.8691C28.3093 32.8898 28.3142 32.9123 28.3142 32.935C28.3142 32.9577 28.3093 32.9801 28.3 33.0008C28.2907 33.0215 28.277 33.04 28.26 33.055L22.633 34.255C22.4 34.305 22.163 34.193 22.051 33.983C21.939 33.773 21.981 33.513 22.153 33.348L25.433 30.095C25.433 30.095 25.54 30.095 25.593 30.148V30.148Z" fill="white"/>
<path d="M22.5 34.788C22.3222 34.7858 22.148 34.738 21.9939 34.6492C21.8398 34.5605 21.7111 34.4337 21.62 34.281C21.41 33.884 21.485 33.395 21.807 33.081L25.06 29.801C25.1773 29.6962 25.3292 29.6382 25.4865 29.6382C25.6438 29.6382 25.7957 29.6962 25.913 29.801L28.58 32.468C28.738 32.618 28.8 32.845 28.74 33.055C28.68 33.265 28.504 33.432 28.287 33.482L22.66 34.682L22.5 34.788ZM25.487 30.735L22.474 33.748L27.461 32.681L25.487 30.735Z" fill="#0F243E"/>
<path d="M49.967 12.894C48.037 11.032 45.005 10.954 42.981 12.711C40.957 14.468 40.611 17.484 42.187 19.654C43.763 21.824 46.734 22.432 49.034 21.054L45.407 17.427L49.967 12.894Z" fill="white"/>
<path d="M46.367 22.28C45.2582 22.2658 44.178 21.9256 43.2612 21.3018C42.3443 20.678 41.6313 19.7982 41.211 18.772C40.351 16.674 40.827 14.266 42.411 12.654C43.4786 11.606 44.9149 11.0188 46.411 11.0188C47.9071 11.0188 49.3434 11.606 50.411 12.654C50.513 12.74 50.571 12.867 50.571 13.001C50.5708 13.0669 50.5563 13.132 50.5287 13.1919C50.5011 13.2518 50.461 13.305 50.411 13.348L46.091 17.428L49.371 20.655C49.4241 20.7057 49.464 20.7687 49.4872 20.8385C49.5104 20.9082 49.5162 20.9825 49.504 21.055C49.4961 21.1249 49.4729 21.1922 49.4361 21.2522C49.3993 21.3122 49.3498 21.3633 49.291 21.402C48.4098 21.9528 47.3968 22.2567 46.358 22.282L46.367 22.28ZM46.367 11.933C44.467 11.943 42.767 13.086 42.054 14.833C41.341 16.58 41.729 18.591 43.061 19.933C44.417 21.296 46.461 21.688 48.234 20.92L45.087 17.773C44.982 17.689 44.923 17.561 44.927 17.426C44.931 17.301 44.989 17.184 45.087 17.106L49.247 12.919C48.42 12.285 47.409 11.939 46.367 11.932V11.933Z" fill="#0F243E"/>
<path d="M50.047 12.974L45.487 17.507L49.114 21.134C49.479 20.9244 49.8189 20.6738 50.127 20.387C52.103 18.287 52.067 15.019 50.047 12.974Z" fill="white"/>
<path d="M49.033 21.534C48.9731 21.5372 48.9132 21.527 48.8578 21.504C48.8025 21.4809 48.753 21.4457 48.713 21.401L45.086 17.774C44.981 17.69 44.922 17.562 44.926 17.427C44.93 17.302 44.988 17.185 45.086 17.107L49.619 12.654C49.6628 12.588 49.7222 12.5338 49.792 12.4964C49.8618 12.4589 49.9398 12.4393 50.019 12.4393C50.0982 12.4393 50.1762 12.4589 50.246 12.4964C50.3158 12.5338 50.3752 12.588 50.419 12.654C50.9512 13.1754 51.3739 13.7978 51.6625 14.4846C51.9512 15.1714 52.0998 15.909 52.0998 16.654C52.0998 17.399 51.9512 18.1366 51.6625 18.8234C51.3739 19.5102 50.9512 20.1326 50.419 20.654C50.1051 20.987 49.7459 21.2741 49.352 21.507C49.2528 21.557 49.1382 21.5667 49.032 21.534H49.033ZM46.1 17.428L49.113 20.441C49.3203 20.2957 49.5165 20.1353 49.7 19.961C50.5857 19.0777 51.0846 17.8789 51.087 16.628C51.089 15.5085 50.681 14.4271 49.94 13.588L46.1 17.428Z" fill="#0F243E"/>
<path d="M43.353 20.948C42.603 20.244 41.436 20.244 40.686 20.948L28.607 33L30.607 35.027L43.38 23.827C43.775 23.45 43.996 22.927 43.99 22.381C43.984 21.835 43.754 21.316 43.353 20.947V20.948Z" fill="white"/>
<path d="M30.5 35.508C30.3805 35.5051 30.2664 35.4576 30.18 35.375L28.153 33.348C28.0665 33.2585 28.0182 33.1389 28.0182 33.0145C28.0182 32.8901 28.0665 32.7705 28.153 32.681L40.233 20.654C41.191 19.698 42.743 19.698 43.7 20.654C44.18 21.134 44.44 21.789 44.42 22.467C44.392 23.141 44.094 23.775 43.593 24.227L30.82 35.427C30.727 35.493 30.613 35.521 30.5 35.507V35.508ZM29.087 33L30.42 34.36L42.953 23.453C43.263 23.183 43.448 22.797 43.46 22.386C43.472 21.975 43.31 21.573 43.007 21.293C42.424 20.713 41.483 20.713 40.9 21.293L29.087 33Z" fill="#0F243E"/>
<path d="M19.247 46.734C19.2129 46.7804 19.1945 46.8364 19.1945 46.894C19.1945 46.9516 19.2129 47.0076 19.247 47.054L19.78 49.374C19.826 49.651 19.693 49.927 19.448 50.074C19.3292 50.1435 19.1914 50.1735 19.0545 50.1596C18.9175 50.1458 18.7885 50.0889 18.686 49.997L15.033 46.477L26.42 35H30.367L33.034 37.667C28.8737 41.3044 24.235 44.3551 19.247 46.734V46.734Z" fill="white"/>
<path d="M19.007 50.654C18.705 50.648 18.407 50.524 18.207 50.307L14.714 46.814C14.609 46.73 14.55 46.602 14.554 46.467C14.558 46.342 14.616 46.225 14.714 46.147L26.18 34.654C26.2442 34.5857 26.3281 34.5392 26.42 34.521H30.393C30.4965 34.4844 30.6095 34.4844 30.713 34.521L33.38 37.188C33.483 37.283 33.533 37.423 33.513 37.561C33.5149 37.6272 33.5014 37.693 33.4737 37.7532C33.4459 37.8134 33.4046 37.8664 33.353 37.908L33.14 38.095C28.9629 41.5773 24.3674 44.5244 19.46 46.868L19.967 49.028C20.0062 49.1946 20.0077 49.3679 19.9714 49.5352C19.9351 49.7024 19.8619 49.8595 19.7572 49.9949C19.6524 50.1303 19.5188 50.2406 19.366 50.3178C19.2132 50.395 19.0451 50.437 18.874 50.441L19.007 50.654ZM15.754 46.467L18.9 49.64C18.9293 49.6661 18.9672 49.6806 19.0065 49.6806C19.0458 49.6806 19.0837 49.6661 19.113 49.64C19.1326 49.6127 19.1432 49.58 19.1432 49.5465C19.1432 49.5129 19.1326 49.4802 19.113 49.453L18.58 47.133C18.494 46.79 18.66 46.433 18.98 46.28C23.7554 43.9677 28.2325 41.0843 32.313 37.693L30.126 35.506H26.553L15.754 46.467Z" fill="#0F243E"/>
<path d="M12.287 49.214L14.954 46.547L19.061 50.654L12.528 50.201C12.298 50.184 12.103 50.021 12.048 49.795C11.993 49.569 12.09 49.335 12.288 49.215L12.287 49.214Z" fill="white"/>
<path d="M19.14 51.054L12.633 50.601C12.247 50.565 11.915 50.301 11.779 49.948C11.643 49.595 11.726 49.176 11.993 48.894L14.66 46.227C14.7495 46.1405 14.8691 46.0922 14.9935 46.0922C15.1179 46.0922 15.2375 46.1405 15.327 46.227L19.407 50.307C19.523 50.467 19.523 50.681 19.407 50.84C19.345 50.94 19.251 51.015 19.14 51.053V51.054ZM12.633 49.561L17.966 49.908L15.033 47.161L12.633 49.561Z" fill="#0F243E"/>
<path d="M30.74 35.322L25.353 36.149L28.473 33.056L30.74 35.322Z" fill="white"/>
<path d="M25.353 36.654C25.17 36.659 25.003 36.554 24.926 36.387C24.8692 36.3097 24.8386 36.2164 24.8386 36.1205C24.8386 36.0246 24.8692 35.9312 24.926 35.854L28.019 32.734C28.214 32.551 28.517 32.551 28.712 32.734L30.98 35C31.0253 35.0718 31.0493 35.1551 31.0493 35.24C31.0493 35.3249 31.0253 35.4081 30.98 35.48C30.9578 35.5676 30.9107 35.6469 30.8446 35.7084C30.7784 35.77 30.6959 35.8111 30.607 35.827L25.274 36.654H25.353ZM28.473 33.747L26.74 35.48L29.727 35.027L28.473 33.747Z" fill="#0F243E"/>
<path d="M30.74 35.32L26.98 35.8C26.8794 35.8228 26.7741 35.8126 26.6797 35.7709C26.5853 35.7292 26.5069 35.6582 26.4561 35.5684C26.4052 35.4786 26.3847 35.3748 26.3974 35.2724C26.4102 35.1701 26.4557 35.0745 26.527 35L28.474 33.053L30.74 35.32Z" fill="white"/>
<path d="M26.873 36.308C26.518 36.305 26.193 36.111 26.02 35.801C25.9182 35.6184 25.8787 35.4076 25.9076 35.2006C25.9364 34.9936 26.0321 34.8017 26.18 34.654L28.127 32.707C28.322 32.524 28.625 32.524 28.82 32.707L31.087 34.974C31.1544 35.0378 31.2019 35.1199 31.2236 35.2102C31.2453 35.3005 31.2403 35.3952 31.2093 35.4827C31.1783 35.5702 31.1225 35.6469 31.0488 35.7034C30.9751 35.7599 30.8866 35.7938 30.794 35.801L27.061 36.281L26.873 36.308ZM26.873 35.321L29.7 34.974L28.447 33.721L26.847 35.321H26.873ZM50.073 16.041C50.0228 15.9568 49.9434 15.894 49.8499 15.8646C49.7565 15.8351 49.6554 15.8409 49.566 15.881C49.5219 15.9033 49.4827 15.9343 49.4507 15.9721C49.4188 16.0099 49.3947 16.0537 49.38 16.101C49.35 16.196 49.36 16.299 49.406 16.388C49.593 16.781 49.541 17.246 49.273 17.588C49.203 17.654 49.173 17.745 49.173 17.841C49.174 17.9348 49.2096 18.0249 49.273 18.094C49.3414 18.121 49.4176 18.121 49.486 18.094C49.5481 18.1096 49.6133 18.1079 49.6745 18.089C49.7356 18.0701 49.7905 18.0348 49.833 17.987C50.0526 17.7181 50.1916 17.3926 50.2341 17.0481C50.2766 16.7036 50.2207 16.3541 50.073 16.04V16.041Z" fill="#0F243E"/>
</g>
<defs>
<clipPath id="clip0">
<rect width="64" height="64" fill="white"/>
</clipPath>
</defs>
</svg>
