<svg width="24" height="24" viewBox="0 0 24 24" fill="none" xmlns="http://www.w3.org/2000/svg">
<path d="M10.984 13.836C10.8516 13.836 10.7247 13.7835 10.631 13.69L9.886 12.947C9.83818 12.9009 9.80002 12.8458 9.77373 12.7849C9.74745 12.7239 9.73356 12.6583 9.73289 12.5919C9.73222 12.5255 9.74478 12.4597 9.76984 12.3982C9.79489 12.3367 9.83194 12.2808 9.87881 12.2338C9.92569 12.1868 9.98146 12.1496 10.0429 12.1244C10.1043 12.0992 10.1701 12.0864 10.2365 12.0869C10.3029 12.0874 10.3685 12.1011 10.4295 12.1272C10.4906 12.1533 10.5458 12.1913 10.592 12.239L10.984 12.63L12.165 11.45C12.2588 11.3561 12.386 11.3033 12.5186 11.3032C12.6513 11.3031 12.7786 11.3557 12.8725 11.4495C12.9664 11.5433 13.0192 11.6705 13.0193 11.8031C13.0194 11.9358 12.9668 12.0631 12.873 12.157L11.338 13.69C11.2438 13.7833 11.1166 13.8358 10.984 13.836V13.836ZM20.337 13.689L21.871 12.157C21.9621 12.0627 22.0125 11.9364 22.0113 11.8053C22.0102 11.6742 21.9576 11.5488 21.8649 11.4561C21.7722 11.3634 21.6468 11.3108 21.5157 11.3097C21.3846 11.3085 21.2583 11.3589 21.164 11.45L19.983 12.63L19.591 12.239C19.5448 12.1913 19.4896 12.1533 19.4285 12.1272C19.3675 12.1011 19.3019 12.0874 19.2355 12.0869C19.1691 12.0864 19.1033 12.0992 19.0419 12.1244C18.9805 12.1496 18.9247 12.1868 18.8778 12.2338C18.8309 12.2808 18.7939 12.3367 18.7688 12.3982C18.7438 12.4597 18.7312 12.5255 18.7319 12.5919C18.7326 12.6583 18.7464 12.7239 18.7727 12.7849C18.799 12.8458 18.8372 12.9009 18.885 12.947L19.631 13.69C19.6773 13.7366 19.7323 13.7735 19.7929 13.7987C19.8536 13.8238 19.9186 13.8367 19.9842 13.8366C20.0499 13.8366 20.1148 13.8235 20.1754 13.7981C20.2359 13.7728 20.2909 13.7357 20.337 13.689V13.689ZM4.527 7.452L7.084 5.867C7.22837 5.77767 7.34761 5.65306 7.43051 5.5049C7.5134 5.35675 7.55721 5.18993 7.55781 5.02016C7.55841 4.8504 7.51578 4.68327 7.43394 4.53454C7.35209 4.3858 7.23373 4.26035 7.09 4.17L4.533 2.56C4.38172 2.4647 4.20765 2.41171 4.02893 2.40653C3.85021 2.40136 3.67337 2.4442 3.51683 2.53059C3.36029 2.61698 3.22978 2.74375 3.13888 2.89772C3.04798 3.05168 3.00002 3.2272 3 3.406V6.602C3.0003 6.78009 3.0481 6.95488 3.13847 7.10833C3.22885 7.26178 3.35853 7.38835 3.51414 7.47497C3.66975 7.56158 3.84565 7.60512 4.02369 7.60108C4.20173 7.59705 4.37548 7.54558 4.527 7.452ZM6.557 5.016L4 6.602V3.406L6.557 5.016ZM24 12.5C24 14.43 22.43 16 20.5 16C19.6592 15.9984 18.8471 15.6945 18.2119 15.1437C17.5767 14.5929 17.1607 13.832 17.04 13H14.96C14.8393 13.832 14.4233 14.5929 13.7881 15.1437C13.1529 15.6945 12.3408 15.9984 11.5 16C10.6592 15.9986 9.84695 15.6947 9.21169 15.1439C8.57642 14.5931 8.16053 13.8321 8.04 13H7.482C6.51 13 5.632 12.601 5 11.958V17C5 18.654 6.346 20 8 20H8.04C8.284 18.307 9.74 17 11.5 17C13.43 17 15 18.57 15 20.5C15 22.43 13.43 24 11.5 24C10.6592 23.9986 9.84695 23.6947 9.21169 23.1439C8.57642 22.5931 8.16053 21.8321 8.04 21H8C5.794 21 4 19.206 4 17V9.899C2.87149 9.66711 1.85745 9.05322 1.12881 8.16082C0.400169 7.26842 0.00149715 6.15208 0 5C0 2.243 2.243 0 5 0C7.757 0 10 2.243 10 5C9.99823 6.31706 9.47739 7.58035 8.5504 8.51595C7.62341 9.45155 6.36499 9.98405 5.048 9.998C5.15916 10.5619 5.46258 11.0698 5.90648 11.4349C6.35038 11.8 6.90723 11.9997 7.482 12H8.04C8.284 10.307 9.74 9 11.5 9C12.3408 9.0014 13.153 9.30526 13.7883 9.85608C14.4236 10.4069 14.8395 11.1679 14.96 12H17.04C17.1607 11.168 17.5767 10.4071 18.2119 9.85632C18.8471 9.30555 19.6592 9.00161 20.5 9C22.43 9 24 10.57 24 12.5ZM9 20.5C9 21.878 10.122 23 11.5 23C12.878 23 14 21.878 14 20.5C14 19.122 12.878 18 11.5 18C10.122 18 9 19.122 9 20.5ZM5 9C7.206 9 9 7.206 9 5C9 2.794 7.206 1 5 1C2.794 1 1 2.794 1 5C1 7.206 2.794 9 5 9ZM14 12.5C14 11.122 12.878 10 11.5 10C10.122 10 9 11.122 9 12.5C9 13.878 10.122 15 11.5 15C12.878 15 14 13.878 14 12.5ZM23 12.5C23 11.122 21.878 10 20.5 10C19.122 10 18 11.122 18 12.5C18 13.878 19.122 15 20.5 15C21.878 15 23 13.878 23 12.5ZM10 20.5C10 20.6326 10.0527 20.7598 10.1464 20.8536C10.2402 20.9473 10.3674 21 10.5 21C10.6326 21 10.7598 20.9473 10.8536 20.8536C10.9473 20.7598 11 20.6326 11 20.5C11 20.3674 10.9473 20.2402 10.8536 20.1464C10.7598 20.0527 10.6326 20 10.5 20C10.3674 20 10.2402 20.0527 10.1464 20.1464C10.0527 20.2402 10 20.3674 10 20.5ZM12 20.5C12 20.6326 12.0527 20.7598 12.1464 20.8536C12.2402 20.9473 12.3674 21 12.5 21C12.6326 21 12.7598 20.9473 12.8536 20.8536C12.9473 20.7598 13 20.6326 13 20.5C13 20.3674 12.9473 20.2402 12.8536 20.1464C12.7598 20.0527 12.6326 20 12.5 20C12.3674 20 12.2402 20.0527 12.1464 20.1464C12.0527 20.2402 12 20.3674 12 20.5ZM24 20.5C24 22.43 22.43 24 20.5 24C19.659 23.9983 18.8466 23.6941 18.2113 23.1429C17.576 22.5917 17.1603 21.8304 17.04 20.998C17.033 20.999 17.027 21.003 17.019 21.003L16.513 21.02H16.496C16.367 21.0167 16.2444 20.9636 16.1536 20.872C16.0628 20.7803 16.011 20.6572 16.0089 20.5282C16.0069 20.3992 16.0547 20.2744 16.1425 20.1799C16.2303 20.0854 16.3512 20.0284 16.48 20.021L16.986 20.004C17.004 20.002 17.021 20.01 17.038 20.011C17.1564 19.1766 17.5716 18.4129 18.2074 17.8598C18.8433 17.3068 19.6573 17.0015 20.5 17C22.43 17 24 18.57 24 20.5ZM23 20.5C23 19.122 21.878 18 20.5 18C19.122 18 18 19.122 18 20.5C18 21.878 19.122 23 20.5 23C21.878 23 23 21.878 23 20.5Z" fill="white"/>
</svg>
