<svg width="448" height="512" viewBox="0 0 448 512" fill="none" xmlns="http://www.w3.org/2000/svg">
<path d="M400 32H48C21.5 32 0 53.5 0 80V432C0 458.5 21.5 480 48 480H400C426.5 480 448 458.5 448 432V80C448 53.5 426.5 32 400 32ZM277.3 415.7C268.9 417.2 265.8 412 265.8 407.7C265.8 402.3 266 374.7 266 352.4C266 336.8 260.8 326.9 254.7 321.7C291.7 317.6 330.7 312.5 330.7 248.6C330.7 230.4 324.2 221.3 313.6 209.6C315.3 205.3 321 187.6 311.9 164.6C298 160.3 266.2 182.5 266.2 182.5C253 178.8 238.7 176.9 224.6 176.9C210.5 176.9 196.2 178.8 183 182.5C183 182.5 151.2 160.3 137.3 164.6C128.2 187.5 133.8 205.2 135.6 209.6C125 221.3 120 230.4 120 248.6C120 312.2 157.3 317.6 194.3 321.7C189.5 326 185.2 333.4 183.7 344C174.2 348.3 149.9 355.7 135.4 330.1C126.3 314.3 109.9 313 109.9 313C93.7 312.8 108.8 323.2 108.8 323.2C119.6 328.2 127.2 347.4 127.2 347.4C136.9 377.1 183.3 367.1 183.3 367.1C183.3 381 183.5 403.6 183.5 407.7C183.5 412 180.5 417.2 172 415.7C106 393.6 59.8 330.8 59.8 257.4C59.8 165.6 130 95.9 221.8 95.9C313.6 95.9 388 165.6 388 257.4C388.1 330.8 343.3 393.7 277.3 415.7ZM179.2 354.6C177.3 355 175.5 354.2 175.3 352.9C175.1 351.4 176.4 350.1 178.3 349.7C180.2 349.5 182 350.3 182.2 351.6C182.5 352.9 181.2 354.2 179.2 354.6ZM169.7 353.7C169.7 355 168.2 356.1 166.2 356.1C164 356.3 162.5 355.2 162.5 353.7C162.5 352.4 164 351.3 166 351.3C167.9 351.1 169.7 352.2 169.7 353.7ZM156 352.6C155.6 353.9 153.6 354.5 151.9 353.9C150 353.5 148.7 352 149.1 350.7C149.5 349.4 151.5 348.8 153.2 349.2C155.2 349.8 156.5 351.3 156 352.6ZM143.7 347.2C142.8 348.3 140.9 348.1 139.4 346.6C137.9 345.3 137.5 343.4 138.5 342.5C139.4 341.4 141.3 341.6 142.8 343.1C144.1 344.4 144.6 346.4 143.7 347.2ZM134.6 338.1C133.7 338.7 132 338.1 130.9 336.6C129.8 335.1 129.8 333.4 130.9 332.7C132 331.8 133.7 332.5 134.6 334C135.7 335.5 135.7 337.3 134.6 338.1V338.1ZM128.1 328.4C127.2 329.3 125.7 328.8 124.6 327.8C123.5 326.5 123.3 325 124.2 324.3C125.1 323.4 126.6 323.9 127.7 324.9C128.8 326.2 129 327.7 128.1 328.4ZM121.4 321C121 321.9 119.7 322.1 118.6 321.4C117.3 320.8 116.7 319.7 117.1 318.8C117.5 318.2 118.6 317.9 119.9 318.4C121.2 319.1 121.8 320.2 121.4 321Z" fill="#0F243E"/>
</svg>
