<svg width="64" height="64" viewBox="0 0 64 64" fill="none" xmlns="http://www.w3.org/2000/svg">
<g clip-path="url(#clip0)">
<path d="M8.70507 48.7765L6.3584 47.4197L32.5301 2.09064L34.8768 3.44744L8.70507 48.7765Z" fill="white"/>
<path d="M5.81866 43.7974H58.1664V46.511H5.81866V43.7974Z" fill="white"/>
<path d="M33.0379 60.4416L6.85546 45.3248L8.21226 42.9781L34.3947 58.0949L33.0379 60.4416ZM55.7835 21.0389L29.5989 5.92424L30.9557 3.57758L57.1381 18.6944L55.7835 21.0389Z" fill="white"/>
<path d="M8.21867 21.0304L6.86187 18.6838L33.0677 3.56268L34.4245 5.90935L8.21867 21.0304Z" fill="white"/>
<path d="M55.3013 48.7766L29.1253 3.44323L31.472 2.08643L57.648 47.4198L55.3013 48.7766ZM7.8944 16.8832H10.608V47.1168H7.8944V16.8832ZM53.3941 16.8832H56.1077V47.1168H53.3941V16.8832Z" fill="white"/>
<path d="M32.5771 59.2917L31.3931 57.2395L54.1664 44.0917L55.3504 46.144L32.5771 59.2917Z" fill="white"/>
<path d="M59.7024 48C58.9443 49.3092 57.6982 50.2645 56.2372 50.6568C54.7761 51.049 53.2191 50.8462 51.9072 50.0928C50.598 49.3347 49.6427 48.0886 49.2504 46.6275C48.8581 45.1664 49.0609 43.6094 49.8144 42.2976C50.5725 40.9884 51.8186 40.033 53.2797 39.6408C54.7407 39.2485 56.2977 39.4513 57.6096 40.2048C60.3552 41.7898 61.2875 45.2714 59.7003 48H59.7024ZM14.1707 21.7045C13.4126 23.0137 12.1665 23.9691 10.7054 24.3613C9.24432 24.7536 7.68732 24.5508 6.37547 23.7973C5.0657 23.0392 4.10993 21.7928 3.71764 20.3311C3.32534 18.8695 3.52853 17.312 4.28267 16C5.04076 14.6908 6.28682 13.7354 7.74792 13.3432C9.20901 12.9509 10.766 13.1537 12.0779 13.9072C13.3871 14.6653 14.3424 15.9113 14.7347 17.3724C15.1269 18.8335 14.9241 20.3905 14.1707 21.7024V21.7045ZM4.29973 48C3.54627 46.6881 3.34346 45.1311 3.73572 43.67C4.12799 42.2089 5.08335 40.9629 6.39253 40.2048C7.70439 39.4513 9.26139 39.2485 10.7225 39.6408C12.1836 40.033 13.4296 40.9884 14.1877 42.2976C14.9412 43.6094 15.144 45.1664 14.7517 46.6275C14.3595 48.0886 13.4041 49.3347 12.0949 50.0928C9.34933 51.6608 5.8656 50.7328 4.29973 48.0021V48ZM49.8315 21.7066C49.078 20.3948 48.8752 18.8378 49.2675 17.3767C49.6597 15.9156 50.6151 14.6695 51.9243 13.9114C53.2361 13.158 54.7931 12.9552 56.2542 13.3474C57.7153 13.7397 58.9614 14.6951 59.7195 16.0042C60.4729 17.3161 60.6757 18.8731 60.2835 20.3342C59.8912 21.7953 58.9359 23.0414 57.6267 23.7994C56.3148 24.5529 54.7578 24.7557 53.2967 24.3634C51.8356 23.9712 50.5896 23.0158 49.8315 21.7066V21.7066ZM32.0011 64C30.8727 64 29.7697 63.6654 28.8316 63.0384C27.8934 62.4115 27.1623 61.5205 26.7306 60.478C26.2989 59.4355 26.186 58.2884 26.4063 57.1818C26.6266 56.0751 27.1701 55.0587 27.9681 54.261C28.7661 53.4633 29.7828 52.9201 30.8895 52.7003C31.9962 52.4804 33.1432 52.5937 34.1856 53.0258C35.2279 53.4578 36.1187 54.1893 36.7453 55.1277C37.3718 56.0661 37.706 57.1692 37.7056 58.2976C37.7017 59.8091 37.0993 61.2576 36.0303 62.3262C34.9613 63.3948 33.5126 63.9966 32.0011 64V64ZM32.0011 11.409C31.2516 11.4102 30.5093 11.2634 29.8167 10.9771C29.1241 10.6908 28.4948 10.2707 27.9648 9.74072C27.4349 9.21079 27.0148 8.58148 26.7285 7.88886C26.4422 7.19625 26.2954 6.45395 26.2965 5.7045C26.2965 4.19185 26.8974 2.74115 27.967 1.67154C29.0366 0.601937 30.4873 0.0010376 32 0.0010376C33.5127 0.0010376 34.9634 0.601937 36.033 1.67154C37.1026 2.74115 37.7035 4.19185 37.7035 5.7045C37.7043 6.45359 37.5574 7.19549 37.2711 7.88771C36.9848 8.57994 36.5648 9.2089 36.0351 9.73859C35.5055 10.2683 34.8765 10.6883 34.1843 10.9745C33.4921 11.2608 32.7502 11.4077 32.0011 11.4069" fill="white"/>
</g>
<defs>
<clipPath id="clip0">
<rect width="64" height="64" fill="white"/>
</clipPath>
</defs>
</svg>
