<svg width="64" height="64" viewBox="0 0 64 64" fill="none" xmlns="http://www.w3.org/2000/svg">
<g clip-path="url(#clip0)">
<path d="M51.5 64H12.1C10.4842 63.9934 8.93647 63.3486 7.79392 62.2061C6.65137 61.0635 6.00658 59.5158 6 57.9V6.1C6.00658 4.48421 6.65137 2.93647 7.79392 1.79392C8.93647 0.651372 10.4842 0.00658173 12.1 0L51.5 0C53.1158 0.00658173 54.6635 0.651372 55.8061 1.79392C56.9486 2.93647 57.5934 4.48421 57.6 6.1V57.9C57.5934 59.5158 56.9486 61.0635 55.8061 62.2061C54.6635 63.3486 53.1158 63.9934 51.5 64V64Z" fill="#0F243E"/>
<path d="M38.35 55.1875V29.775C38.35 29.775 40 23.6875 17.975 32.275C17.95 32.5 17.95 8.75002 17.95 8.75002L25.125 8.71252V23.7125C25.125 23.7125 45.25 15.775 45.25 29.7125V55.0375H38.3125L38.35 55.1875ZM42.45 17.8625H34.95C37.7 14.4875 40.2 8.73752 40.2 8.73752H48.075C48.075 8.73752 46.725 12.4875 42.575 17.8625H42.45ZM18.075 55.1375V40.675L25.325 47.925L18.075 55.175V55.1375Z" fill="white"/>
</g>
<defs>
<clipPath id="clip0">
<rect width="64" height="64" fill="white"/>
</clipPath>
</defs>
</svg>
