<svg width="640" height="512" viewBox="0 0 640 512" fill="none" xmlns="http://www.w3.org/2000/svg">
<path d="M255.03 261.65C261.28 267.9 271.41 267.9 277.66 261.65L288.97 250.34C295.22 244.09 295.22 233.96 288.97 227.71L253.25 192L288.96 156.28C295.21 150.03 295.21 139.9 288.96 133.65L277.65 122.34C271.4 116.09 261.27 116.09 255.02 122.34L196.68 180.68C190.43 186.93 190.43 197.06 196.68 203.31L255.03 261.65V261.65ZM351.04 250.35L362.35 261.66C368.6 267.91 378.73 267.91 384.98 261.66L443.32 203.32C449.57 197.07 449.57 186.94 443.32 180.69L384.98 122.35C378.73 116.1 368.6 116.1 362.35 122.35L351.04 133.66C344.79 139.91 344.79 150.04 351.04 156.29L386.75 192L351.04 227.72C344.79 233.97 344.79 244.1 351.04 250.35V250.35ZM624 416H381.54C380.8 435.81 366.83 448 348.8 448H288C269.31 448 254.98 430.53 255.23 416H16C7.2 416 0 423.2 0 432V448C0 483.2 28.8 512 64 512H576C611.2 512 640 483.2 640 448V432C640 423.2 632.8 416 624 416ZM576 48C576 21.6 554.4 0 528 0H112C85.6 0 64 21.6 64 48V384H576V48ZM512 320H128V64H512V320Z" fill="#0F243E"/>
</svg>
