<svg width="24" height="24" viewBox="0 0 24 24" fill="none" xmlns="http://www.w3.org/2000/svg">
<g clip-path="url(#clip0)">
<path d="M17.193 9.555C15.929 3.975 12.941 2.141 12.62 1.44C12.34 1.046 12.09 0.486 11.885 0C11.849 0.495 11.83 0.685 11.362 1.184C10.639 1.75 6.924 4.866 6.622 11.204C6.34 17.116 10.892 20.639 11.51 21.088L11.58 21.138C11.7087 22.0898 11.8187 23.0439 11.91 24H12.391C12.505 22.968 12.675 21.944 12.901 20.93C13.318 20.634 13.505 20.467 13.751 20.237C14.916 19.1593 15.8418 17.8491 16.4686 16.3911C17.0955 14.9332 17.4093 13.3599 17.39 11.773C17.4 10.959 17.287 10.111 17.193 9.555V9.555ZM11.857 17.75C11.857 17.75 11.857 9.459 12.132 9.46C12.345 9.46 12.622 20.155 12.622 20.155C12.241 20.11 11.857 18.395 11.857 17.75Z" fill="white"/>
</g>
<defs>
<clipPath id="clip0">
<rect width="24" height="24" fill="white"/>
</clipPath>
</defs>
</svg>
