<svg width="64" height="64" viewBox="0 0 64 64" fill="none" xmlns="http://www.w3.org/2000/svg">
<g clip-path="url(#clip0)">
<path d="M46.3465 22.2097L46.3233 22.1999C46.3098 22.1947 46.2966 22.1901 46.2849 22.1781C46.2462 22.1364 46.2289 22.0791 46.2383 22.0229L47.5267 14.1345L53.5686 20.1868L47.285 22.8641C47.2679 22.8712 47.2488 22.8747 47.23 22.8739H47.205C47.1967 22.8687 47.1884 22.8622 47.1717 22.8455C46.9378 22.5848 46.6582 22.3692 46.3466 22.2096L46.3465 22.2097ZM55.1102 21.729L61.5705 28.1985C62.9122 29.5439 63.5839 30.2149 63.8289 30.9927C63.8656 31.1079 63.8956 31.223 63.919 31.3415L48.4799 24.7935C48.4716 24.79 48.4634 24.7866 48.4549 24.7837C48.3933 24.7587 48.3216 24.7303 48.3216 24.6669C48.3216 24.6034 48.3949 24.5734 48.4566 24.5484L48.4766 24.5401L55.1102 21.729ZM63.6556 33.4179C63.3223 34.0455 62.6722 34.6965 61.5722 35.7998L54.2885 43.0923L44.8681 41.1277L44.8181 41.1179C44.7347 41.1044 44.6464 41.0895 44.6464 41.0144C44.5741 40.2277 44.1787 39.5065 43.5547 39.0231C43.5164 38.9847 43.5264 38.9247 43.5382 38.8696C43.5382 38.8613 43.5382 38.853 43.5415 38.8461L45.3132 27.9533L45.3197 27.9166C45.3295 27.8331 45.3447 27.7363 45.4197 27.7363C46.1867 27.6408 46.8833 27.2409 47.3531 26.6263C47.3681 26.6098 47.3781 26.5913 47.3981 26.5812C47.4515 26.5562 47.5148 26.5812 47.5698 26.6047L63.6539 33.4181L63.6556 33.4179ZM52.6134 44.7697L40.6362 56.7642L42.6863 44.1455L42.6896 44.129C42.6913 44.1124 42.6948 44.0956 42.6994 44.0805C42.716 44.0405 42.7594 44.0238 42.8011 44.0071L42.8211 43.9988C43.27 43.807 43.667 43.5112 43.9795 43.1358C44.0195 43.0891 44.0678 43.044 44.1295 43.0357C44.1455 43.033 44.1618 43.033 44.1778 43.0357L52.6115 44.7716L52.6134 44.7697ZM38.1011 59.3029L36.751 60.6549L21.8254 39.0529C21.82 39.045 21.8144 39.0374 21.8088 39.0295C21.7856 38.9977 21.7605 38.9661 21.7655 38.9293C21.7655 38.9026 21.7839 38.8793 21.8022 38.8592L21.8187 38.8375C21.8637 38.7707 21.9021 38.704 21.9437 38.6322L21.977 38.5738L21.9822 38.5686C22.0057 38.5285 22.0272 38.4901 22.0672 38.4684C22.1022 38.4519 22.1506 38.4586 22.1889 38.4667L38.7247 41.8818C38.7709 41.8889 38.8145 41.9079 38.8513 41.9368C38.8731 41.9586 38.878 41.9819 38.883 42.0086C39.1168 42.8945 39.7507 43.6201 40.5964 43.9699C40.6431 43.9933 40.6231 44.045 40.6016 44.1001C40.5908 44.1242 40.5823 44.1494 40.5766 44.1752C40.3683 45.4437 38.5815 56.3565 38.1015 59.3026L38.1011 59.3029ZM35.281 62.1255C34.2859 63.1119 33.6992 63.6343 33.0359 63.8447C32.3818 64.0518 31.6799 64.0518 31.0258 63.8447C30.2491 63.5976 29.5774 62.9266 28.2357 61.5813L13.2466 46.5707L17.1618 40.4901C17.1803 40.46 17.1985 40.4333 17.2285 40.4116C17.2701 40.3816 17.3301 40.3951 17.3802 40.4116C18.2788 40.6831 19.2436 40.6341 20.1103 40.2731C20.1553 40.2565 20.2003 40.2447 20.2353 40.2764C20.253 40.2921 20.2684 40.3103 20.2819 40.3298L35.281 62.127L35.281 62.1255ZM11.8016 45.1236L8.36309 41.6802L15.1534 38.7792C15.1707 38.7715 15.1895 38.7677 15.2084 38.7675C15.2651 38.7675 15.2984 38.8242 15.3284 38.876C15.3967 38.9811 15.4689 39.0835 15.5451 39.1831L15.5668 39.2098C15.5869 39.2382 15.5733 39.2665 15.5534 39.2933L11.8032 45.1236L11.8016 45.1236ZM6.84135 40.1562L2.49115 35.7998C1.75112 35.0587 1.21443 34.5212 0.841077 34.0589L14.0683 36.8063C14.0849 36.8094 14.1016 36.8123 14.1184 36.8146C14.2 36.828 14.29 36.843 14.29 36.9198C14.29 37.0032 14.1917 37.0416 14.1083 37.0733L14.07 37.0899L6.84135 40.1562ZM0.0810432 31.8189C0.0961802 31.5383 0.146525 31.2607 0.23104 30.9927C0.477718 30.2149 1.14775 29.5439 2.49114 28.1985L8.05806 22.6236C10.6212 26.3489 13.1914 30.0694 15.7684 33.7851C15.8134 33.8452 15.8634 33.912 15.8118 33.9621C15.5684 34.2308 15.3251 34.5246 15.1534 34.8434C15.1347 34.8843 15.1061 34.92 15.07 34.9469C15.0483 34.9603 15.025 34.9552 15 34.9502H14.9967L0.0810432 31.8172V31.8189ZM9.54814 21.1314L17.0301 13.6353C17.7352 13.9441 20.297 15.0274 22.5854 15.9955C24.3188 16.7299 25.8989 17.3975 26.3956 17.6145C26.4456 17.6346 26.4906 17.6546 26.5122 17.7047C26.5257 17.7347 26.5187 17.7731 26.5122 17.8048C26.2716 18.904 26.5992 20.0507 27.384 20.856C27.4339 20.9061 27.384 20.9778 27.3406 21.0396L27.3174 21.0747L19.717 32.8638C19.697 32.8972 19.6787 32.9256 19.6454 32.9473C19.6054 32.9723 19.5487 32.9607 19.502 32.949C19.2064 32.8714 18.9025 32.83 18.597 32.8255C18.3236 32.8255 18.027 32.8756 17.7269 32.9306H17.7252C17.6919 32.9358 17.6619 32.9424 17.6352 32.9223C17.6058 32.8981 17.5804 32.8695 17.5602 32.8372L9.54656 21.1315L9.54814 21.1314ZM18.5452 12.1214L28.2357 2.41703C29.5774 1.07337 30.2491 0.400706 31.0258 0.155341C31.6799 -0.0517803 32.3818 -0.0517803 33.0359 0.155341C33.8126 0.400706 34.4843 1.07337 35.826 2.41703L37.9261 4.52014L31.0341 15.2093C31.0172 15.2404 30.9938 15.2677 30.9658 15.2894C30.9241 15.3178 30.8658 15.306 30.8158 15.2894C29.7126 14.9542 28.5154 15.1852 27.6156 15.907C27.5706 15.9537 27.504 15.927 27.4473 15.9018C26.5472 15.5095 19.5469 12.5468 18.5452 12.1212L18.5452 12.1214ZM39.3895 5.98564L45.7531 12.3584L44.2197 21.8692V21.8942C44.2184 21.9159 44.2137 21.9372 44.2063 21.9576C44.1897 21.991 44.1563 21.9977 44.1229 22.0077C43.795 22.1072 43.4863 22.2612 43.2095 22.4634C43.1976 22.4721 43.1866 22.4815 43.1762 22.4918C43.1577 22.5118 43.1395 22.5301 43.1095 22.5335C43.0851 22.5342 43.0608 22.5304 43.0379 22.5217L33.3407 18.3956L33.3223 18.3873C33.2606 18.3623 33.1873 18.3322 33.1873 18.2688C33.1303 17.7277 32.9538 17.206 32.6706 16.7416C32.6239 16.6648 32.5722 16.5847 32.6122 16.5062L39.3895 5.98564ZM32.8359 20.3502L41.9263 24.206C41.9763 24.2294 42.0313 24.251 42.053 24.3028C42.0618 24.3339 42.0618 24.3668 42.053 24.3979C42.0263 24.5314 42.003 24.6833 42.003 24.8369V25.0923C42.003 25.1557 41.938 25.1824 41.878 25.2075L41.8595 25.214C40.4194 25.8299 21.6419 33.8484 21.6136 33.8484C21.5852 33.8484 21.5552 33.8484 21.5269 33.8201C21.4769 33.77 21.5269 33.6999 21.5719 33.6365C21.58 33.6255 21.5875 33.6142 21.5951 33.6031L29.0655 22.0193L29.0789 21.9992C29.1223 21.9292 29.1723 21.8507 29.2523 21.8507L29.3273 21.8624C29.4973 21.8859 29.6473 21.9075 29.799 21.9075C30.9324 21.9075 31.9824 21.355 32.6158 20.4102C32.631 20.385 32.65 20.3624 32.6724 20.3434C32.7174 20.3101 32.7841 20.3269 32.8358 20.3499L32.8359 20.3502ZM22.4254 35.6813L42.893 26.94C42.893 26.94 42.923 26.94 42.9513 26.9684C43.063 27.0802 43.158 27.1553 43.2497 27.2254L43.2947 27.2538C43.3363 27.2773 43.378 27.3039 43.3813 27.3473C43.3813 27.3638 43.3813 27.374 43.3778 27.389L41.6244 38.175L41.6179 38.2184C41.6062 38.3019 41.5947 38.397 41.5162 38.397C40.5672 38.4612 39.7109 38.9902 39.2278 39.8108L39.2195 39.8242C39.1963 39.8626 39.1745 39.8993 39.1361 39.9194C39.1012 39.9359 39.0562 39.9292 39.0195 39.9211L22.6971 36.5494C22.6806 36.5461 22.4437 35.6831 22.4254 35.6814L22.4254 35.6813Z" fill="url(#paint0_radial)"/>
</g>
<defs>
<radialGradient id="paint0_radial" cx="0" cy="0" r="1" gradientUnits="userSpaceOnUse" gradientTransform="translate(32 -32) scale(63.9999 64.1624)">
<stop stop-color="white"/>
<stop offset="1" stop-color="white"/>
</radialGradient>
<clipPath id="clip0">
<rect width="64" height="64" fill="white"/>
</clipPath>
</defs>
</svg>
