<svg xmlns="http://www.w3.org/2000/svg" xmlns:xlink="http://www.w3.org/1999/xlink" version="1.1" x="0px" y="0px" viewBox="0 0 100 125" style="enable-background:new 0 0 100 100;" xml:space="preserve"><path d="M10.836,70.429l13.982,4.224c0.095,0.029,0.192,0.043,0.289,0.043c0.163,0,0.326-0.04,0.473-0.119  c0.233-0.125,0.408-0.338,0.484-0.592l12.018-39.782l5.965,3.114c0.144,0.075,0.303,0.114,0.463,0.114  c0.041,0,0.081-0.002,0.122-0.007l40.796-5.022c1.446-0.178,2.736-0.909,3.633-2.057s1.293-2.578,1.114-4.023l-0.911-7.402  c-0.367-2.985-3.103-5.108-6.08-4.748l-40.559,4.993l1.102-3.65c0.16-0.529-0.14-1.086-0.668-1.246l-13.981-4.224  c-0.255-0.078-0.528-0.05-0.762,0.076s-0.408,0.338-0.484,0.592L10.168,69.182C10.008,69.71,10.307,70.269,10.836,70.429z   M42.038,21.942l1.588,12.891l-5.927-3.124l-0.656-5.331L42.038,21.942z M77.688,31.338l-31.993,3.938l-1.756-14.26l31.994-3.938  L77.688,31.338z M77.917,16.834l1.89-0.233l1.755,14.26l-1.89,0.233L77.917,16.834z M35.227,27.991l0.318,2.583l-2.025-1.067  L35.227,27.991z M83.429,16.156c1.889-0.234,3.618,1.116,3.852,3.007l0.911,7.402c0.112,0.916-0.138,1.821-0.706,2.548  c-0.568,0.728-1.385,1.19-2.301,1.303l-1.638,0.202l-1.755-14.26L83.429,16.156z M29.457,12.247l12.067,3.646L39.982,21  c-0.01,0.034-0.003,0.068-0.01,0.102l-7.815,6.94c-0.469,0.456-0.692,1.09-0.612,1.739c0.081,0.649,0.451,1.209,1.056,1.559  l3.677,1.92L24.439,72.449l-12.068-3.646l0.882-2.919l3.583,1.083c0.097,0.029,0.193,0.043,0.289,0.043  c0.43,0,0.827-0.279,0.957-0.711c0.16-0.528-0.139-1.086-0.668-1.246l-3.583-1.082l0.661-2.188l3.583,1.083  c0.097,0.029,0.193,0.043,0.289,0.043c0.43,0,0.827-0.279,0.957-0.711c0.16-0.528-0.139-1.086-0.668-1.246l-3.583-1.082l0.661-2.188  l3.583,1.083c0.097,0.029,0.193,0.043,0.289,0.043c0.43,0,0.827-0.279,0.957-0.711c0.16-0.528-0.139-1.086-0.668-1.246l-3.583-1.082  l0.661-2.188l3.583,1.083c0.097,0.029,0.193,0.043,0.289,0.043c0.43,0,0.827-0.279,0.957-0.711c0.16-0.528-0.139-1.086-0.668-1.246  l-3.583-1.082l0.661-2.188l3.583,1.083c0.097,0.029,0.193,0.043,0.289,0.043c0.43,0,0.827-0.279,0.957-0.711  c0.16-0.528-0.139-1.086-0.668-1.246l-3.583-1.082l0.661-2.188l3.583,1.083c0.097,0.029,0.193,0.043,0.289,0.043  c0.43,0,0.827-0.279,0.957-0.711c0.16-0.528-0.139-1.086-0.668-1.246l-3.583-1.082l0.661-2.188l3.583,1.082  c0.097,0.029,0.193,0.043,0.289,0.043c0.43,0,0.827-0.279,0.957-0.711c0.16-0.529-0.14-1.087-0.668-1.247l-3.583-1.082l0.661-2.187  l3.583,1.082c0.097,0.029,0.193,0.043,0.289,0.043c0.43,0,0.827-0.279,0.957-0.711c0.16-0.529-0.14-1.087-0.668-1.247l-3.583-1.082  l0.661-2.187l3.583,1.082c0.097,0.029,0.193,0.043,0.289,0.043c0.43,0,0.827-0.279,0.957-0.711c0.16-0.529-0.14-1.087-0.668-1.247  l-3.583-1.082l0.661-2.188l3.583,1.082c0.097,0.029,0.193,0.043,0.289,0.043c0.43,0,0.827-0.279,0.957-0.711  c0.16-0.528-0.139-1.086-0.668-1.246l-3.583-1.082l0.661-2.188l3.583,1.082c0.097,0.029,0.193,0.043,0.289,0.043  c0.43,0,0.827-0.279,0.957-0.711c0.16-0.528-0.139-1.086-0.668-1.246l-3.583-1.082l0.661-2.188l3.583,1.082  c0.097,0.029,0.193,0.043,0.289,0.043c0.43,0,0.827-0.279,0.957-0.711c0.16-0.528-0.139-1.086-0.668-1.246l-3.583-1.082l0.661-2.188  l3.583,1.082c0.097,0.029,0.193,0.043,0.289,0.043c0.43,0,0.827-0.279,0.957-0.711c0.16-0.528-0.139-1.086-0.668-1.246l-3.583-1.082  L29.457,12.247z"/><path d="M86.757,41.702c-0.298-3.025-1.756-5.753-4.105-7.681c-0.429-0.352-1.057-0.289-1.408,0.139L63.637,55.616L42.181,38.011  c-0.205-0.168-0.471-0.253-0.732-0.222c-0.265,0.026-0.507,0.156-0.676,0.361c-1.928,2.35-2.826,5.311-2.527,8.335  c0.298,3.025,1.757,5.753,4.106,7.681l13.432,11.021l-4.559,5.556c-3.349,0.034-6.36,1.743-8.128,4.64  c-2.247,3.681-1.688,8.595,1.332,11.684c1.828,1.872,4.328,2.924,6.913,2.924c0.138,0,0.275-0.003,0.413-0.009  c2.733-0.119,5.295-1.399,7.029-3.512c1.819-2.218,2.541-5.062,2.012-7.873l4.559-5.556L70.91,77.6  c0.031,2.859,1.293,5.508,3.512,7.328c1.787,1.467,3.949,2.181,6.099,2.181c2.786,0,5.551-1.2,7.452-3.517  c1.631-1.988,2.391-4.493,2.139-7.052c-0.252-2.559-1.486-4.867-3.475-6.499c-2.22-1.821-5.063-2.541-7.873-2.013l-5.555-4.559  l11.021-13.432C86.157,47.688,87.056,44.728,86.757,41.702z M43.62,52.62c-1.937-1.589-3.139-3.838-3.385-6.332  c-0.213-2.159,0.313-4.277,1.489-6.064l20.643,16.939l-5.316,6.478L43.62,52.62z M77.867,69.88c0.242,0.199,0.565,0.272,0.869,0.199  c2.357-0.567,4.771-0.018,6.632,1.508c1.575,1.293,2.553,3.122,2.753,5.149c0.2,2.028-0.402,4.012-1.695,5.587  c-2.667,3.252-7.484,3.726-10.735,1.059c-1.86-1.526-2.871-3.79-2.774-6.21c0.013-0.313-0.122-0.614-0.364-0.813l-5.928-4.864  l5.316-6.479L77.867,69.88z M58.944,77.701c-0.198,0.242-0.272,0.564-0.198,0.869c0.567,2.354,0.018,4.771-1.509,6.631  c-1.373,1.674-3.403,2.689-5.569,2.783c-2.199,0.089-4.259-0.727-5.81-2.314c-2.389-2.445-2.832-6.333-1.055-9.244  c1.417-2.323,3.84-3.683,6.528-3.683c0.106,0,0.213,0.002,0.32,0.006c0.304,0.011,0.614-0.122,0.813-0.365l29.656-36.143  c1.503,1.522,2.432,3.498,2.645,5.657c0.246,2.493-0.494,4.934-2.084,6.871L58.944,77.701z"/><path d="M76.821,82.003c1.07,0.878,2.383,1.346,3.749,1.346c0.196,0,0.395-0.01,0.593-0.029c1.575-0.155,2.996-0.915,4.001-2.139  c2.072-2.526,1.704-6.269-0.822-8.342c-2.526-2.073-6.27-1.704-8.344,0.822C73.926,76.188,74.295,79.931,76.821,82.003z   M77.545,74.929c0.775-0.945,1.903-1.435,3.04-1.435c0.877,0,1.759,0.292,2.487,0.89c1.675,1.374,1.919,3.854,0.545,5.528  c-0.665,0.811-1.606,1.314-2.65,1.417c-1.05,0.104-2.065-0.207-2.877-0.873C76.416,79.083,76.171,76.604,77.545,74.929z"/><path d="M55.341,75.698c-1.225-1.005-2.771-1.47-4.342-1.317c-1.576,0.155-2.997,0.915-4.001,2.139s-1.472,2.766-1.316,4.341  c0.155,1.576,0.915,2.997,2.139,4.001c1.07,0.878,2.383,1.346,3.749,1.346c0.196,0,0.395-0.01,0.593-0.029  c1.576-0.155,2.997-0.915,4.001-2.139c1.004-1.224,1.472-2.766,1.316-4.341S56.564,76.702,55.341,75.698z M54.616,82.771  c-0.665,0.811-1.606,1.314-2.65,1.417c-1.041,0.101-2.065-0.207-2.877-0.872c-0.811-0.666-1.314-1.607-1.417-2.651  c-0.103-1.044,0.207-2.066,0.873-2.877c0.665-0.811,1.606-1.314,2.65-1.417c0.131-0.013,0.262-0.019,0.393-0.019  c0.905,0,1.774,0.31,2.483,0.892c0.812,0.666,1.314,1.607,1.418,2.651C55.592,80.938,55.282,81.96,54.616,82.771z"/><path d="M66.404,61.811c-0.614-0.504-1.395-0.741-2.179-0.661c-0.791,0.078-1.505,0.459-2.009,1.074  c-0.505,0.614-0.739,1.388-0.661,2.179c0.077,0.791,0.459,1.505,1.073,2.009c0.538,0.44,1.196,0.675,1.882,0.675  c0.099,0,0.198-0.005,0.298-0.015c0.791-0.078,1.505-0.459,2.009-1.074c0.504-0.614,0.738-1.388,0.66-2.179  C67.4,63.029,67.019,62.315,66.404,61.811z M65.271,64.73c-0.166,0.201-0.399,0.326-0.659,0.352  c-0.259,0.027-0.513-0.052-0.715-0.217c-0.201-0.165-0.326-0.398-0.352-0.658c0,0,0,0,0-0.001c-0.025-0.259,0.052-0.513,0.217-0.714  c0.165-0.201,0.399-0.327,0.658-0.352c0.033-0.003,0.065-0.005,0.098-0.005c0.225,0,0.441,0.077,0.617,0.222  c0.201,0.165,0.326,0.399,0.352,0.659C65.513,64.275,65.437,64.529,65.271,64.73z"/><path d="M51.008,27.385c0.301,2.445,3.914,3.533,8.048,3.533c1.019,0,2.068-0.066,3.107-0.194c5.26-0.648,10.388-2.897,10.013-5.944  c-0.375-3.047-5.895-3.985-11.155-3.339C55.761,22.088,50.633,24.338,51.008,27.385z M61.265,23.425  c5.561-0.684,8.815,0.697,8.927,1.598c0.11,0.901-2.709,3.03-8.272,3.715c-5.566,0.684-8.815-0.696-8.927-1.598  C52.882,26.239,55.701,24.11,61.265,23.425z"/><text x="0" y="115" fill="#000000" font-size="5px" font-weight="bold" font-family="'Helvetica Neue', Helvetica, Arial-Unicode, Arial, Sans-serif">Created by Made by Made</text><text x="0" y="120" fill="#000000" font-size="5px" font-weight="bold" font-family="'Helvetica Neue', Helvetica, Arial-Unicode, Arial, Sans-serif">from the Noun Project</text></svg>