<svg xmlns="http://www.w3.org/2000/svg" data-name="Layer 1" viewBox="0 0 64 80" x="0px" y="0px"><title>Experience-proficiency-encounter-brain-star</title><path d="M23.826,17.3a3.322,3.322,0,0,0-.715,2.075A2.967,2.967,0,0,0,25.889,22.5a2.47,2.47,0,0,0,.6-.079A2.891,2.891,0,0,0,29.222,25,2.967,2.967,0,0,0,32,21.875,2.967,2.967,0,0,0,34.778,25a2.891,2.891,0,0,0,2.729-2.579,2.47,2.47,0,0,0,.6.079,2.967,2.967,0,0,0,2.778-3.125,3.322,3.322,0,0,0-.715-2.075A3.12,3.12,0,0,0,42,14.375a3.04,3.04,0,0,0-2.293-3.07,3.446,3.446,0,0,0,.071-.68,3.046,3.046,0,0,0-2.273-3.068A2.888,2.888,0,0,0,34.778,5,2.967,2.967,0,0,0,32,8.125,2.967,2.967,0,0,0,29.222,5,2.888,2.888,0,0,0,26.5,7.557a3.046,3.046,0,0,0-2.273,3.068,3.446,3.446,0,0,0,.071.68A3.04,3.04,0,0,0,22,14.375,3.12,3.12,0,0,0,23.826,17.3Z"/><path d="M36.167,26.667A1.667,1.667,0,0,0,34.5,25h-5a1.667,1.667,0,1,0,0,3.333h.449a1.282,1.282,0,0,0-1.282,1.282v.77a1.282,1.282,0,0,0,1.282,1.282h.384v1.111C30.333,34.005,31.08,35,32,35s1.667-.995,1.667-2.222V31.667h.384a1.282,1.282,0,0,0,1.282-1.282v-.77a1.282,1.282,0,0,0-1.282-1.282H34.5A1.667,1.667,0,0,0,36.167,26.667Z"/><path d="M22.434,47.818H20v4.364h2.434A9.726,9.726,0,0,0,23.7,55.22l-1.723,1.723,3.085,3.085,1.723-1.723a9.726,9.726,0,0,0,3.038,1.261V62h4.364V59.566a9.726,9.726,0,0,0,3.038-1.261l1.723,1.723,3.085-3.085L40.305,55.22a9.726,9.726,0,0,0,1.261-3.038H44V47.818H41.566a9.726,9.726,0,0,0-1.261-3.038l1.723-1.723-3.085-3.085L37.22,41.7a9.751,9.751,0,0,0-3.038-1.262V38H29.818v2.433A9.751,9.751,0,0,0,26.78,41.7l-1.723-1.723-3.085,3.085L23.7,44.78A9.726,9.726,0,0,0,22.434,47.818ZM32,44a6,6,0,1,1-6,6A6.006,6.006,0,0,1,32,44Z"/><circle cx="32" cy="50" r="4"/><circle cx="11" cy="36" r="2"/><path d="M4.771,39.915,3.479,41.207l2.314,2.314,1.292-1.292a7.329,7.329,0,0,0,2.279.946V45h3.272V43.175a7.329,7.329,0,0,0,2.279-.946l1.292,1.292,2.314-2.314-1.292-1.292a7.329,7.329,0,0,0,.946-2.279H20V34.364H18.175a7.329,7.329,0,0,0-.946-2.279l1.292-1.292-2.314-2.314-1.292,1.292a7.329,7.329,0,0,0-2.279-.946V27H9.364v1.825a7.329,7.329,0,0,0-2.279.946L5.793,28.479,3.479,30.793l1.292,1.292a7.329,7.329,0,0,0-.946,2.279H2v3.272H3.825A7.329,7.329,0,0,0,4.771,39.915ZM11,32a4,4,0,1,1-4,4A4,4,0,0,1,11,32Z"/><circle cx="53" cy="36" r="2"/><path d="M59.229,32.085l1.292-1.292-2.314-2.314-1.292,1.292a7.329,7.329,0,0,0-2.279-.946V27H51.364v1.825a7.329,7.329,0,0,0-2.279.946l-1.292-1.292-2.314,2.314,1.292,1.292a7.329,7.329,0,0,0-.946,2.279H44v3.272h1.825a7.329,7.329,0,0,0,.946,2.279l-1.292,1.292,2.314,2.314,1.292-1.292a7.329,7.329,0,0,0,2.279.946V45h3.272V43.175a7.329,7.329,0,0,0,2.279-.946l1.292,1.292,2.314-2.314-1.292-1.292a7.329,7.329,0,0,0,.946-2.279H62V34.364H60.175A7.329,7.329,0,0,0,59.229,32.085ZM53,40a4,4,0,1,1,4-4A4,4,0,0,1,53,40Z"/><polygon points="45.528 10 48 8.633 50.472 10 50 7.106 52 5.056 49.236 4.633 48 2 46.764 4.633 44 5.056 46 7.106 45.528 10"/><polygon points="13.528 10 16 8.633 18.472 10 18 7.106 20 5.056 17.236 4.633 16 2 14.764 4.633 12 5.056 14 7.106 13.528 10"/><text x="0" y="79" fill="#000000" font-size="5px" font-weight="bold" font-family="'Helvetica Neue', Helvetica, Arial-Unicode, Arial, Sans-serif">Created by Sumit Saengthong</text><text x="0" y="84" fill="#000000" font-size="5px" font-weight="bold" font-family="'Helvetica Neue', Helvetica, Arial-Unicode, Arial, Sans-serif">from the Noun Project</text></svg>