<svg xmlns="http://www.w3.org/2000/svg" xmlns:xlink="http://www.w3.org/1999/xlink" version="1.1" x="0px" y="0px" viewBox="0 0 512 640" style="enable-background:new 0 0 512 512;" xml:space="preserve"><title>Ai Human Tech</title><g><path d="M255,152.6c19.3,0,35-15.7,35-35.1v-11.6c0-19.3-15.7-35-35-35s-35,15.7-35,35v11.6C220,136.8,235.6,152.5,255,152.6z"/><path d="M501.1,262.4c-2.8-10.4-12.3-17.6-23-17.6c-6.4,0-12.4,2.6-16.9,7.2c-3,3.1-5.1,6.9-6.2,11H334v-32h25.1   c13.3,0.1,24.1-10.6,24.2-23.9c0,0,0,0,0-0.1c0-6.7,5.4-12,12.1-12c0,0,0.1,0,0.1,0h33.7c1.1,4,3.2,7.7,6.2,10.6   c9.3,9.4,24.5,9.4,33.8,0.1c9.4-9.3,9.4-24.5,0.1-33.8c-9.3-9.4-24.5-9.4-33.8-0.1c0,0-0.1,0.1-0.1,0.1c-3.2,2.9-5.4,6.8-6.2,11.1   h-33.7c-13.3-0.1-24.1,10.6-24.2,23.9c0,0,0,0,0,0.1c0,6.7-5.4,12-12.1,12c0,0-0.1,0-0.1,0H334v-25c0.1-2.8,0-5.6-0.3-8.4   c11.7-0.4,22.1-7.8,26.1-18.8l11.8-31.9c2.5-6.6,8.8-11,15.8-11h3.1c0.8,4.9,3.1,9.4,6.7,12.9c9.3,9.3,24.4,9.3,33.8,0   c9.3-9.3,9.3-24.4,0-33.8c-9.3-9.3-24.4-9.3-33.8,0c0,0,0,0,0,0c-2.4,2.6-4.3,5.6-5.6,8.9h-4.2c-12.1,0-22.9,7.5-27.1,18.8   l-11.8,32c-2.5,6.6-8.8,11.1-15.8,11.1h-3c-1.1-2.1-2.4-4.1-3.9-6c-6.1-7.4-14.9-12.1-24.4-13c-0.4,0-1.3,0-26.8,0h0   c-2.1-0.1-4.1,1-5.2,2.8l-13.5,23.5L243,157.9c-1.1-1.9-3.1-3-5.3-2.9h-24.1c-9.6-0.1-18.8,3.7-25.6,10.5c-2.5,2.5-4.7,5.4-6.4,8.5   h-2.4c-7.1-0.1-13.4-4.5-15.8-11.2l-11.8-32c-4.2-11.3-15-18.8-27.1-18.9h-4.2c-1.3-3.3-3.2-6.3-5.6-8.9   c-9.3-9.3-24.4-9.2-33.7,0.1c-9.3,9.3-9.2,24.4,0.1,33.7c9.3,9.2,24.3,9.2,33.6,0c3.5-3.5,5.9-8,6.7-12.9h3.1   c7.1,0,13.4,4.4,15.8,11l11.8,31.9c4,10.8,14.1,18.2,25.6,18.8c-0.2,1.7-0.4,3.4-0.4,5.1c0,0.4,0,13.2,0.1,28.2h-24.6   c-6.7,0.1-12.1-5.2-12.2-11.9c0,0,0-0.1,0-0.1c0-13.3-10.8-24-24.1-24c0,0,0,0-0.1,0H82.8c-0.8-4.3-3-8.2-6.2-11.1   c-9.3-9.3-24.4-9.4-33.7-0.1c-9.3,9.3-9.3,24.3-0.1,33.6c0,0,0,0,0.1,0.1c4.5,4.5,10.7,7,17.1,7c6.4-0.1,12.5-2.6,17.1-7v0.2   c2.9-3,4.9-6.6,5.8-10.6h33.7c6.7-0.1,12.1,5.2,12.2,11.9c0,0,0,0.1,0,0.1c0,13.3,10.8,24,24.1,24c0,0,0,0,0.1,0h24.6   c0,13,0.1,26,0.1,32H56.9c-1.1-4.2-3.2-8-6.2-11c-9.3-9.3-24.3-9.4-33.6-0.1s-9.4,24.3-0.1,33.6c4.5,4.5,10.6,7,16.9,7   c10.8,0.1,20.3-7.1,23.1-17.5h122.9c1.1,2.1,2.6,4.1,4.3,5.8c4.1,4.1,9.8,6.3,15.6,6.2h0.3c3.6-0.1,7.2-1.1,10.3-2.9l0.7,21.9   h-57.9c-13.4,0.2-24.2,11.1-24.2,24.5c0,6.8-5.4,12.3-12.2,12.5H82.8c-1.1-4.1-3.2-7.9-6.2-11c-9.3-9.3-24.4-9.3-33.7-0.1   c-9.3,9.3-9.3,24.5,0,33.8c9.3,9.3,24.5,9.3,33.8,0c3-3,5.1-6.6,6.2-10.7h33.7c13.4-0.2,24.2-11.1,24.2-24.5   c0-6.8,5.4-12.3,12.2-12.5h58.3l1,34h-32.9c-12-0.1-22.9,7.4-27.1,18.6l-11.8,31.6c-2.5,6.5-8.8,10.8-15.8,10.7h-3.1   c-1-4.8-3.3-9.2-6.7-12.7c-9.3-9.5-24.5-9.6-34-0.3s-9.6,24.5-0.3,34c9.3,9.5,24.5,9.6,34,0.3c0.1-0.1,0.2-0.2,0.3-0.3   c2.7-2.4,4.6-5.6,5.6-9h4.2c12,0.1,22.9-7.4,27.1-18.7l11.8-31.6c2.5-6.5,8.8-10.8,15.8-10.7h33.2l1.6,53.1c0,0.1,0,0.3,0,0.4   c0.7,7.7,7.2,13.6,15,13.5h53.6c7.8,0,14.3-5.9,15-13.7c0-0.1,0-0.2,0-0.2l1.5-53.1h33.5c7-0.1,13.4,4.2,15.8,10.8l11.8,31.6   c4.3,11.2,15.1,18.6,27.1,18.6h4.2c1,3.5,2.9,6.6,5.6,9c9.2,9.4,24.3,9.4,33.7,0.2c0,0,0,0,0.1-0.1c9.3-9.3,9.3-24.4,0-33.7   c0,0,0,0,0,0c-9.3-9.4-24.4-9.4-33.7-0.2c-3.4,3.5-5.7,8-6.7,12.7h-3.1c-7,0.1-13.3-4.3-15.8-10.8l-11.8-31.6   c-4.3-11.2-15.1-18.6-27.1-18.5h-33.2l0.9-34h58.6c6.8,0.2,12.2,5.7,12.2,12.5c0,13.4,10.8,24.3,24.2,24.5h33.7   c3.3,12.7,16.4,20.4,29.1,17c12.7-3.3,20.4-16.4,17-29.1c-1.1-4.2-3.3-8-6.4-11c-9.3-9.3-23.9-9.3-33.9,0v0.1   c-2.9,3.1-4.9,6.9-5.8,11h-33.7c-6.8-0.2-12.2-5.7-12.2-12.5c0-13.4-10.8-24.3-24.2-24.5h-58.3l0.6-21.6c3.2,1.8,6.7,2.8,10.3,2.8   c8.4-0.1,16-4.8,19.9-12.2H455c3.5,12.7,16.6,20.2,29.4,16.7C497.1,288.2,504.6,275.1,501.1,262.4z"/></g><text x="0" y="527" fill="#000000" font-size="5px" font-weight="bold" font-family="'Helvetica Neue', Helvetica, Arial-Unicode, Arial, Sans-serif">Created by Icongeek26</text><text x="0" y="532" fill="#000000" font-size="5px" font-weight="bold" font-family="'Helvetica Neue', Helvetica, Arial-Unicode, Arial, Sans-serif">from the Noun Project</text></svg>