<svg xmlns="http://www.w3.org/2000/svg" xmlns:xlink="http://www.w3.org/1999/xlink" version="1.1" x="0px" y="0px" viewBox="0 0 100 125" style="enable-background:new 0 0 100 100;" xml:space="preserve"><path d="M43,18.2l-4,3.7v-5.4c0-1.1,0.9-2,2-2s2,0.9,2,2V18.2z M51.4,13l0.6,0.6V9.5c0-1.1-0.9-2-2-2s-2,0.9-2,2v4.1l0.6-0.6  C49.4,12.3,50.6,12.3,51.4,13z M59,14.5c-1.1,0-2,0.9-2,2v1.7l4,3.7v-5.4C61,15.4,60.1,14.5,59,14.5z M83.8,40.5H65v10h24.5  L83.8,40.5z M48,40.5h-9v10h9V40.5z M39,54.5h22v38l0,0h-9v-14c0-1.1-0.9-2-2-2s-2,0.9-2,2v14h-9V54.5z M48,68.5c0,1.1,0.9,2,2,2  s2-0.9,2-2v-6c0-1.1-0.9-2-2-2s-2,0.9-2,2V68.5z M10.5,50.5H35v-10H16.2L10.5,50.5z M52,50.5h9v-10h-9V50.5z M9,54.5h26v38H9V54.5z   M25,68.5c0,1.1,0.9,2,2,2s2-0.9,2-2v-6c0-1.1-0.9-2-2-2s-2,0.9-2,2V68.5z M25,84.5c0,1.1,0.9,2,2,2s2-0.9,2-2v-6c0-1.1-0.9-2-2-2  s-2,0.9-2,2V84.5z M15,68.5c0,1.1,0.9,2,2,2s2-0.9,2-2v-6c0-1.1-0.9-2-2-2s-2,0.9-2,2V68.5z M15,84.5c0,1.1,0.9,2,2,2s2-0.9,2-2v-6  c0-1.1-0.9-2-2-2s-2,0.9-2,2V84.5z M42.1,24.5h15.8L50,17.2L42.1,24.5z M91,54.5v38H65v-38H91z M75,78.5c0-1.1-0.9-2-2-2s-2,0.9-2,2  v6c0,1.1,0.9,2,2,2s2-0.9,2-2V78.5z M75,62.5c0-1.1-0.9-2-2-2s-2,0.9-2,2v6c0,1.1,0.9,2,2,2s2-0.9,2-2V62.5z M85,78.5  c0-1.1-0.9-2-2-2s-2,0.9-2,2v6c0,1.1,0.9,2,2,2s2-0.9,2-2V78.5z M85,62.5c0-1.1-0.9-2-2-2s-2,0.9-2,2v6c0,1.1,0.9,2,2,2s2-0.9,2-2  V62.5z M39,36.5h22v-8H39V36.5z"/><text x="0" y="115" fill="#000000" font-size="5px" font-weight="bold" font-family="'Helvetica Neue', Helvetica, Arial-Unicode, Arial, Sans-serif">Created by IconMark</text><text x="0" y="120" fill="#000000" font-size="5px" font-weight="bold" font-family="'Helvetica Neue', Helvetica, Arial-Unicode, Arial, Sans-serif">from the Noun Project</text></svg>