<svg xmlns="http://www.w3.org/2000/svg" data-name="Layer 1" viewBox="0 0 80 100" x="0px" y="0px"><title>programming_language-python-java-script-html-cplus</title><path d="M31.105,26.789a2,2,0,0,0,2.684-.895l2-4a2,2,0,0,0-3.578-1.789l-2,4A2,2,0,0,0,31.105,26.789Z"/><path d="M39.105,26.789a2,2,0,0,0,2.684-.895l2-4a2,2,0,1,0-3.578-1.789l-2,4A2,2,0,0,0,39.105,26.789Z"/><path d="M47.105,26.789a2,2,0,0,0,2.684-.895l2-4a2,2,0,1,0-3.578-1.789l-2,4A2,2,0,0,0,47.105,26.789Z"/><path d="M55.105,26.789a2,2,0,0,0,2.684-.895l2-4a2,2,0,1,0-3.578-1.789l-2,4A2,2,0,0,0,55.105,26.789Z"/><path d="M31.105,43.789a2,2,0,0,0,2.684-.895l2-4a2,2,0,1,0-3.578-1.789l-2,4A2,2,0,0,0,31.105,43.789Z"/><path d="M39.105,43.789a2,2,0,0,0,2.684-.895l2-4a2,2,0,1,0-3.578-1.789l-2,4A2,2,0,0,0,39.105,43.789Z"/><path d="M47.105,43.789a2,2,0,0,0,2.684-.895l2-4a2,2,0,1,0-3.578-1.789l-2,4A2,2,0,0,0,47.105,43.789Z"/><path d="M55.105,43.789a2,2,0,0,0,2.684-.895l2-4a2,2,0,1,0-3.578-1.789l-2,4A2,2,0,0,0,55.105,43.789Z"/><path d="M31.105,60.789a2,2,0,0,0,2.684-.895l2-4a2,2,0,0,0-3.578-1.789l-2,4A2,2,0,0,0,31.105,60.789Z"/><path d="M39.105,60.789a2,2,0,0,0,2.684-.895l2-4a2,2,0,0,0-3.578-1.789l-2,4A2,2,0,0,0,39.105,60.789Z"/><path d="M24.211,27.895a2,2,0,0,0,3.578-1.789L26.236,23l1.553-3.105a2,2,0,0,0-3.578-1.789l-2,4a2,2,0,0,0,0,1.789Z"/><path d="M63.105,28.789a2,2,0,0,0,2.684-.895l2-4a2,2,0,0,0,0-1.789l-2-4a2,2,0,0,0-3.578,1.789L63.764,23l-1.553,3.105A2,2,0,0,0,63.105,28.789Z"/><path d="M24.211,44.895a2,2,0,1,0,3.578-1.789L26.236,40l1.553-3.105a2,2,0,1,0-3.578-1.789l-2,4a2,2,0,0,0,0,1.789Z"/><path d="M24.211,61.895a2,2,0,1,0,3.578-1.789L26.236,57l1.553-3.105a2,2,0,1,0-3.578-1.789l-2,4a2,2,0,0,0,0,1.789Z"/><path d="M63.105,45.789a2,2,0,0,0,2.684-.895l2-4a2,2,0,0,0,0-1.789l-2-4a2,2,0,0,0-3.578,1.789L63.764,40l-1.553,3.105A2,2,0,0,0,63.105,45.789Z"/><path d="M14,29a2,2,0,0,0,2-2V19a2,2,0,0,0-4,0v8A2,2,0,0,0,14,29Z"/><path d="M14,46a2,2,0,0,0,2-2V36a2,2,0,0,0-4,0v8A2,2,0,0,0,14,46Z"/><path d="M14,63a2,2,0,0,0,2-2V53a2,2,0,0,0-4,0v8A2,2,0,0,0,14,63Z"/><path d="M47,53v8a2,2,0,0,0,4,0V53a2,2,0,0,0-4,0Z"/><text x="0" y="95" fill="#000000" font-size="5px" font-weight="bold" font-family="'Helvetica Neue', Helvetica, Arial-Unicode, Arial, Sans-serif">Created by Timofei Rostilov</text><text x="0" y="100" fill="#000000" font-size="5px" font-weight="bold" font-family="'Helvetica Neue', Helvetica, Arial-Unicode, Arial, Sans-serif">from the Noun Project</text></svg>