<svg xmlns="http://www.w3.org/2000/svg" xmlns:xlink="http://www.w3.org/1999/xlink" version="1.1" x="0px" y="0px" viewBox="0 0 512 640" style="enable-background:new 0 0 512 512;" xml:space="preserve"><title>Hobbies-hobby-activity-freetime-lifestyle</title><path d="M415.1,98.4c-19.5-19.7-42.5-35.7-67.9-47L340.7,66c23.5,10.5,44.9,25.3,63,43.6L415.1,98.4z"/><path d="M171.3,66l-6.5-14.6c-56,25.1-99.4,72.1-120,130l15.1,5.3C79,132.9,119.2,89.3,171.3,66z"/><path d="M109.6,403.8c-22.3-22.1-39.3-48.9-49.8-78.4l-15.1,5.3c11.3,31.8,29.6,60.7,53.6,84.5L109.6,403.8z"/><path d="M417.6,387L430,397c8.4-10.4,15.9-21.5,22.3-33.2l-14-7.7C432.4,367,425.4,377.3,417.6,387z"/><path d="M320,256c0-26.5-21.5-48-48-48s-48,21.5-48,48s21.5,48,48,48C298.5,304,320,282.5,320,256z M280,259.3l-26.3,26.3  l-11.3-11.3l21.7-21.7V224h16V259.3z"/><rect x="80" y="248" width="40" height="16"/><path d="M144,216h16c4.4,0,8,3.6,8,8v64c0,4.4-3.6,8-8,8h-16c-4.4,0-8-3.6-8-8v-64C136,219.6,139.6,216,144,216z"/><path d="M40,216h16c4.4,0,8,3.6,8,8v64c0,4.4-3.6,8-8,8H40c-4.4,0-8-3.6-8-8v-64C32,219.6,35.6,216,40,216z"/><path d="M160,448H96c-4.4,0-8,3.6-8,8s3.6,8,8,8h64.8c-0.5-2.6-0.8-5.3-0.8-8V448z"/><path d="M176,456c0,13.2,10.8,24,24,24h112c13.2,0,24-10.8,24-24v-8H176V456z"/><rect x="248" y="360" width="16" height="16"/><rect x="160" y="352" width="16" height="16"/><rect x="168" y="400" width="16" height="16"/><rect x="192" y="368" width="16" height="16"/><rect x="216" y="392" width="16" height="16"/><rect x="216" y="344" width="16" height="16"/><rect x="264" y="400" width="16" height="16"/><path d="M456,223.3l7.3-7.3c8.7-8.7,14.6-19.9,16.7-32c-12.1,2.1-23.3,8-32,16.7l-7.3,7.3c-3.3,3.3-6.2,7-8.7,11v-11h-16v11  c-2.5-4-5.4-7.7-8.7-11l-7.3-7.3c-8.7-8.7-19.9-14.6-32-16.7c2.1,12.1,8,23.3,16.7,32l7.3,7.3c6.7,6.7,14.9,11.8,24,14.7v26h-32v16  h9.1l5.1,41c0.5,4,3.9,7,7.9,7h35.8c4,0,7.4-3,7.9-7l5.1-41h9.1v-16h-32v-26C441.1,235.1,449.3,230,456,223.3z"/><rect x="417.2" y="100" transform="matrix(0.4061 -0.9138 0.9138 0.4061 162.0841 465.4055)" width="43.8" height="16"/><rect x="410.8" y="144" transform="matrix(0.4061 -0.9138 0.9138 0.4061 110.2549 473.6583)" width="17.5" height="16"/><path d="M192,160h128c4.4,0,8-3.6,8-8v-8H184v8C184,156.4,187.6,160,192,160z"/><path d="M240,64C240,64,240,64,240,64v34.1l25.6-17.1L240,64L240,64z"/><path d="M312,40c0-4.4-3.6-8-8-8h-96c-4.4,0-8,3.6-8,8v88h112V40z M274.5,94.4l-25.6,17.1c-7.4,4.9-17.3,2.9-22.2-4.4  c-1.8-2.6-2.7-5.7-2.7-8.9V64c0-8.8,7.2-16,16-16c3.2,0,6.2,0.9,8.9,2.7v0l25.6,17.1c7.4,4.9,9.3,14.8,4.4,22.2  C277.7,91.7,276.2,93.2,274.5,94.4L274.5,94.4z"/><path d="M360,379.3v-20.7c0-2.1-0.8-4.2-2.3-5.7l-16-16c-3.1-3.1-8.2-3.1-11.3,0L305,362.3c-3.1,3.1-3.1,8.2,0,11.3l16,16  c1.5,1.5,3.5,2.3,5.7,2.3h20.7l70.3,70.3c3.5,3.5,9.2,3.5,12.7,0s3.5-9.2,0-12.7L360,379.3z"/><rect x="457.2" y="100" transform="matrix(0.4061 -0.9138 0.9138 0.4061 185.839 501.9581)" width="43.8" height="16"/><rect x="450.8" y="144" transform="matrix(0.4061 -0.9138 0.9138 0.4061 134.009 510.2105)" width="17.5" height="16"/><text x="0" y="527" fill="#000000" font-size="5px" font-weight="bold" font-family="'Helvetica Neue', Helvetica, Arial-Unicode, Arial, Sans-serif">Created by Wichai Wi</text><text x="0" y="532" fill="#000000" font-size="5px" font-weight="bold" font-family="'Helvetica Neue', Helvetica, Arial-Unicode, Arial, Sans-serif">from the Noun Project</text></svg>