<svg xmlns="http://www.w3.org/2000/svg" viewBox="0 0 512 640" x="0px" y="0px"><path d="M104,360H88a32.03635,32.03635,0,0,0,32,32h48V376H120A16.01833,16.01833,0,0,1,104,360Z"/><path d="M384,96H32V320H384ZM158.07422,258.794l-12.14844,10.4121-48-56a7.99938,7.99938,0,0,1,0-10.4121l48-56,12.14844,10.4121L114.53662,208Zm33.4165,16.01464-14.98144-5.61718,48-128,14.98144,5.61718Zm126.166-61.15136-56,56-11.31348-11.31446L300.686,208l-50.34278-50.34277,11.31348-11.31446,56,56A8.00034,8.00034,0,0,1,317.65674,213.65723Z"/><path d="M216,392a8,8,0,0,1-16,0V336H184v80h48V336H216Z"/><rect x="88" y="336" width="16" height="8"/><polygon points="370.667 392 344 412 344 416 424 416 424 412 397.333 392 370.667 392"/><path d="M400,264v64a8.00008,8.00008,0,0,1-8,8H288v56h55.99976l19.20044-14.40039A8.00222,8.00222,0,0,1,368,376h32a8.00222,8.00222,0,0,1,4.7998,1.59961L424.00024,392H480V264Z"/><rect x="248" y="376" width="24" height="16"/><text x="0" y="527" fill="#000000" font-size="5px" font-weight="bold" font-family="'Helvetica Neue', Helvetica, Arial-Unicode, Arial, Sans-serif">Created by ArmOkay</text><text x="0" y="532" fill="#000000" font-size="5px" font-weight="bold" font-family="'Helvetica Neue', Helvetica, Arial-Unicode, Arial, Sans-serif">from the Noun Project</text></svg>