<svg xmlns="http://www.w3.org/2000/svg" xmlns:xlink="http://www.w3.org/1999/xlink" version="1.1" x="0px" y="0px" viewBox="0 0 69 86.25" style="enable-background:new 0 0 69 69;" xml:space="preserve"><g><path d="M14.56152,34.58704c4.70033-2.40189,11.03616-0.64602,15.27637,3.04395c0.41762,0.36272,1.04893,0.31852,1.41016-0.09814   c0.36328-0.4165,0.31934-1.04785-0.09766-1.41064c-4.89052-4.25678-12.06201-6.09625-17.49902-3.31543   c-0.49219,0.25146-0.68652,0.85352-0.43555,1.34521C13.46582,34.64417,14.07129,34.83801,14.56152,34.58704z"/><path d="M14.56152,41.69885c4.69324-2.39991,11.03036-0.65107,15.27637,3.04395c0.41762,0.36272,1.04893,0.31852,1.41016-0.09814   c0.36328-0.4165,0.31934-1.04785-0.09766-1.41064c-4.8354-4.2081-12.03767-6.10874-17.49902-3.31543   c-0.49219,0.25146-0.68652,0.85352-0.43555,1.34521C13.46582,41.75647,14.07129,41.95032,14.56152,41.69885z"/><path d="M14.56152,48.81116c4.70311-2.40331,11.03866-0.64433,15.27637,3.04346c0.41762,0.36272,1.04893,0.31852,1.41016-0.09814   c0.36328-0.4165,0.31934-1.04785-0.09766-1.41064c-4.89052-4.25607-12.06177-6.09531-17.49902-3.31592   c-0.49219,0.25146-0.68652,0.854-0.43555,1.3457C13.4668,48.8678,14.07129,49.06262,14.56152,48.81116z"/><path d="M29.83789,58.96692c0.41918,0.36408,1.05021,0.31664,1.41016-0.09766c0.36328-0.41699,0.31934-1.04834-0.09766-1.41113   c-4.89052-4.25677-12.06201-6.09625-17.49902-3.31543c-0.49219,0.25146-0.68652,0.85352-0.43555,1.34521   c0.25,0.4917,0.85547,0.68555,1.3457,0.43506C19.26186,53.52108,25.59769,55.27695,29.83789,58.96692z"/><path d="M39.15039,37.63098c4.25122-3.69955,10.59374-5.43679,15.27637-3.04395c0.49219,0.25244,1.09473,0.05762,1.3457-0.43506   c0.25098-0.4917,0.05664-1.09375-0.43555-1.34521c-5.51946-2.82299-12.72868-0.83674-17.49902,3.31543   c-0.41699,0.36279-0.46094,0.99414-0.09766,1.41064C38.10114,37.94913,38.73241,37.99402,39.15039,37.63098z"/><path d="M39.15039,44.7428c4.25956-3.7068,10.60357-5.43341,15.27637-3.04395c0.49219,0.25293,1.09473,0.05811,1.3457-0.43506   c0.25098-0.4917,0.05664-1.09375-0.43555-1.34521c-5.50242-2.81431-12.71032-0.85203-17.49902,3.31543   c-0.41699,0.36279-0.46094,0.99414-0.09766,1.41064C38.10114,45.06094,38.73241,45.10584,39.15039,44.7428z"/><path d="M39.15039,51.85461c4.25122-3.69955,10.59374-5.4363,15.27637-3.04346c0.49219,0.25146,1.09473,0.05664,1.3457-0.43555   c0.25098-0.4917,0.05664-1.09424-0.43555-1.3457c-5.5196-2.82148-12.72841-0.8358-17.49902,3.31592   c-0.41699,0.36279-0.46094,0.99414-0.09766,1.41064C38.10114,52.17276,38.73241,52.21766,39.15039,51.85461z"/><path d="M39.15039,58.96692c4.25122-3.69955,10.59374-5.43679,15.27637-3.04395c0.49219,0.25195,1.09473,0.05713,1.3457-0.43506   c0.25098-0.4917,0.05664-1.09375-0.43555-1.34521c-5.51946-2.82299-12.72868-0.83673-17.49902,3.31543   c-0.41699,0.36279-0.46094,0.99414-0.09766,1.41113C38.10163,59.28522,38.73272,59.32969,39.15039,58.96692z"/><path d="M5.4375,66.50012h58.125c0.55273,0,1-0.44775,1-1V29.42297c0-0.55225-0.44727-1-1-1h-3.68066v-0.08301   c0-0.30273-0.1377-0.58936-0.37305-0.7793c-6.86279-5.51788-17.66577-4.07349-25.01465,3.17505   c-7.34985-7.24982-18.15552-8.69153-25.01465-3.17505c-0.23535,0.18994-0.37305,0.47656-0.37305,0.7793v0.08301H5.4375   c-0.55273,0-1,0.44775-1,1v36.07715C4.4375,66.05237,4.88477,66.50012,5.4375,66.50012z M62.5625,30.42297v34.07715H39.27954   c6.94482-2.66687,13.31921-3.26794,19.37085-1.82959c0.2998,0.07129,0.61133,0.00098,0.85156-0.18848   c0.24023-0.18994,0.37988-0.479,0.37988-0.78467V30.42297H62.5625z M57.88184,28.8302v31.62842   c-6.98438-1.35547-14.33496-0.2207-22.3877,3.45996V32.53918C42.00098,25.79309,51.66992,24.20276,57.88184,28.8302z    M11.10645,28.8302c6.21289-4.62695,15.88086-3.03857,22.3877,3.70898v31.37939c-7.18748-3.28509-14.69259-4.95458-22.3877-3.45996   V28.8302z M6.4375,30.42297h2.66895v31.27441c0,0.30566,0.13965,0.59473,0.37988,0.78467   c0.24121,0.18945,0.55176,0.25977,0.85156,0.18848c6.05078-1.43835,12.42542-0.83698,19.37036,1.82959H6.4375V30.42297z"/><path d="M47.42969,17.48749l-2.44727,4.76263c-0.15918,0.31006-0.14551,0.68066,0.03613,0.97803s0.50488,0.479,0.85352,0.479   h5.11523c0.34863,0,0.6709-0.18115,0.85352-0.47803c0.18164-0.29736,0.19531-0.66748,0.03711-0.97754l-2.44824-4.78638v-6.69012   l1.88184-0.64752c0.40332-0.13916,0.6748-0.51855,0.6748-0.94531c0-0.42725-0.27051-0.80713-0.67383-0.9458L34.82031,2.55481   c-0.21289-0.07324-0.44141-0.07324-0.65234,0L17.68652,8.23645c-0.40332,0.13916-0.67383,0.51904-0.67383,0.9458   s0.27148,0.80664,0.6748,0.94531l5.98047,2.05774v4.99939c0,0.4292,0.27344,0.81006,0.68066,0.94727l9.82617,3.31641   c0.10254,0.03516,0.21094,0.05273,0.31934,0.05273h0.01172c0.1084,0,0.2168-0.01758,0.31934-0.05273l9.82617-3.31641   c0.40723-0.13721,0.68066-0.51807,0.68066-0.94727v-4.99957l2.09766-0.7218V17.48749z M47.50977,21.70715l0.92383-1.79688   l0.91895,1.79688H47.50977z M34.49414,4.55774l13.39563,4.61469c-0.01721,0.01129-0.03442,0.02191-0.05078,0.03418   l-3.82556,1.31665c-0.00403,0.00134-0.0083,0.00134-0.01245,0.00275L34.5,13.79749l-9.28186-3.19464L24.99902,10.526   c-0.00195-0.00067-0.00391,0.00006-0.00586-0.00055l-3.9082-1.34515L34.49414,4.55774z M43.33203,12.87708v3.58984L34.5,19.44788   l-8.83203-2.98096v-3.58984l8.50098,2.92139c0.10474,0.03571,0.21826,0.05341,0.33179,0.05334   c0.00171,0,0.00342,0.00085,0.00513,0.00085c0.11035,0,0.2207-0.01855,0.3252-0.0542L43.33203,12.87708z"/><path d="M34.47852,12.25696c1.68848,0,3.06152-1.38281,3.06152-3.08252c0-1.69775-1.37305-3.07861-3.06152-3.07861   s-3.06152,1.38086-3.06152,3.07861C31.41699,10.87415,32.79004,12.25696,34.47852,12.25696z M34.47852,8.09583   c0.58496,0,1.06152,0.48389,1.06152,1.07861c0,0.59668-0.47656,1.08252-1.06152,1.08252s-1.06152-0.48584-1.06152-1.08252   C33.41699,8.57971,33.89355,8.09583,34.47852,8.09583z"/></g><text x="0" y="84" fill="#000000" font-size="5px" font-weight="bold" font-family="'Helvetica Neue', Helvetica, Arial-Unicode, Arial, Sans-serif">Created by Vectors Point</text><text x="0" y="89" fill="#000000" font-size="5px" font-weight="bold" font-family="'Helvetica Neue', Helvetica, Arial-Unicode, Arial, Sans-serif">from the Noun Project</text></svg>