<svg xmlns="http://www.w3.org/2000/svg" xmlns:xlink="http://www.w3.org/1999/xlink" version="1.1" x="0px" y="0px" viewBox="0 0 64 80" style="enable-background:new 0 0 64 64;" xml:space="preserve"><path d="M2,55.004h1.52c0.104,0.296,0.225,0.585,0.359,0.868l-1.075,1.075c-0.188,0.188-0.293,0.442-0.293,0.707  s0.105,0.52,0.293,0.707l2.834,2.834c0.375,0.375,1.039,0.375,1.414,0l1.076-1.076c0.283,0.135,0.572,0.254,0.867,0.358V62  c0,0.552,0.448,1,1,1h4.008c0.552,0,1-0.448,1-1v-1.525c0.294-0.104,0.583-0.224,0.864-0.358l1.079,1.079  c0.188,0.188,0.442,0.293,0.707,0.293s0.52-0.105,0.707-0.293l2.834-2.834c0.188-0.188,0.293-0.442,0.293-0.707  s-0.105-0.52-0.293-0.707l-1.08-1.08c0.134-0.281,0.253-0.569,0.357-0.863H22c0.552,0,1-0.448,1-1v-4.008c0-0.552-0.448-1-1-1  h-1.528c-0.104-0.294-0.223-0.582-0.357-0.863l1.08-1.08c0.188-0.188,0.293-0.442,0.293-0.707s-0.105-0.52-0.293-0.707l-2.834-2.834  c-0.375-0.375-1.039-0.375-1.414,0l-1.079,1.079c-0.281-0.134-0.57-0.253-0.864-0.358V42c0-0.552-0.448-1-1-1H9.996  c-0.552,0-1,0.448-1,1v1.522c-0.295,0.104-0.584,0.224-0.867,0.358l-1.076-1.076c-0.188-0.188-0.442-0.293-0.707-0.293  s-0.52,0.105-0.707,0.293l-2.834,2.834c-0.188,0.188-0.293,0.442-0.293,0.707s0.105,0.52,0.293,0.707l1.075,1.075  C3.745,48.411,3.625,48.7,3.52,48.996H2c-0.552,0-1,0.448-1,1v4.008C1,54.556,1.448,55.004,2,55.004z M3,50.996h1.259  c0.456,0,0.854-0.309,0.968-0.75c0.163-0.631,0.413-1.235,0.743-1.794c0.232-0.393,0.168-0.893-0.154-1.215l-0.891-0.891l1.42-1.42  l0.891,0.892c0.321,0.322,0.82,0.386,1.215,0.154c0.559-0.329,1.162-0.579,1.793-0.741c0.442-0.114,0.75-0.512,0.75-0.968V43h2.008  v1.264c0,0.456,0.308,0.854,0.749,0.968c0.632,0.164,1.234,0.414,1.792,0.743c0.392,0.231,0.894,0.168,1.215-0.154l0.894-0.895  l1.42,1.42l-0.896,0.896c-0.322,0.322-0.386,0.822-0.154,1.215c0.328,0.557,0.577,1.159,0.74,1.791  c0.114,0.441,0.512,0.75,0.968,0.75H21v2.008h-1.267c-0.456,0-0.854,0.308-0.968,0.75c-0.163,0.631-0.413,1.234-0.74,1.791  c-0.232,0.393-0.168,0.893,0.154,1.215l0.895,0.895l-1.42,1.42L16.76,58.18c-0.321-0.322-0.822-0.386-1.215-0.154  c-0.557,0.329-1.16,0.579-1.792,0.743c-0.441,0.114-0.749,0.512-0.749,0.968V61h-2.008v-1.262c0-0.456-0.309-0.854-0.75-0.968  c-0.631-0.163-1.235-0.412-1.793-0.741c-0.395-0.231-0.894-0.167-1.215,0.154l-0.891,0.891l-1.42-1.42l0.89-0.89  c0.323-0.322,0.386-0.822,0.154-1.215c-0.33-0.56-0.58-1.163-0.743-1.794c-0.114-0.441-0.512-0.75-0.968-0.75H3V50.996z"/><path d="M12,57c2.757,0,5-2.243,5-5s-2.243-5-5-5s-5,2.243-5,5S9.243,57,12,57z M12,49c1.654,0,3,1.346,3,3s-1.346,3-3,3  s-3-1.346-3-3S10.346,49,12,49z"/><path d="M62.948,6.266c-0.119-0.355-0.427-0.615-0.797-0.671l-3.618-0.552l-1.627-3.467C56.741,1.224,56.388,1,56,1  s-0.741,0.224-0.905,0.575l-1.627,3.467l-3.618,0.552c-0.371,0.057-0.678,0.316-0.797,0.671s-0.029,0.748,0.232,1.016l2.647,2.713  l-0.626,3.844c-0.062,0.378,0.098,0.758,0.411,0.979c0.313,0.22,0.724,0.242,1.06,0.058L56,13.093l3.224,1.782  C59.375,14.958,59.542,15,59.708,15c0.202,0,0.404-0.062,0.576-0.183c0.313-0.22,0.473-0.601,0.411-0.979l-0.626-3.844l2.647-2.713  C62.978,7.014,63.067,6.622,62.948,6.266z M58.284,8.96c-0.222,0.227-0.322,0.546-0.271,0.859l0.376,2.309l-1.906-1.053  c-0.15-0.083-0.317-0.125-0.484-0.125s-0.333,0.042-0.484,0.125l-1.906,1.053l0.376-2.309c0.051-0.313-0.049-0.632-0.271-0.859  l-1.641-1.682l2.222-0.339c0.33-0.051,0.613-0.262,0.754-0.564L56,4.354l0.949,2.021c0.142,0.302,0.425,0.513,0.754,0.564  l2.222,0.339L58.284,8.96z"/><path d="M47.377,13.076c-0.544-0.083-1.106,0.061-1.54,0.401l-7.846,6.138c0.431-0.829,0.63-1.76,0.55-2.714  c-0.112-1.331-0.736-2.538-1.757-3.4s-2.314-1.273-3.646-1.162c-1.331,0.113-2.538,0.737-3.4,1.757  c-0.861,1.021-1.274,2.315-1.162,3.646c0.096,1.128,0.576,2.153,1.336,2.968c-1.164,0.288-2.191,0.977-2.88,1.962l-7.879,10.754  c-0.45,0.643-0.486,1.465-0.094,2.145c0.391,0.679,1.115,1.057,1.902,0.995l2.396-0.203c0.582-0.049,1.112-0.349,1.439-0.804  l4.757-6.258l0.36,4.27L27.55,49.779c-0.892,0.183-1.788,0.347-2.689,0.473l0.277,1.98c3.138-0.439,6.235-1.21,9.204-2.293  c5.76-2.1,10.364-5.123,13.914-8.158l0.224-0.067l-0.031-0.104c3.425-2.962,5.853-5.919,7.364-8.028  c0.193-0.27,0.24-0.617,0.125-0.927c-0.114-0.311-0.375-0.545-0.696-0.625L53.7,31.644l5.615-3.119l1.326,5.968l-1.324-0.441  c-0.431-0.144-0.902,0.021-1.151,0.398L58,34.7C45.429,53.839,31.455,58.479,21.945,59.001l0.109,1.997  c9.903-0.544,24.394-5.301,37.357-24.807l2.271,0.757c0.341,0.115,0.718,0.035,0.986-0.206c0.268-0.241,0.384-0.608,0.306-0.959  l-2-9c-0.068-0.308-0.278-0.566-0.566-0.695c-0.288-0.128-0.619-0.116-0.896,0.038l-9,5c-0.359,0.199-0.559,0.598-0.505,1.005  c0.053,0.407,0.351,0.74,0.749,0.839l2.545,0.636c-1.319,1.706-3.14,3.783-5.483,5.892l-1.783-5.981  c-0.166-0.514-0.539-0.945-1.002-1.172l-4.111-2.141l-0.643-4.888l9.156-6.976c0.847-0.644,1.041-1.838,0.441-2.717l-1.156-1.698  C48.412,13.471,47.922,13.161,47.377,13.076z M33.306,14.333c0.086-0.007,0.172-0.011,0.258-0.011c0.707,0,1.384,0.247,1.93,0.708  c0.612,0.517,0.986,1.241,1.054,2.04c0.067,0.799-0.18,1.576-0.697,2.188c-0.517,0.612-1.241,0.987-2.04,1.054  c-0.8,0.069-1.576-0.18-2.188-0.697c-0.612-0.517-0.987-1.241-1.054-2.04C30.43,15.926,31.658,14.472,33.306,14.333z M34.665,47.667  l2.081-12.009l3.676,1.784l2.173,6.1C40.278,45.074,37.639,46.495,34.665,47.667z M38.608,24.077  c-0.285,0.217-0.432,0.57-0.386,0.926l0.786,5.979c0.043,0.323,0.24,0.606,0.53,0.756l4.588,2.372l2.032,6.817  c-0.591,0.482-1.214,0.96-1.862,1.434l-2.002-5.62c-0.184-0.466-0.532-0.843-0.98-1.062l-4.887-2.398  c-0.282-0.138-0.613-0.135-0.895,0.007c-0.281,0.143-0.478,0.41-0.531,0.72l-2.502,14.442c-0.942,0.313-1.894,0.601-2.857,0.849  l2.268-15.551c0.011-0.076,0.013-0.152,0.007-0.229l-0.589-6.975c-0.035-0.413-0.32-0.761-0.717-0.876  c-0.398-0.117-0.825,0.026-1.075,0.355l-6.346,8.349l-2.409,0.22l7.879-10.754c0.512-0.731,1.316-1.194,2.206-1.27l3.113-0.263  c0.001,0,0.001,0,0.002,0c0,0,0.001,0,0.001,0l3.985-0.337c0.194-0.017,0.379-0.089,0.532-0.209l8.572-6.706l1.157,1.698  L38.608,24.077z"/><rect x="4" y="2" width="2" height="2"/><rect x="6" y="4" width="2" height="2"/><rect x="2" y="4" width="2" height="2"/><rect x="4" y="6" width="2" height="2"/><rect x="12" y="5" width="2" height="2"/><rect x="14" y="7" width="2" height="2"/><rect x="10" y="7" width="2" height="2"/><rect x="12" y="9" width="2" height="2"/><rect x="58" y="56" width="2" height="2"/><rect x="60" y="58" width="2" height="2"/><rect x="56" y="58" width="2" height="2"/><rect x="58" y="60" width="2" height="2"/><text x="0" y="79" fill="#000000" font-size="5px" font-weight="bold" font-family="'Helvetica Neue', Helvetica, Arial-Unicode, Arial, Sans-serif">Created by Nithinan Tatah</text><text x="0" y="84" fill="#000000" font-size="5px" font-weight="bold" font-family="'Helvetica Neue', Helvetica, Arial-Unicode, Arial, Sans-serif">from the Noun Project</text></svg>