<svg xmlns="http://www.w3.org/2000/svg" viewBox="0 0 34.25 58.137499999999996" x="0px" y="0px"><title>about</title><g data-name="Layer 2"><g data-name="Layer 1"><path d="M26.22,6.2c0-4.75-8-4.75-8-4.75-.73,0,0-1.36,0-1.36C13.14-.59,11.68,2.8,11.68,2.8c-4.36,0-3.6,4.75-3.6,4.75v4.71l0,.66a9.06,9.06,0,0,0,18.12,0l0,0ZM17.13,20a7.06,7.06,0,0,1-7.06-7l.17-4.67a6.62,6.62,0,0,1,2.91-1.79c.73,2.33,10.17,3.78,10.17,3.78a3.93,3.93,0,0,1,.46.26A7,7,0,0,1,17.13,20Z"/><path d="M33.25,40.12h-7a1,1,0,1,1,0-2H32.2c-.62-6.39-7.15-11.44-15.08-11.44S2.67,31.73,2,38.12H8a1,1,0,0,1,0,2H1a1,1,0,0,1-1-1c0-8,7.68-14.44,17.13-14.44s17.13,6.48,17.13,14.44A1,1,0,0,1,33.25,40.12Z"/><path d="M17.13,31.73a7.39,7.39,0,1,0,7.39,7.39A7.39,7.39,0,0,0,17.13,31.73Zm-.64,3.45a.89.89,0,1,1-.26.63A.85.85,0,0,1,16.48,35.18Zm2,7.63H15.72v-.27a.85.85,0,0,0,.41-.15.71.71,0,0,0,.17-.54V38.49a.72.72,0,0,0-.12-.48.85.85,0,0,0-.46-.19v-.27h2.19v4.34a.7.7,0,0,0,.11.48.88.88,0,0,0,.42.17Z"/></g></g><text x="0" y="61.51" fill="#000000" font-size="5px" font-weight="bold" font-family="'Helvetica Neue', Helvetica, Arial-Unicode, Arial, Sans-serif">Created by anna kang</text><text x="0" y="66.50999999999999" fill="#000000" font-size="5px" font-weight="bold" font-family="'Helvetica Neue', Helvetica, Arial-Unicode, Arial, Sans-serif">from the Noun Project</text></svg>