<svg width="2500" height="2500" viewBox="0 0 2500 2500" fill="none" xmlns="http://www.w3.org/2000/svg">
<path d="M941.865 72.0899C1256.97 -8.72065 1605.23 38.3692 1883.13 209.883C2233.13 419.19 2461.63 815.117 2467.44 1222.68C2480.23 1634.3 2265.69 2042.44 1920.93 2266.28C1537.21 2524.41 1006.4 2534.31 614.531 2288.96C215.117 2050.58 -18.0274 1569.77 41.8652 1108.13C90.1074 620.342 466.865 190.117 941.865 72.0997V72.0899Z" fill="white"/>
<path d="M893.603 271.514C1488.96 33.1348 2219.19 473.252 2280.81 1111.63C2376.75 1686.04 1900 2269.77 1318.02 2286.63C764.531 2341.87 229.648 1872.67 213.955 1316.87C172.676 866.865 469.189 420.352 893.603 271.514V271.514Z" fill="#0F243E"/>
<path d="M953.486 1188.38C1220.35 970.352 1481.4 744.766 1754.07 533.135C1611.04 752.91 1463.96 969.766 1320.93 1189.53C1198.25 1190.12 1075.59 1190.12 953.486 1188.37V1188.38ZM1179.07 1309.88C1302.32 1309.88 1425 1309.88 1547.68 1311.63C1279.07 1528.49 1019.19 1755.81 745.928 1966.87C888.955 1747.09 1036.04 1529.66 1179.07 1309.88Z" fill="white"/>
</svg>
