<svg width="640" height="443" viewBox="0 0 640 443" fill="none" xmlns="http://www.w3.org/2000/svg">
<path d="M257.981 235.971L63.638 430.314C54.265 439.687 39.069 439.687 29.697 430.314L7.029 407.647C-2.328 398.29 -2.346 383.125 6.989 373.746L161.011 219L6.99 64.255C-2.345 54.876 -2.327 39.711 7.03 30.354L29.697 7.68698C39.07 -1.68602 54.266 -1.68602 63.638 7.68698L257.981 202.03C267.354 211.402 267.354 226.598 257.981 235.971ZM640 419V387C640 373.745 629.255 363 616 363H312C298.745 363 288 373.745 288 387V419C288 432.255 298.745 443 312 443H616C629.255 443 640 432.255 640 419Z" fill="#0F243E"/>
</svg>
