<svg width="448" height="512" viewBox="0 0 448 512" fill="none" xmlns="http://www.w3.org/2000/svg">
<path d="M383.9 308.3L407.8 245.7C411.8 235.2 404.1 224 392.8 224H334.3C345.3 205.1 352.1 183.4 352.1 160V159.7C391.3 151.9 416.1 140.6 416.1 128C416.1 114.7 388.8 102.9 346 94.9999C336.8 62.1999 319 29.1999 305.4 12.1999C295.9 0.29995 279.5 -3.40005 265.9 3.39995L238.3 17.1999C229.3 21.6999 218.7 21.6999 209.7 17.1999L182.1 3.39995C168.5 -3.40005 152.1 0.29995 142.6 12.1999C129.1 29.1999 111.2 62.1999 102 94.9999C59.3 102.9 32 114.7 32 128C32 140.6 56.8 151.9 96 159.7V160C96 183.4 102.8 205.1 113.8 224H56.3C44.8 224 37.1 235.7 41.6 246.3L67.4 306.5C27.3 329.8 0 372.7 0 422.4V467.2C0 491.9 20.1 512 44.8 512H403.2C427.9 512 448 491.9 448 467.2V422.4C448 374 422.2 332 383.9 308.3V308.3ZM176 480L134.4 288L184 320L208 360L176 480ZM272 480L240 360L264 320L313.6 288L272 480ZM313.7 181.5C309.8 193.4 306.7 206.1 297.2 214.9C287.1 224.2 249.2 237.3 233.2 189.9C230.4 181.5 217.8 181.5 214.9 189.9C197.9 240.1 158.9 222.3 150.9 214.9C141.4 206.1 138.2 193.4 134.4 181.5C133.6 179 128.1 175.8 128.1 175.7V164.9C156.4 168.5 189.1 170.7 224.1 170.7C259.1 170.7 291.8 168.6 320.1 164.9V175.7C320 175.8 314.5 178.9 313.7 181.5Z" fill="#0F243E"/>
</svg>
