<svg width="640" height="512" viewBox="0 0 640 512" fill="none" xmlns="http://www.w3.org/2000/svg">
<path d="M208 352C205.61 352 203.22 352.35 200.94 353.09C187.98 357.3 174.35 360 160 360C145.65 360 132.02 357.3 119.05 353.09C116.77 352.35 114.39 352 112 352C49.94 352 -0.330002 402.48 -1.95287e-06 464.62C0.139998 490.88 21.73 512 48 512H272C298.27 512 319.86 490.88 320 464.62C320.33 402.48 270.06 352 208 352ZM160 320C213.02 320 256 277.02 256 224C256 170.98 213.02 128 160 128C106.98 128 64 170.98 64 224C64 277.02 106.98 320 160 320ZM592 0H208C181.53 0 160 22.25 160 49.59V96C183.42 96 205.1 102.78 224 113.8V64H576V352H512V288H384V352H307.76C326.86 368.69 340.88 390.73 347.45 416H592C618.47 416 640 393.75 640 366.41V49.59C640 22.25 618.47 0 592 0Z" fill="white"/>
</svg>
