<svg width="24" height="24" viewBox="0 0 24 24" fill="none" xmlns="http://www.w3.org/2000/svg">
<g clip-path="url(#clip0)">
<path d="M15.795 5.522C14.9177 5.53598 14.0599 5.78347 13.31 6.239C13.2393 6.28322 13.1574 6.30613 13.074 6.305C10.357 6.303 7.64 6.303 4.923 6.303C4.7875 6.29898 4.65471 6.34141 4.54666 6.42327C4.4386 6.50513 4.3618 6.62148 4.329 6.753C4.29398 6.87891 4.30305 7.013 4.3547 7.13305C4.40636 7.25309 4.49749 7.35187 4.613 7.413C4.725 7.469 4.863 7.495 4.99 7.495C7.24 7.5 9.489 7.498 11.739 7.499C11.783 7.499 11.829 7.502 11.891 7.505L11.801 7.635C11.5128 8.03308 11.2857 8.47191 11.127 8.937C11.097 9.027 11.052 9.05 10.961 9.05C8.416 9.047 6.117 9.047 3.768 9.048C3.63426 9.04868 3.50456 9.09386 3.39935 9.17644C3.29415 9.25901 3.21943 9.37426 3.187 9.504C3.15427 9.63425 3.16743 9.77179 3.22426 9.89346C3.28109 10.0151 3.37812 10.1135 3.499 10.172C3.60969 10.2188 3.72883 10.2423 3.849 10.241C5.773 10.245 7.697 10.244 9.62 10.244H9.743C9.72613 10.2783 9.70063 10.3076 9.669 10.329C9.169 10.696 8.761 11.148 8.451 11.685C8.405 11.765 8.356 11.794 8.263 11.794C5.70067 11.7914 3.13833 11.7907 0.576 11.792C0.490208 11.7952 0.406105 11.8168 0.329408 11.8554C0.252711 11.8939 0.185219 11.9486 0.131519 12.0155C0.0778194 12.0825 0.0391716 12.1603 0.018203 12.2435C-0.00276561 12.3268 -0.00556333 12.4136 0.01 12.498C0.07 12.798 0.31 12.988 0.634 12.988H7.938C7.83252 13.5034 7.80756 14.032 7.864 14.555H7.27C7.037 14.555 6.913 14.672 6.906 14.904C6.90107 15.062 6.90107 15.22 6.906 15.378C6.912 15.614 7.038 15.732 7.276 15.733C7.545 15.734 7.814 15.736 8.083 15.732C8.158 15.73 8.195 15.755 8.225 15.824C8.411 16.252 8.664 16.64 8.975 16.989C9.057 17.081 9.143 17.169 9.249 17.281H4.239C4.1032 17.2845 3.97258 17.3339 3.86837 17.421C3.76416 17.5081 3.69248 17.628 3.665 17.761C3.63621 17.8952 3.65549 18.0352 3.71947 18.1565C3.78345 18.2779 3.88805 18.3729 4.015 18.425C4.11264 18.4607 4.21606 18.478 4.32 18.476C9.778 18.48 14.665 18.486 19.691 18.458C20.0709 18.4538 20.4483 18.3959 20.812 18.286C23.145 17.598 24.516 15.127 23.818 12.72C23.384 11.224 22.405 10.216 20.93 9.7C20.863 9.676 20.835 9.646 20.822 9.576C20.7958 9.44447 20.7631 9.31431 20.724 9.186C20.079 7.002 18.071 5.474 15.795 5.522V5.522ZM0.758 14.556C0.715785 14.5542 0.673653 14.5611 0.63419 14.5762C0.594727 14.5913 0.558767 14.6143 0.528518 14.6438C0.498269 14.6733 0.474369 14.7087 0.458288 14.7477C0.442206 14.7868 0.434281 14.8288 0.435 14.871C0.431 15.029 0.433 15.187 0.433 15.345C0.434 15.619 0.552 15.733 0.829 15.733H4.992C5.195 15.733 5.343 15.608 5.349 15.427C5.35441 15.2457 5.35441 15.0643 5.349 14.883C5.343 14.691 5.209 14.556 5.022 14.556H0.758Z" fill="white"/>
</g>
<defs>
<clipPath id="clip0">
<rect width="24" height="24" fill="white"/>
</clipPath>
</defs>
</svg>
