<svg width="24" height="24" viewBox="0 0 24 24" fill="none" xmlns="http://www.w3.org/2000/svg">
<g clip-path="url(#clip0)">
<path d="M22.394 6C22.227 5.71 21.996 5.457 21.742 5.31L12.926 0.219996C12.417 -0.0740035 11.586 -0.0740035 11.078 0.219996L2.26001 5.31C1.75201 5.603 1.33701 6.323 1.33701 6.91V17.09C1.33701 17.384 1.44101 17.71 1.60801 18C1.77501 18.29 2.00601 18.543 2.26001 18.69L11.076 23.78C11.584 24.073 12.416 24.073 12.924 23.78L21.74 18.69C21.994 18.543 22.225 18.29 22.392 18C22.559 17.71 22.662 17.384 22.662 17.09V6.91C22.665 6.616 22.562 6.29 22.394 6V6ZM12 19.11C8.08001 19.11 4.89101 15.92 4.89101 12C4.89101 8.08 8.08101 4.89 12.001 4.89C13.2482 4.89237 14.4729 5.22169 15.5531 5.84512C16.6332 6.46854 17.5311 7.36429 18.157 8.443L15.081 10.223C14.7683 9.68273 14.3192 9.234 13.7787 8.92164C13.2383 8.60928 12.6253 8.44424 12.001 8.443C11.0579 8.44379 10.1536 8.8188 9.4867 9.48569C8.81981 10.1526 8.4448 11.0569 8.44401 12C8.44533 12.9426 8.82043 13.8462 9.48706 14.5127C10.1537 15.1791 11.0574 15.5539 12 15.555C12.624 15.5537 13.2367 15.3888 13.7772 15.0768C14.3176 14.7649 14.7668 14.3167 15.08 13.777L18.158 15.557C17.5317 16.6359 16.6336 17.5317 15.5531 18.1551C14.4725 18.7785 13.2475 19.1078 12 19.11V19.11ZM19.11 12.395H18.32V13.185H17.53V12.395H16.74V11.605H17.53V10.815H18.32V11.605H19.11V12.395ZM22.072 12.395H21.282V13.185H20.492V12.395H19.702V11.605H20.492V10.815H21.282V11.605H22.072V12.395Z" fill="#0F243E"/>
</g>
<defs>
<clipPath id="clip0">
<rect width="24" height="24" fill="white"/>
</clipPath>
</defs>
</svg>
