<svg width="82" height="86" viewBox="0 0 82 86" fill="none" xmlns="http://www.w3.org/2000/svg">
<path d="M34 11.2L30 14.9V9.5C30 8.4 30.9 7.5 32 7.5C33.1 7.5 34 8.4 34 9.5V11.2ZM42.4 6L43 6.6V2.5C43 1.4 42.1 0.5 41 0.5C39.9 0.5 39 1.4 39 2.5V6.6L39.6 6C40.4 5.3 41.6 5.3 42.4 6ZM50 7.5C48.9 7.5 48 8.4 48 9.5V11.2L52 14.9V9.5C52 8.4 51.1 7.5 50 7.5ZM74.8 33.5H56V43.5H80.5L74.8 33.5ZM39 33.5H30V43.5H39V33.5ZM30 47.5H52V85.5H43V71.5C43 70.4 42.1 69.5 41 69.5C39.9 69.5 39 70.4 39 71.5V85.5H30V47.5ZM39 61.5C39 62.6 39.9 63.5 41 63.5C42.1 63.5 43 62.6 43 61.5V55.5C43 54.4 42.1 53.5 41 53.5C39.9 53.5 39 54.4 39 55.5V61.5ZM1.5 43.5H26V33.5H7.2L1.5 43.5ZM43 43.5H52V33.5H43V43.5ZM0 47.5H26V85.5H0V47.5ZM16 61.5C16 62.6 16.9 63.5 18 63.5C19.1 63.5 20 62.6 20 61.5V55.5C20 54.4 19.1 53.5 18 53.5C16.9 53.5 16 54.4 16 55.5V61.5ZM16 77.5C16 78.6 16.9 79.5 18 79.5C19.1 79.5 20 78.6 20 77.5V71.5C20 70.4 19.1 69.5 18 69.5C16.9 69.5 16 70.4 16 71.5V77.5ZM6 61.5C6 62.6 6.9 63.5 8 63.5C9.1 63.5 10 62.6 10 61.5V55.5C10 54.4 9.1 53.5 8 53.5C6.9 53.5 6 54.4 6 55.5V61.5ZM6 77.5C6 78.6 6.9 79.5 8 79.5C9.1 79.5 10 78.6 10 77.5V71.5C10 70.4 9.1 69.5 8 69.5C6.9 69.5 6 70.4 6 71.5V77.5ZM33.1 17.5H48.9L41 10.2L33.1 17.5ZM82 47.5V85.5H56V47.5H82ZM66 71.5C66 70.4 65.1 69.5 64 69.5C62.9 69.5 62 70.4 62 71.5V77.5C62 78.6 62.9 79.5 64 79.5C65.1 79.5 66 78.6 66 77.5V71.5ZM66 55.5C66 54.4 65.1 53.5 64 53.5C62.9 53.5 62 54.4 62 55.5V61.5C62 62.6 62.9 63.5 64 63.5C65.1 63.5 66 62.6 66 61.5V55.5ZM76 71.5C76 70.4 75.1 69.5 74 69.5C72.9 69.5 72 70.4 72 71.5V77.5C72 78.6 72.9 79.5 74 79.5C75.1 79.5 76 78.6 76 77.5V71.5ZM76 55.5C76 54.4 75.1 53.5 74 53.5C72.9 53.5 72 54.4 72 55.5V61.5C72 62.6 72.9 63.5 74 63.5C75.1 63.5 76 62.6 76 61.5V55.5ZM30 29.5H52V21.5H30V29.5Z" fill="#0F243E"/>
</svg>
