<svg width="64" height="80" viewBox="0 0 64 80" fill="none" xmlns="http://www.w3.org/2000/svg">
<path d="M2 55.004H3.52C3.624 55.3 3.745 55.589 3.879 55.872L2.804 56.947C2.616 57.135 2.511 57.389 2.511 57.654C2.511 57.919 2.616 58.174 2.804 58.361L5.638 61.195C6.013 61.57 6.677 61.57 7.052 61.195L8.128 60.119C8.411 60.254 8.7 60.373 8.995 60.477V62C8.995 62.552 9.443 63 9.995 63H14.003C14.555 63 15.003 62.552 15.003 62V60.475C15.297 60.371 15.586 60.251 15.867 60.117L16.946 61.196C17.134 61.384 17.388 61.489 17.653 61.489C17.918 61.489 18.173 61.384 18.36 61.196L21.194 58.362C21.382 58.174 21.487 57.92 21.487 57.655C21.487 57.39 21.382 57.135 21.194 56.948L20.114 55.868C20.248 55.587 20.367 55.299 20.471 55.005H22C22.552 55.005 23 54.557 23 54.005V49.997C23 49.445 22.552 48.997 22 48.997H20.472C20.368 48.703 20.249 48.415 20.115 48.134L21.195 47.054C21.383 46.866 21.488 46.612 21.488 46.347C21.488 46.082 21.383 45.827 21.195 45.64L18.361 42.806C17.986 42.431 17.322 42.431 16.947 42.806L15.868 43.885C15.587 43.751 15.298 43.632 15.004 43.527V42C15.004 41.448 14.556 41 14.004 41H9.996C9.444 41 8.996 41.448 8.996 42V43.522C8.701 43.626 8.412 43.746 8.129 43.88L7.053 42.804C6.865 42.616 6.611 42.511 6.346 42.511C6.081 42.511 5.826 42.616 5.639 42.804L2.805 45.638C2.617 45.826 2.512 46.08 2.512 46.345C2.512 46.61 2.617 46.865 2.805 47.052L3.88 48.127C3.745 48.411 3.625 48.7 3.52 48.996H2C1.448 48.996 1 49.444 1 49.996V54.004C1 54.556 1.448 55.004 2 55.004ZM3 50.996H4.259C4.715 50.996 5.113 50.687 5.227 50.246C5.39 49.615 5.64 49.011 5.97 48.452C6.202 48.059 6.138 47.559 5.816 47.237L4.925 46.346L6.345 44.926L7.236 45.818C7.557 46.14 8.056 46.204 8.451 45.972C9.01 45.643 9.613 45.393 10.244 45.231C10.686 45.117 10.994 44.719 10.994 44.263V43H13.002V44.264C13.002 44.72 13.31 45.118 13.751 45.232C14.383 45.396 14.985 45.646 15.543 45.975C15.935 46.206 16.437 46.143 16.758 45.821L17.652 44.926L19.072 46.346L18.176 47.242C17.854 47.564 17.79 48.064 18.022 48.457C18.35 49.014 18.599 49.616 18.762 50.248C18.876 50.689 19.274 50.998 19.73 50.998H21V53.006H19.733C19.277 53.006 18.879 53.314 18.765 53.756C18.602 54.387 18.352 54.99 18.025 55.547C17.793 55.94 17.857 56.44 18.179 56.762L19.074 57.657L17.654 59.077L16.76 58.18C16.439 57.858 15.938 57.794 15.545 58.026C14.988 58.355 14.385 58.605 13.753 58.769C13.312 58.883 13.004 59.281 13.004 59.737V61H10.996V59.738C10.996 59.282 10.687 58.884 10.246 58.77C9.615 58.607 9.011 58.358 8.453 58.029C8.058 57.798 7.559 57.862 7.238 58.183L6.347 59.074L4.927 57.654L5.817 56.764C6.14 56.442 6.203 55.942 5.971 55.549C5.641 54.989 5.391 54.386 5.228 53.755C5.114 53.314 4.716 53.005 4.26 53.005H3V50.996Z" fill="#0F243E"/>
<path d="M12 57C14.757 57 17 54.757 17 52C17 49.243 14.757 47 12 47C9.243 47 7 49.243 7 52C7 54.757 9.243 57 12 57ZM12 49C13.654 49 15 50.346 15 52C15 53.654 13.654 55 12 55C10.346 55 9 53.654 9 52C9 50.346 10.346 49 12 49Z" fill="#0F243E"/>
<path d="M62.948 6.266C62.829 5.911 62.521 5.651 62.151 5.595L58.533 5.043L56.906 1.576C56.741 1.224 56.388 1 56 1C55.612 1 55.259 1.224 55.095 1.575L53.468 5.042L49.85 5.594C49.479 5.651 49.172 5.91 49.053 6.265C48.934 6.62 49.024 7.013 49.285 7.281L51.932 9.994L51.306 13.838C51.244 14.216 51.404 14.596 51.717 14.817C52.03 15.037 52.441 15.059 52.777 14.875L56 13.093L59.224 14.875C59.375 14.958 59.542 15 59.708 15C59.91 15 60.112 14.938 60.284 14.817C60.597 14.597 60.757 14.216 60.695 13.838L60.069 9.994L62.716 7.281C62.978 7.014 63.067 6.622 62.948 6.266ZM58.284 8.96C58.062 9.187 57.962 9.506 58.013 9.819L58.389 12.128L56.483 11.075C56.333 10.992 56.166 10.95 55.999 10.95C55.832 10.95 55.666 10.992 55.515 11.075L53.609 12.128L53.985 9.819C54.036 9.506 53.936 9.187 53.714 8.96L52.073 7.278L54.295 6.939C54.625 6.888 54.908 6.677 55.049 6.375L56 4.354L56.949 6.375C57.091 6.677 57.374 6.888 57.703 6.939L59.925 7.278L58.284 8.96Z" fill="#0F243E"/>
<path d="M47.377 13.076C46.833 12.993 46.271 13.137 45.837 13.477L37.991 19.615C38.422 18.786 38.621 17.855 38.541 16.901C38.429 15.57 37.805 14.363 36.784 13.501C35.763 12.639 34.47 12.228 33.138 12.339C31.807 12.452 30.6 13.076 29.738 14.096C28.877 15.117 28.464 16.411 28.576 17.742C28.672 18.87 29.152 19.895 29.912 20.71C28.748 20.998 27.721 21.687 27.032 22.672L19.153 33.426C18.703 34.069 18.667 34.891 19.059 35.571C19.45 36.25 20.174 36.628 20.961 36.566L23.357 36.363C23.939 36.314 24.469 36.014 24.796 35.559L29.553 29.301L29.913 33.571L27.55 49.779C26.658 49.962 25.762 50.126 24.861 50.252L25.138 52.232C28.276 51.793 31.373 51.022 34.342 49.939C40.102 47.839 44.706 44.816 48.256 41.781L48.48 41.714L48.449 41.61C51.874 38.648 54.302 35.691 55.813 33.582C56.006 33.312 56.053 32.965 55.938 32.655C55.824 32.344 55.563 32.11 55.242 32.03L53.7 31.644L59.315 28.525L60.641 34.493L59.317 34.052C58.886 33.908 58.415 34.073 58.166 34.45L58 34.7C45.429 53.839 31.455 58.479 21.945 59.001L22.054 60.998C31.957 60.454 46.448 55.697 59.411 36.191L61.682 36.948C62.023 37.063 62.4 36.983 62.668 36.742C62.936 36.501 63.052 36.134 62.974 35.783L60.974 26.783C60.906 26.475 60.696 26.217 60.408 26.088C60.12 25.96 59.789 25.972 59.512 26.126L50.512 31.126C50.153 31.325 49.953 31.724 50.007 32.131C50.06 32.538 50.358 32.871 50.756 32.97L53.301 33.606C51.982 35.312 50.161 37.389 47.818 39.498L46.035 33.517C45.869 33.003 45.496 32.572 45.033 32.345L40.922 30.204L40.279 25.316L49.435 18.34C50.282 17.696 50.476 16.502 49.876 15.623L48.72 13.925C48.412 13.471 47.922 13.161 47.377 13.076ZM33.306 14.333C33.392 14.326 33.478 14.322 33.564 14.322C34.271 14.322 34.948 14.569 35.494 15.03C36.106 15.547 36.48 16.271 36.548 17.07C36.615 17.869 36.368 18.646 35.851 19.258C35.334 19.87 34.61 20.245 33.811 20.312C33.011 20.381 32.235 20.132 31.623 19.615C31.011 19.098 30.636 18.374 30.569 17.575C30.43 15.926 31.658 14.472 33.306 14.333ZM34.665 47.667L36.746 35.658L40.422 37.442L42.595 43.542C40.278 45.074 37.639 46.495 34.665 47.667ZM38.608 24.077C38.323 24.294 38.176 24.647 38.222 25.003L39.008 30.982C39.051 31.305 39.248 31.588 39.538 31.738L44.126 34.11L46.158 40.927C45.567 41.409 44.944 41.887 44.296 42.361L42.294 36.741C42.11 36.275 41.762 35.898 41.314 35.679L36.427 33.281C36.145 33.143 35.814 33.146 35.532 33.288C35.251 33.431 35.054 33.698 35.001 34.008L32.499 48.45C31.557 48.763 30.605 49.051 29.642 49.299L31.91 33.748C31.921 33.672 31.923 33.596 31.917 33.519L31.328 26.544C31.293 26.131 31.008 25.783 30.611 25.668C30.213 25.551 29.786 25.694 29.536 26.023L23.19 34.372L20.781 34.592L28.66 23.838C29.172 23.107 29.976 22.644 30.866 22.568L33.979 22.305C33.98 22.305 33.98 22.305 33.981 22.305H33.982L37.967 21.968C38.161 21.951 38.346 21.879 38.499 21.759L47.071 15.053L48.228 16.751L38.608 24.077Z" fill="#0F243E"/>
<path d="M6 2H4V4H6V2Z" fill="#0F243E"/>
<path d="M8 4H6V6H8V4Z" fill="#0F243E"/>
<path d="M4 4H2V6H4V4Z" fill="#0F243E"/>
<path d="M6 6H4V8H6V6Z" fill="#0F243E"/>
<path d="M14 5H12V7H14V5Z" fill="#0F243E"/>
<path d="M16 7H14V9H16V7Z" fill="#0F243E"/>
<path d="M12 7H10V9H12V7Z" fill="#0F243E"/>
<path d="M14 9H12V11H14V9Z" fill="#0F243E"/>
<path d="M60 56H58V58H60V56Z" fill="#0F243E"/>
<path d="M62 58H60V60H62V58Z" fill="#0F243E"/>
<path d="M58 58H56V60H58V58Z" fill="#0F243E"/>
<path d="M60 60H58V62H60V60Z" fill="#0F243E"/>
</svg>
