<svg width="84" height="64" viewBox="0 0 84 64" fill="none" xmlns="http://www.w3.org/2000/svg">
<path d="M0.599998 56.8C0.599998 60.7 3.7 63.8 7.6 63.8H76.4C80.3 63.8 83.4 60.7 83.4 56.8V18.8H0.599998V56.8ZM42.6 37.7C41.5 37.7 40.6 36.8 40.6 35.7C40.6 34.6 41.5 33.7 42.6 33.7H47.3V30.4C47.3 29.3 48.2 28.4 49.3 28.4H53.7C60 28.4 65.3 33 66.2 39.1H74.6C75.7 39.1 76.6 40 76.6 41.1C76.6 42.2 75.7 43.1 74.6 43.1H66.2C65.2 49.2 60 53.8 53.7 53.8H49.3C48.2 53.8 47.3 52.9 47.3 51.8V48.5H42.6C41.5 48.5 40.6 47.6 40.6 46.5C40.6 45.4 41.5 44.5 42.6 44.5H47.3V37.6H42.6V37.7ZM9.4 39.1H17.8C18.8 33 24 28.4 30.3 28.4H34.7C35.8 28.4 36.7 29.3 36.7 30.4V51.8C36.7 52.9 35.8 53.8 34.7 53.8H30.3C24 53.8 18.7 49.2 17.8 43.1H9.4C8.3 43.1 7.4 42.2 7.4 41.1C7.4 40 8.3 39.1 9.4 39.1Z" fill="white"/>
<path d="M30.4 49.8H32.8V32.4H30.4C25.6 32.4 21.7 36.3 21.7 41.1C21.6 45.9 25.6 49.8 30.4 49.8Z" fill="white"/>
<path d="M62.4 41.1C62.4 36.3 58.5 32.4 53.7 32.4H51.3V49.8H53.7C58.4 49.8 62.4 45.9 62.4 41.1Z" fill="white"/>
<path d="M76.4 0.199997H7.6C3.7 0.199997 0.599998 3.3 0.599998 7.2V14.7H83.4V7.2C83.4 3.4 80.2 0.199997 76.4 0.199997ZM7.7 12.7C4.9 12.7 2.6 10.4 2.6 7.6C2.6 4.8 4.9 2.5 7.7 2.5C10.5 2.5 12.8 4.8 12.8 7.6C12.8 10.4 10.5 12.7 7.7 12.7ZM21.6 12.7C18.8 12.7 16.5 10.4 16.5 7.6C16.5 4.8 18.8 2.5 21.6 2.5C24.4 2.5 26.7 4.8 26.7 7.6C26.7 10.4 24.4 12.7 21.6 12.7ZM35.5 12.7C32.7 12.7 30.4 10.4 30.4 7.6C30.4 4.8 32.7 2.5 35.5 2.5C38.3 2.5 40.6 4.8 40.6 7.6C40.6 10.4 38.3 12.7 35.5 12.7Z" fill="white"/>
</svg>
