<svg width="512" height="640" viewBox="0 0 512 640" fill="none" xmlns="http://www.w3.org/2000/svg">
<path d="M415.1 98.4C395.6 78.7 372.6 62.7 347.2 51.4L340.7 66C364.2 76.5 385.6 91.3 403.7 109.6L415.1 98.4Z" fill="white"/>
<path d="M171.3 66L164.8 51.4C108.8 76.5 65.4 123.5 44.8 181.4L59.9 186.7C79 132.9 119.2 89.3 171.3 66Z" fill="white"/>
<path d="M109.6 403.8C87.3 381.7 70.3 354.9 59.8 325.4L44.7 330.7C56 362.5 74.3 391.4 98.3 415.2L109.6 403.8Z" fill="white"/>
<path d="M417.6 387L430 397C438.4 386.6 445.9 375.5 452.3 363.8L438.3 356.1C432.4 367 425.4 377.3 417.6 387Z" fill="white"/>
<path d="M320 256C320 229.5 298.5 208 272 208C245.5 208 224 229.5 224 256C224 282.5 245.5 304 272 304C298.5 304 320 282.5 320 256ZM280 259.3L253.7 285.6L242.4 274.3L264.1 252.6V224H280.1V259.3H280Z" fill="white"/>
<path d="M120 248H80V264H120V248Z" fill="white"/>
<path d="M144 216H160C164.4 216 168 219.6 168 224V288C168 292.4 164.4 296 160 296H144C139.6 296 136 292.4 136 288V224C136 219.6 139.6 216 144 216Z" fill="white"/>
<path d="M40 216H56C60.4 216 64 219.6 64 224V288C64 292.4 60.4 296 56 296H40C35.6 296 32 292.4 32 288V224C32 219.6 35.6 216 40 216Z" fill="white"/>
<path d="M160 448H96C91.6 448 88 451.6 88 456C88 460.4 91.6 464 96 464H160.8C160.3 461.4 160 458.7 160 456V448Z" fill="white"/>
<path d="M176 456C176 469.2 186.8 480 200 480H312C325.2 480 336 469.2 336 456V448H176V456Z" fill="white"/>
<path d="M264 360H248V376H264V360Z" fill="white"/>
<path d="M176 352H160V368H176V352Z" fill="white"/>
<path d="M184 400H168V416H184V400Z" fill="white"/>
<path d="M208 368H192V384H208V368Z" fill="white"/>
<path d="M232 392H216V408H232V392Z" fill="white"/>
<path d="M232 344H216V360H232V344Z" fill="white"/>
<path d="M280 400H264V416H280V400Z" fill="white"/>
<path d="M456 223.3L463.3 216C472 207.3 477.9 196.1 480 184C467.9 186.1 456.7 192 448 200.7L440.7 208C437.4 211.3 434.5 215 432 219V208H416V219C413.5 215 410.6 211.3 407.3 208L400 200.7C391.3 192 380.1 186.1 368 184C370.1 196.1 376 207.3 384.7 216L392 223.3C398.7 230 406.9 235.1 416 238V264H384V280H393.1L398.2 321C398.7 325 402.1 328 406.1 328H441.9C445.9 328 449.3 325 449.8 321L454.9 280H464V264H432V238C441.1 235.1 449.3 230 456 223.3Z" fill="white"/>
<path d="M440.676 84.7537L422.889 124.778L437.51 131.276L455.297 91.2513L440.676 84.7537Z" fill="white"/>
<path d="M415.775 140.756L408.668 156.748L423.289 163.245L430.396 147.254L415.775 140.756Z" fill="white"/>
<path d="M192 160H320C324.4 160 328 156.4 328 152V144H184V152C184 156.4 187.6 160 192 160Z" fill="white"/>
<path d="M240 64V98.1L265.6 81L240 64Z" fill="white"/>
<path d="M312 40C312 35.6 308.4 32 304 32H208C203.6 32 200 35.6 200 40V128H312V40ZM274.5 94.4L248.9 111.5C241.5 116.4 231.6 114.4 226.7 107.1C224.9 104.5 224 101.4 224 98.2V64C224 55.2 231.2 48 240 48C243.2 48 246.2 48.9 248.9 50.7L274.5 67.8C281.9 72.7 283.8 82.6 278.9 90C277.7 91.7 276.2 93.2 274.5 94.4Z" fill="white"/>
<path d="M360 379.3V358.6C360 356.5 359.2 354.4 357.7 352.9L341.7 336.9C338.6 333.8 333.5 333.8 330.4 336.9L305 362.3C301.9 365.4 301.9 370.5 305 373.6L321 389.6C322.5 391.1 324.5 391.9 326.7 391.9H347.4L417.7 462.2C421.2 465.7 426.9 465.7 430.4 462.2C433.9 458.7 433.9 453 430.4 449.5L360 379.3Z" fill="white"/>
<path d="M480.675 84.7543L462.888 124.779L477.509 131.276L495.296 91.2519L480.675 84.7543Z" fill="white"/>
<path d="M455.773 140.756L448.666 156.748L463.287 163.245L470.394 147.254L455.773 140.756Z" fill="white"/>
</svg>
