<svg width="512" height="640" viewBox="0 0 512 640" fill="none" xmlns="http://www.w3.org/2000/svg">
<path d="M104 360H88C88.0096 368.484 91.3841 376.618 97.3832 382.617C103.382 388.616 111.516 391.99 120 392H168V376H120C115.758 375.995 111.691 374.308 108.692 371.308C105.692 368.309 104.005 364.242 104 360Z" fill="#0F243E"/>
<path d="M384 96H32V320H384V96ZM158.074 258.794L145.926 269.206L97.9258 213.206C96.683 211.756 95.9999 209.91 95.9999 208C95.9999 206.09 96.683 204.244 97.9258 202.794L145.926 146.794L158.074 157.206L114.537 208L158.074 258.794ZM191.491 274.809L176.509 269.191L224.509 141.191L239.491 146.809L191.491 274.809ZM317.657 213.657L261.657 269.657L250.343 258.343L300.686 208L250.343 157.657L261.657 146.343L317.657 202.343C318.4 203.086 318.989 203.968 319.391 204.938C319.793 205.909 320 206.949 320 208C320 209.051 319.793 210.091 319.391 211.062C318.989 212.032 318.4 212.914 317.657 213.657Z" fill="#0F243E"/>
<path d="M216 392C216 394.122 215.157 396.157 213.657 397.657C212.157 399.157 210.122 400 208 400C205.878 400 203.843 399.157 202.343 397.657C200.843 396.157 200 394.122 200 392V336H184V416H232V336H216V392Z" fill="#0F243E"/>
<path d="M104 336H88V344H104V336Z" fill="#0F243E"/>
<path d="M370.667 392L344 412V416H424V412L397.333 392H370.667Z" fill="#0F243E"/>
<path d="M400 264V328C400 330.122 399.157 332.157 397.657 333.657C396.157 335.157 394.122 336 392 336H288V392H344L363.2 377.6C364.585 376.561 366.269 376 368 376H400C401.731 376 403.415 376.561 404.8 377.6L424 392H480V264H400Z" fill="#0F243E"/>
<path d="M272 376H248V392H272V376Z" fill="#0F243E"/>
</svg>
