<svg width="100" height="125" viewBox="0 0 100 125" fill="none" xmlns="http://www.w3.org/2000/svg">
<path d="M10.836 70.429L24.818 74.653C24.913 74.682 25.01 74.696 25.107 74.696C25.27 74.696 25.433 74.656 25.58 74.577C25.813 74.452 25.988 74.239 26.064 73.985L38.082 34.203L44.047 37.317C44.191 37.392 44.35 37.431 44.51 37.431C44.551 37.431 44.591 37.429 44.632 37.424L85.428 32.402C86.874 32.224 88.164 31.493 89.061 30.345C89.958 29.197 90.354 27.767 90.175 26.322L89.264 18.92C88.897 15.935 86.161 13.812 83.184 14.172L42.625 19.165L43.727 15.515C43.887 14.986 43.587 14.429 43.059 14.269L29.078 10.045C28.823 9.967 28.55 9.995 28.316 10.121C28.082 10.247 27.908 10.459 27.832 10.713L10.168 69.182C10.008 69.71 10.307 70.269 10.836 70.429ZM42.038 21.942L43.626 34.833L37.699 31.709L37.043 26.378L42.038 21.942ZM77.688 31.338L45.695 35.276L43.939 21.016L75.933 17.078L77.688 31.338ZM77.917 16.834L79.807 16.601L81.562 30.861L79.672 31.094L77.917 16.834ZM35.227 27.991L35.545 30.574L33.52 29.507L35.227 27.991ZM83.429 16.156C85.318 15.922 87.047 17.272 87.281 19.163L88.192 26.565C88.304 27.481 88.054 28.386 87.486 29.113C86.918 29.841 86.101 30.303 85.185 30.416L83.547 30.618L81.792 16.358L83.429 16.156ZM29.457 12.247L41.524 15.893L39.982 21C39.972 21.034 39.979 21.068 39.972 21.102L32.157 28.042C31.688 28.498 31.465 29.132 31.545 29.781C31.626 30.43 31.996 30.99 32.601 31.34L36.278 33.26L24.439 72.449L12.371 68.803L13.253 65.884L16.836 66.967C16.933 66.996 17.029 67.01 17.125 67.01C17.555 67.01 17.952 66.731 18.082 66.299C18.242 65.771 17.943 65.213 17.414 65.053L13.831 63.971L14.492 61.783L18.075 62.866C18.172 62.895 18.268 62.909 18.364 62.909C18.794 62.909 19.191 62.63 19.321 62.198C19.481 61.67 19.182 61.112 18.653 60.952L15.07 59.87L15.731 57.682L19.314 58.765C19.411 58.794 19.507 58.808 19.603 58.808C20.033 58.808 20.43 58.529 20.56 58.097C20.72 57.569 20.421 57.011 19.892 56.851L16.309 55.769L16.97 53.581L20.553 54.664C20.65 54.693 20.746 54.707 20.842 54.707C21.272 54.707 21.669 54.428 21.799 53.996C21.959 53.468 21.66 52.91 21.131 52.75L17.548 51.668L18.209 49.48L21.792 50.563C21.889 50.592 21.985 50.606 22.081 50.606C22.511 50.606 22.908 50.327 23.038 49.895C23.198 49.367 22.899 48.809 22.37 48.649L18.787 47.567L19.448 45.379L23.031 46.462C23.128 46.491 23.224 46.505 23.32 46.505C23.75 46.505 24.147 46.226 24.277 45.794C24.437 45.266 24.138 44.708 23.609 44.548L20.026 43.466L20.687 41.278L24.27 42.36C24.367 42.389 24.463 42.403 24.559 42.403C24.989 42.403 25.386 42.124 25.516 41.692C25.676 41.163 25.376 40.605 24.848 40.445L21.265 39.363L21.926 37.176L25.509 38.258C25.606 38.287 25.702 38.301 25.798 38.301C26.228 38.301 26.625 38.022 26.755 37.59C26.915 37.061 26.615 36.503 26.087 36.343L22.504 35.261L23.165 33.074L26.748 34.156C26.845 34.185 26.941 34.199 27.037 34.199C27.467 34.199 27.864 33.92 27.994 33.488C28.154 32.959 27.854 32.401 27.326 32.241L23.743 31.159L24.404 28.971L27.987 30.053C28.084 30.082 28.18 30.096 28.276 30.096C28.706 30.096 29.103 29.817 29.233 29.385C29.393 28.857 29.094 28.299 28.565 28.139L24.982 27.057L25.643 24.869L29.226 25.951C29.323 25.98 29.419 25.994 29.515 25.994C29.945 25.994 30.342 25.715 30.472 25.283C30.632 24.755 30.333 24.197 29.804 24.037L26.221 22.955L26.882 20.767L30.465 21.849C30.562 21.878 30.658 21.892 30.754 21.892C31.184 21.892 31.581 21.613 31.711 21.181C31.871 20.653 31.572 20.095 31.043 19.935L27.46 18.853L28.121 16.665L31.704 17.747C31.801 17.776 31.897 17.79 31.993 17.79C32.423 17.79 32.82 17.511 32.95 17.079C33.11 16.551 32.811 15.993 32.282 15.833L28.699 14.751L29.457 12.247Z" fill="white"/>
<path d="M86.757 41.702C86.459 38.677 85.001 35.949 82.652 34.021C82.223 33.669 81.595 33.732 81.244 34.16L63.637 55.616L42.181 38.011C41.976 37.843 41.71 37.758 41.449 37.789C41.184 37.815 40.942 37.945 40.773 38.15C38.845 40.5 37.947 43.461 38.246 46.485C38.544 49.51 40.003 52.238 42.352 54.166L55.784 65.187L51.225 70.743C47.876 70.777 44.865 72.486 43.097 75.383C40.85 79.064 41.409 83.978 44.429 87.067C46.257 88.939 48.757 89.991 51.342 89.991C51.48 89.991 51.617 89.988 51.755 89.982C54.488 89.863 57.05 88.583 58.784 86.47C60.603 84.252 61.325 81.408 60.796 78.597L65.355 73.041L70.91 77.6C70.941 80.459 72.203 83.108 74.422 84.928C76.209 86.395 78.371 87.109 80.521 87.109C83.307 87.109 86.072 85.909 87.973 83.592C89.604 81.604 90.364 79.099 90.112 76.54C89.86 73.981 88.626 71.673 86.637 70.041C84.417 68.22 81.574 67.5 78.764 68.028L73.209 63.469L84.23 50.037C86.157 47.688 87.056 44.728 86.757 41.702ZM43.62 52.62C41.683 51.031 40.481 48.782 40.235 46.288C40.022 44.129 40.548 42.011 41.724 40.224L62.367 57.163L57.051 63.641L43.62 52.62ZM77.867 69.88C78.109 70.079 78.432 70.152 78.736 70.079C81.093 69.512 83.507 70.061 85.368 71.587C86.943 72.88 87.921 74.709 88.121 76.736C88.321 78.764 87.719 80.748 86.426 82.323C83.759 85.575 78.942 86.049 75.691 83.382C73.831 81.856 72.82 79.592 72.917 77.172C72.93 76.859 72.795 76.558 72.553 76.359L66.625 71.495L71.941 65.016L77.867 69.88ZM58.944 77.701C58.746 77.943 58.672 78.265 58.746 78.57C59.313 80.924 58.764 83.341 57.237 85.201C55.864 86.875 53.834 87.89 51.668 87.984C49.469 88.073 47.409 87.257 45.858 85.67C43.469 83.225 43.026 79.337 44.803 76.426C46.22 74.103 48.643 72.743 51.331 72.743C51.437 72.743 51.544 72.745 51.651 72.749C51.955 72.76 52.265 72.627 52.464 72.384L82.12 36.241C83.623 37.763 84.552 39.739 84.765 41.898C85.011 44.391 84.271 46.832 82.681 48.769L58.944 77.701Z" fill="white"/>
<path d="M76.821 82.003C77.891 82.881 79.204 83.349 80.57 83.349C80.766 83.349 80.965 83.339 81.163 83.32C82.738 83.165 84.159 82.405 85.164 81.181C87.236 78.655 86.868 74.912 84.342 72.839C81.816 70.766 78.072 71.135 75.998 73.661C73.926 76.188 74.295 79.931 76.821 82.003ZM77.545 74.929C78.32 73.984 79.448 73.494 80.585 73.494C81.462 73.494 82.344 73.786 83.072 74.384C84.747 75.758 84.991 78.238 83.617 79.912C82.952 80.723 82.011 81.226 80.967 81.329C79.917 81.433 78.902 81.122 78.09 80.456C76.416 79.083 76.171 76.604 77.545 74.929Z" fill="white"/>
<path d="M55.341 75.698C54.116 74.693 52.57 74.228 50.999 74.381C49.423 74.536 48.002 75.296 46.998 76.52C45.994 77.744 45.526 79.286 45.682 80.861C45.837 82.437 46.597 83.858 47.821 84.862C48.891 85.74 50.204 86.208 51.57 86.208C51.766 86.208 51.965 86.198 52.163 86.179C53.739 86.024 55.16 85.264 56.164 84.04C57.168 82.816 57.636 81.274 57.48 79.699C57.324 78.124 56.564 76.702 55.341 75.698ZM54.616 82.771C53.951 83.582 53.01 84.085 51.966 84.188C50.925 84.289 49.901 83.981 49.089 83.316C48.278 82.65 47.775 81.709 47.672 80.665C47.569 79.621 47.879 78.599 48.545 77.788C49.21 76.977 50.151 76.474 51.195 76.371C51.326 76.358 51.457 76.352 51.588 76.352C52.493 76.352 53.362 76.662 54.071 77.244C54.883 77.91 55.385 78.851 55.489 79.895C55.592 80.938 55.282 81.96 54.616 82.771Z" fill="white"/>
<path d="M66.404 61.811C65.79 61.307 65.009 61.07 64.225 61.15C63.434 61.228 62.72 61.609 62.216 62.224C61.711 62.838 61.477 63.612 61.555 64.403C61.632 65.194 62.014 65.908 62.628 66.412C63.166 66.852 63.824 67.087 64.51 67.087C64.609 67.087 64.708 67.082 64.808 67.072C65.599 66.994 66.313 66.613 66.817 65.998C67.321 65.384 67.555 64.61 67.477 63.819C67.4 63.029 67.019 62.315 66.404 61.811ZM65.271 64.73C65.105 64.931 64.872 65.056 64.612 65.082C64.353 65.109 64.099 65.03 63.897 64.865C63.696 64.7 63.571 64.467 63.545 64.207C63.545 64.207 63.545 64.207 63.545 64.206C63.52 63.947 63.597 63.693 63.762 63.492C63.927 63.291 64.161 63.165 64.42 63.14C64.453 63.137 64.485 63.135 64.518 63.135C64.743 63.135 64.959 63.212 65.135 63.357C65.336 63.522 65.461 63.756 65.487 64.016C65.513 64.275 65.437 64.529 65.271 64.73Z" fill="white"/>
<path d="M51.008 27.385C51.309 29.83 54.922 30.918 59.056 30.918C60.075 30.918 61.124 30.852 62.163 30.724C67.423 30.076 72.551 27.827 72.176 24.78C71.801 21.733 66.281 20.795 61.021 21.441C55.761 22.088 50.633 24.338 51.008 27.385ZM61.265 23.425C66.826 22.741 70.08 24.122 70.192 25.023C70.302 25.924 67.483 28.053 61.92 28.738C56.354 29.422 53.105 28.042 52.993 27.14C52.882 26.239 55.701 24.11 61.265 23.425Z" fill="white"/>
</svg>
