<svg width="492" height="372" viewBox="0 0 492 372" fill="none" xmlns="http://www.w3.org/2000/svg">
<path d="M245 82.6C264.3 82.6 280 66.9 280 47.5V35.9C280 16.6 264.3 0.899994 245 0.899994C225.7 0.899994 210 16.6 210 35.9V47.5C210 66.8 225.6 82.5 245 82.6Z" fill="white"/>
<path d="M491.1 192.4C488.3 182 478.8 174.8 468.1 174.8C461.7 174.8 455.7 177.4 451.2 182C448.2 185.1 446.1 188.9 445 193H324V161H349.1C362.4 161.1 373.2 150.4 373.3 137.1C373.3 137.1 373.3 137.1 373.3 137C373.3 130.3 378.7 125 385.4 125H385.5H419.2C420.3 129 422.4 132.7 425.4 135.6C434.7 145 449.9 145 459.2 135.7C468.6 126.4 468.6 111.2 459.3 101.9C450 92.5 434.8 92.5 425.5 101.8L425.4 101.9C422.2 104.8 420 108.7 419.2 113H385.5C372.2 112.9 361.4 123.6 361.3 136.9C361.3 136.9 361.3 136.9 361.3 137C361.3 143.7 355.9 149 349.2 149H349.1H324V124C324.1 121.2 324 118.4 323.7 115.6C335.4 115.2 345.8 107.8 349.8 96.8L361.6 64.9C364.1 58.3 370.4 53.9 377.4 53.9H380.5C381.3 58.8 383.6 63.3 387.2 66.8C396.5 76.1 411.6 76.1 421 66.8C430.3 57.5 430.3 42.4 421 33C411.7 23.7 396.6 23.7 387.2 33C384.8 35.6 382.9 38.6 381.6 41.9H377.4C365.3 41.9 354.5 49.4 350.3 60.7L338.5 92.7C336 99.3 329.7 103.8 322.7 103.8H319.7C318.6 101.7 317.3 99.7 315.8 97.8C309.7 90.4 300.9 85.7 291.4 84.8C291 84.8 290.1 84.8 264.6 84.8C262.5 84.7 260.5 85.8 259.4 87.6L245.9 111.1L233 87.9C231.9 86 229.9 84.9 227.7 85H203.6C194 84.9 184.8 88.7 178 95.5C175.5 98 173.3 100.9 171.6 104H169.2C162.1 103.9 155.8 99.5 153.4 92.8L141.6 60.8C137.4 49.5 126.6 42 114.5 41.9H110.3C109 38.6 107.1 35.6 104.7 33C95.4 23.7 80.3 23.8 71 33.1C61.7 42.4 61.8 57.5 71.1 66.8C80.4 76 95.4 76 104.7 66.8C108.2 63.3 110.6 58.8 111.4 53.9H114.5C121.6 53.9 127.9 58.3 130.3 64.9L142.1 96.8C146.1 107.6 156.2 115 167.7 115.6C167.5 117.3 167.3 119 167.3 120.7C167.3 121.1 167.3 133.9 167.4 148.9H142.8C136.1 149 130.7 143.7 130.6 137V136.9C130.6 123.6 119.8 112.9 106.5 112.9C106.5 112.9 106.5 112.9 106.4 112.9H72.8C72 108.6 69.8 104.7 66.6 101.8C57.3 92.5 42.2 92.4 32.9 101.7C23.6 111 23.6 126 32.8 135.3C32.8 135.3 32.8 135.3 32.9 135.4C37.4 139.9 43.6 142.4 50 142.4C56.4 142.3 62.5 139.8 67.1 135.4V135.6C70 132.6 72 129 72.9 125H106.6C113.3 124.9 118.7 130.2 118.8 136.9V137C118.8 150.3 129.6 161 142.9 161C142.9 161 142.9 161 143 161H167.6C167.6 174 167.7 187 167.7 193H46.9C45.8 188.8 43.7 185 40.7 182C31.4 172.7 16.4 172.6 7.1 181.9C-2.2 191.2 -2.3 206.2 7 215.5C11.5 220 17.6 222.5 23.9 222.5C34.7 222.6 44.2 215.4 47 205H169.9C171 207.1 172.5 209.1 174.2 210.8C178.3 214.9 184 217.1 189.8 217H190.1C193.7 216.9 197.3 215.9 200.4 214.1L201.1 236H143.2C129.8 236.2 119 247.1 119 260.5C119 267.3 113.6 272.8 106.8 273H72.8C71.7 268.9 69.6 265.1 66.6 262C57.3 252.7 42.2 252.7 32.9 261.9C23.6 271.2 23.6 286.4 32.9 295.7C42.2 305 57.4 305 66.7 295.7C69.7 292.7 71.8 289.1 72.9 285H106.6C120 284.8 130.8 273.9 130.8 260.5C130.8 253.7 136.2 248.2 143 248H201.3L202.3 282H169.4C157.4 281.9 146.5 289.4 142.3 300.6L130.5 332.2C128 338.7 121.7 343 114.7 342.9H111.6C110.6 338.1 108.3 333.7 104.9 330.2C95.6 320.7 80.4 320.6 70.9 329.9C61.4 339.2 61.3 354.4 70.6 363.9C79.9 373.4 95.1 373.5 104.6 364.2C104.7 364.1 104.8 364 104.9 363.9C107.6 361.5 109.5 358.3 110.5 354.9H114.7C126.7 355 137.6 347.5 141.8 336.2L153.6 304.6C156.1 298.1 162.4 293.8 169.4 293.9H202.6L204.2 347C204.2 347.1 204.2 347.3 204.2 347.4C204.9 355.1 211.4 361 219.2 360.9H272.8C280.6 360.9 287.1 355 287.8 347.2C287.8 347.1 287.8 347 287.8 347L289.3 293.9H322.8C329.8 293.8 336.2 298.1 338.6 304.7L350.4 336.3C354.7 347.5 365.5 354.9 377.5 354.9H381.7C382.7 358.4 384.6 361.5 387.3 363.9C396.5 373.3 411.6 373.3 421 364.1C421 364.1 421 364.1 421.1 364C430.4 354.7 430.4 339.6 421.1 330.3C411.8 320.9 396.7 320.9 387.4 330.1C384 333.6 381.7 338.1 380.7 342.8H377.6C370.6 342.9 364.3 338.5 361.8 332L350 300.4C345.7 289.2 334.9 281.8 322.9 281.9H289.7L290.6 247.9H349.2C356 248.1 361.4 253.6 361.4 260.4C361.4 273.8 372.2 284.7 385.6 284.9H419.3C422.6 297.6 435.7 305.3 448.4 301.9C461.1 298.6 468.8 285.5 465.4 272.8C464.3 268.6 462.1 264.8 459 261.8C449.7 252.5 435.1 252.5 425.1 261.8V261.9C422.2 265 420.2 268.8 419.3 272.9H385.6C378.8 272.7 373.4 267.2 373.4 260.4C373.4 247 362.6 236.1 349.2 235.9H290.9L291.5 214.3C294.7 216.1 298.2 217.1 301.8 217.1C310.2 217 317.8 212.3 321.7 204.9H445C448.5 217.6 461.6 225.1 474.4 221.6C487.1 218.2 494.6 205.1 491.1 192.4Z" fill="white"/>
</svg>
