<svg width="80" height="100" viewBox="0 0 80 100" fill="none" xmlns="http://www.w3.org/2000/svg">
<path d="M31.105 26.789C31.34 26.9065 31.5958 26.9766 31.8579 26.9953C32.12 27.0139 32.3832 26.9807 32.6324 26.8976C32.8817 26.8145 33.1121 26.6831 33.3106 26.5109C33.509 26.3387 33.6716 26.129 33.789 25.894L35.789 21.894C36.0262 21.4195 36.0653 20.8702 35.8975 20.367C35.7298 19.8637 35.369 19.4477 34.8945 19.2105C34.42 18.9733 33.8707 18.9342 33.3675 19.102C32.8642 19.2697 32.4482 19.6305 32.211 20.105L30.211 24.105C30.0934 24.3399 30.0233 24.5957 30.0046 24.8577C29.9859 25.1198 30.019 25.383 30.102 25.6322C30.185 25.8814 30.3163 26.1119 30.4884 26.3104C30.6605 26.5089 30.87 26.6715 31.105 26.789V26.789Z" fill="white"/>
<path d="M39.105 26.789C39.34 26.9066 39.5958 26.9767 39.8579 26.9953C40.12 27.0139 40.3832 26.9807 40.6324 26.8976C40.8817 26.8145 41.1121 26.6831 41.3106 26.5109C41.509 26.3387 41.6716 26.1291 41.789 25.894L43.789 21.894C43.9065 21.6591 43.9765 21.4033 43.9951 21.1413C44.0138 20.8793 43.9806 20.6162 43.8975 20.367C43.8145 20.1178 43.6831 19.8874 43.511 19.689C43.3389 19.4906 43.1294 19.328 42.8945 19.2105C42.6596 19.093 42.4038 19.023 42.1418 19.0044C41.8798 18.9858 41.6167 19.0189 41.3675 19.102C41.1183 19.185 40.8879 19.3164 40.6895 19.4885C40.4911 19.6606 40.3285 19.8701 40.211 20.105L38.211 24.105C38.0934 24.3399 38.0233 24.5957 38.0046 24.8578C37.9859 25.1198 38.019 25.383 38.102 25.6322C38.185 25.8815 38.3163 26.1119 38.4884 26.3104C38.6605 26.5089 38.87 26.6715 39.105 26.789Z" fill="white"/>
<path d="M47.105 26.789C47.34 26.9065 47.5958 26.9766 47.8579 26.9953C48.12 27.0139 48.3832 26.9807 48.6324 26.8976C48.8817 26.8145 49.1121 26.6831 49.3106 26.5109C49.509 26.3387 49.6716 26.129 49.789 25.894L51.789 21.894C52.0262 21.4195 52.0653 20.8702 51.8975 20.367C51.7298 19.8637 51.369 19.4477 50.8945 19.2105C50.42 18.9733 49.8707 18.9342 49.3675 19.102C48.8642 19.2697 48.4482 19.6305 48.211 20.105L46.211 24.105C46.0934 24.3399 46.0233 24.5957 46.0046 24.8577C45.9859 25.1198 46.019 25.383 46.102 25.6322C46.185 25.8814 46.3163 26.1119 46.4884 26.3104C46.6605 26.5089 46.87 26.6715 47.105 26.789Z" fill="white"/>
<path d="M55.105 26.789C55.34 26.9066 55.5958 26.9767 55.8579 26.9953C56.12 27.0139 56.3832 26.9807 56.6324 26.8976C56.8817 26.8145 57.1121 26.6831 57.3106 26.5109C57.509 26.3387 57.6716 26.1291 57.789 25.894L59.789 21.894C59.9065 21.6591 59.9765 21.4033 59.9951 21.1413C60.0138 20.8793 59.9806 20.6162 59.8975 20.367C59.8145 20.1178 59.6831 19.8874 59.511 19.689C59.3389 19.4906 59.1294 19.328 58.8945 19.2105C58.6596 19.093 58.4038 19.023 58.1418 19.0044C57.8798 18.9858 57.6167 19.0189 57.3675 19.102C57.1183 19.185 56.8879 19.3164 56.6895 19.4885C56.4911 19.6606 56.3285 19.8701 56.211 20.105L54.211 24.105C54.0934 24.3399 54.0233 24.5957 54.0046 24.8578C53.9859 25.1198 54.019 25.383 54.102 25.6322C54.185 25.8815 54.3163 26.1119 54.4884 26.3104C54.6605 26.5089 54.87 26.6715 55.105 26.789Z" fill="white"/>
<path d="M31.105 43.789C31.34 43.9065 31.5958 43.9766 31.8579 43.9953C32.12 44.0139 32.3832 43.9807 32.6324 43.8976C32.8817 43.8145 33.1121 43.6831 33.3106 43.5109C33.509 43.3387 33.6716 43.1291 33.789 42.894L35.789 38.894C36.0262 38.4195 36.0653 37.8702 35.8975 37.367C35.7298 36.8637 35.369 36.4477 34.8945 36.2105C34.42 35.9733 33.8707 35.9342 33.3675 36.102C32.8642 36.2697 32.4482 36.6305 32.211 37.105L30.211 41.105C30.0934 41.3399 30.0233 41.5957 30.0046 41.8578C29.9859 42.1198 30.019 42.383 30.102 42.6322C30.185 42.8814 30.3163 43.1119 30.4884 43.3104C30.6605 43.5089 30.87 43.6715 31.105 43.789Z" fill="white"/>
<path d="M39.105 43.789C39.34 43.9065 39.5958 43.9766 39.8579 43.9953C40.12 44.0139 40.3832 43.9807 40.6324 43.8976C40.8817 43.8145 41.1121 43.6831 41.3106 43.5109C41.509 43.3387 41.6716 43.1291 41.789 42.894L43.789 38.894C43.9065 38.6591 43.9765 38.4033 43.9951 38.1413C44.0138 37.8793 43.9806 37.6162 43.8975 37.367C43.8145 37.1178 43.6831 36.8874 43.511 36.689C43.3389 36.4906 43.1294 36.328 42.8945 36.2105C42.6596 36.093 42.4038 36.023 42.1418 36.0044C41.8798 35.9857 41.6167 36.0189 41.3675 36.102C41.1183 36.185 40.8879 36.3164 40.6895 36.4885C40.4911 36.6606 40.3285 36.8701 40.211 37.105L38.211 41.105C38.0934 41.3399 38.0233 41.5957 38.0046 41.8578C37.9859 42.1198 38.019 42.383 38.102 42.6322C38.185 42.8814 38.3163 43.1119 38.4884 43.3104C38.6605 43.5089 38.87 43.6715 39.105 43.789Z" fill="white"/>
<path d="M47.105 43.789C47.34 43.9065 47.5958 43.9766 47.8579 43.9953C48.12 44.0139 48.3832 43.9807 48.6324 43.8976C48.8817 43.8145 49.1121 43.6831 49.3106 43.5109C49.509 43.3387 49.6716 43.1291 49.789 42.894L51.789 38.894C52.0262 38.4195 52.0653 37.8702 51.8975 37.367C51.7298 36.8637 51.369 36.4477 50.8945 36.2105C50.42 35.9733 49.8707 35.9342 49.3675 36.102C48.8642 36.2697 48.4482 36.6305 48.211 37.105L46.211 41.105C46.0934 41.3399 46.0233 41.5957 46.0046 41.8578C45.9859 42.1198 46.019 42.383 46.102 42.6322C46.185 42.8814 46.3163 43.1119 46.4884 43.3104C46.6605 43.5089 46.87 43.6715 47.105 43.789Z" fill="white"/>
<path d="M55.105 43.789C55.34 43.9065 55.5958 43.9766 55.8579 43.9953C56.12 44.0139 56.3832 43.9807 56.6324 43.8976C56.8817 43.8145 57.1121 43.6831 57.3106 43.5109C57.509 43.3387 57.6716 43.1291 57.789 42.894L59.789 38.894C59.9065 38.6591 59.9765 38.4033 59.9951 38.1413C60.0138 37.8793 59.9806 37.6162 59.8975 37.367C59.8145 37.1178 59.6831 36.8874 59.511 36.689C59.3389 36.4906 59.1294 36.328 58.8945 36.2105C58.6596 36.093 58.4038 36.023 58.1418 36.0044C57.8798 35.9857 57.6167 36.0189 57.3675 36.102C57.1183 36.185 56.8879 36.3164 56.6895 36.4885C56.4911 36.6606 56.3285 36.8701 56.211 37.105L54.211 41.105C54.0934 41.3399 54.0233 41.5957 54.0046 41.8578C53.9859 42.1198 54.019 42.383 54.102 42.6322C54.185 42.8814 54.3163 43.1119 54.4884 43.3104C54.6605 43.5089 54.87 43.6715 55.105 43.789Z" fill="white"/>
<path d="M31.105 60.789C31.34 60.9065 31.5958 60.9766 31.8579 60.9953C32.12 61.0139 32.3832 60.9807 32.6324 60.8976C32.8817 60.8145 33.1121 60.6831 33.3106 60.5109C33.509 60.3387 33.6716 60.1291 33.789 59.894L35.789 55.894C36.0262 55.4195 36.0653 54.8702 35.8975 54.367C35.7298 53.8637 35.369 53.4477 34.8945 53.2105C34.42 52.9733 33.8707 52.9342 33.3675 53.102C32.8642 53.2697 32.4482 53.6305 32.211 54.105L30.211 58.105C30.0934 58.3399 30.0233 58.5957 30.0046 58.8578C29.9859 59.1198 30.019 59.383 30.102 59.6322C30.185 59.8814 30.3163 60.1119 30.4884 60.3104C30.6605 60.5089 30.87 60.6715 31.105 60.789Z" fill="white"/>
<path d="M39.105 60.789C39.34 60.9065 39.5958 60.9766 39.8579 60.9953C40.12 61.0139 40.3832 60.9807 40.6324 60.8976C40.8817 60.8145 41.1121 60.6831 41.3106 60.5109C41.509 60.3387 41.6716 60.1291 41.789 59.894L43.789 55.894C44.0262 55.4195 44.0653 54.8702 43.8975 54.367C43.7298 53.8637 43.369 53.4477 42.8945 53.2105C42.42 52.9733 41.8707 52.9342 41.3675 53.102C40.8642 53.2697 40.4482 53.6305 40.211 54.105L38.211 58.105C38.0934 58.3399 38.0233 58.5957 38.0046 58.8578C37.9859 59.1198 38.019 59.383 38.102 59.6322C38.185 59.8814 38.3163 60.1119 38.4884 60.3104C38.6605 60.5089 38.87 60.6715 39.105 60.789Z" fill="white"/>
<path d="M24.211 27.895C24.3285 28.1299 24.4911 28.3394 24.6895 28.5115C24.8879 28.6836 25.1183 28.815 25.3675 28.898C25.6167 28.9811 25.8798 29.0143 26.1418 28.9956C26.4038 28.977 26.6596 28.907 26.8945 28.7895C27.1294 28.672 27.3389 28.5094 27.511 28.311C27.6831 28.1126 27.8145 27.8822 27.8975 27.633C27.9806 27.3838 28.0137 27.1207 27.9951 26.8587C27.9765 26.5967 27.9065 26.3409 27.789 26.106L26.236 23L27.789 19.895C28.0262 19.4205 28.0653 18.8712 27.8975 18.368C27.7298 17.8647 27.369 17.4487 26.8945 17.2115C26.42 16.9743 25.8707 16.9352 25.3675 17.103C24.8642 17.2707 24.4482 17.6315 24.211 18.106L22.211 22.106C22.0721 22.3837 21.9998 22.69 21.9998 23.0005C21.9998 23.311 22.0721 23.6173 22.211 23.895L24.211 27.895Z" fill="white"/>
<path d="M63.105 28.789C63.34 28.9065 63.5958 28.9766 63.8579 28.9953C64.12 29.0139 64.3832 28.9807 64.6324 28.8976C64.8817 28.8145 65.1121 28.6831 65.3106 28.5109C65.509 28.3387 65.6716 28.129 65.789 27.894L67.789 23.894C67.9279 23.6163 68.0002 23.31 68.0002 22.9995C68.0002 22.689 67.9279 22.3827 67.789 22.105L65.789 18.105C65.5518 17.6305 65.1358 17.2697 64.6325 17.102C64.1293 16.9342 63.58 16.9733 63.1055 17.2105C62.631 17.4477 62.2702 17.8637 62.1025 18.367C61.9347 18.8702 61.9738 19.4195 62.211 19.894L63.764 23L62.211 26.105C62.0934 26.3399 62.0233 26.5957 62.0046 26.8577C61.9859 27.1198 62.019 27.383 62.102 27.6322C62.185 27.8814 62.3163 28.1119 62.4884 28.3104C62.6605 28.5089 62.87 28.6715 63.105 28.789V28.789Z" fill="white"/>
<path d="M24.211 44.895C24.3285 45.1299 24.4911 45.3394 24.6895 45.5115C24.8879 45.6836 25.1183 45.815 25.3675 45.898C25.6167 45.9811 25.8798 46.0143 26.1418 45.9956C26.4038 45.977 26.6596 45.907 26.8945 45.7895C27.1294 45.672 27.3389 45.5094 27.511 45.311C27.6831 45.1126 27.8145 44.8822 27.8975 44.633C27.9806 44.3838 28.0137 44.1207 27.9951 43.8587C27.9765 43.5967 27.9065 43.3409 27.789 43.106L26.236 40L27.789 36.895C27.9065 36.6601 27.9765 36.4043 27.9951 36.1423C28.0137 35.8803 27.9806 35.6172 27.8975 35.368C27.8145 35.1188 27.6831 34.8884 27.511 34.69C27.3389 34.4916 27.1294 34.329 26.8945 34.2115C26.6596 34.094 26.4038 34.024 26.1418 34.0054C25.8798 33.9867 25.6167 34.0199 25.3675 34.103C25.1183 34.186 24.8879 34.3174 24.6895 34.4895C24.4911 34.6616 24.3285 34.8711 24.211 35.106L22.211 39.106C22.0721 39.3837 21.9998 39.69 21.9998 40.0005C21.9998 40.311 22.0721 40.6173 22.211 40.895L24.211 44.895Z" fill="white"/>
<path d="M24.211 61.895C24.4482 62.3695 24.8642 62.7303 25.3675 62.898C25.8707 63.0658 26.42 63.0267 26.8945 62.7895C27.369 62.5523 27.7298 62.1363 27.8975 61.633C28.0653 61.1298 28.0262 60.5805 27.789 60.106L26.236 57L27.789 53.895C27.9065 53.6601 27.9765 53.4043 27.9951 53.1423C28.0137 52.8803 27.9806 52.6172 27.8975 52.368C27.8145 52.1188 27.6831 51.8884 27.511 51.69C27.3389 51.4916 27.1294 51.329 26.8945 51.2115C26.6596 51.094 26.4038 51.024 26.1418 51.0054C25.8798 50.9867 25.6167 51.0199 25.3675 51.103C25.1183 51.186 24.8879 51.3174 24.6895 51.4895C24.4911 51.6616 24.3285 51.8711 24.211 52.106L22.211 56.106C22.0721 56.3837 21.9998 56.69 21.9998 57.0005C21.9998 57.311 22.0721 57.6173 22.211 57.895L24.211 61.895Z" fill="white"/>
<path d="M63.105 45.789C63.34 45.9065 63.5958 45.9766 63.8579 45.9953C64.12 46.0139 64.3832 45.9807 64.6324 45.8976C64.8817 45.8145 65.1121 45.6831 65.3106 45.5109C65.509 45.3387 65.6716 45.1291 65.789 44.894L67.789 40.894C67.9279 40.6163 68.0002 40.31 68.0002 39.9995C68.0002 39.689 67.9279 39.3827 67.789 39.105L65.789 35.105C65.5518 34.6305 65.1358 34.2697 64.6325 34.102C64.1293 33.9342 63.58 33.9733 63.1055 34.2105C62.631 34.4477 62.2702 34.8637 62.1025 35.367C61.9347 35.8702 61.9738 36.4195 62.211 36.894L63.764 40L62.211 43.105C62.0934 43.3399 62.0233 43.5957 62.0046 43.8578C61.9859 44.1198 62.019 44.383 62.102 44.6322C62.185 44.8814 62.3163 45.1119 62.4884 45.3104C62.6605 45.5089 62.87 45.6715 63.105 45.789Z" fill="white"/>
<path d="M14 29C14.5304 29 15.0391 28.7893 15.4142 28.4142C15.7893 28.0391 16 27.5304 16 27V19C16 18.4696 15.7893 17.9609 15.4142 17.5858C15.0391 17.2107 14.5304 17 14 17C13.4696 17 12.9609 17.2107 12.5858 17.5858C12.2107 17.9609 12 18.4696 12 19V27C12 27.5304 12.2107 28.0391 12.5858 28.4142C12.9609 28.7893 13.4696 29 14 29Z" fill="white"/>
<path d="M14 46C14.5304 46 15.0391 45.7893 15.4142 45.4142C15.7893 45.0391 16 44.5304 16 44V36C16 35.4696 15.7893 34.9609 15.4142 34.5858C15.0391 34.2107 14.5304 34 14 34C13.4696 34 12.9609 34.2107 12.5858 34.5858C12.2107 34.9609 12 35.4696 12 36V44C12 44.5304 12.2107 45.0391 12.5858 45.4142C12.9609 45.7893 13.4696 46 14 46Z" fill="white"/>
<path d="M14 63C14.5304 63 15.0391 62.7893 15.4142 62.4142C15.7893 62.0391 16 61.5304 16 61V53C16 52.4696 15.7893 51.9609 15.4142 51.5858C15.0391 51.2107 14.5304 51 14 51C13.4696 51 12.9609 51.2107 12.5858 51.5858C12.2107 51.9609 12 52.4696 12 53V61C12 61.5304 12.2107 62.0391 12.5858 62.4142C12.9609 62.7893 13.4696 63 14 63Z" fill="white"/>
<path d="M47 53V61C47 61.5304 47.2107 62.0391 47.5858 62.4142C47.9609 62.7893 48.4696 63 49 63C49.5304 63 50.0391 62.7893 50.4142 62.4142C50.7893 62.0391 51 61.5304 51 61V53C51 52.4696 50.7893 51.9609 50.4142 51.5858C50.0391 51.2107 49.5304 51 49 51C48.4696 51 47.9609 51.2107 47.5858 51.5858C47.2107 51.9609 47 52.4696 47 53Z" fill="white"/>
</svg>
