<svg width="96" height="90" viewBox="0 0 96 90" fill="none" xmlns="http://www.w3.org/2000/svg">
<path d="M91.9 0.400024H34.6C32.6 0.400024 31 2 31 4V22.9C31.8 24.3 33 26.2 33.8 27.4L43.4 26.9H43.6C45.2 26.9 46.6 28.2 46.7 29.8L46.8 31.5C46.9 33.2 45.8 34.6 44.1 34.9C40.5 35.4 32.1 36.5 31.6 36.6C31.4 36.6 31.3 36.6 31.1 36.6V45.5C31.1 47.5 32.7 49.1 34.7 49.1H92C94 49.1 95.6 47.5 95.6 45.5V4C95.5 2 93.9 0.400024 91.9 0.400024Z" fill="white"/>
<path d="M16.9 17.3C20.766 17.3 23.9 14.166 23.9 10.3C23.9 6.43399 20.766 3.29999 16.9 3.29999C13.034 3.29999 9.90002 6.43399 9.90002 10.3C9.90002 14.166 13.034 17.3 16.9 17.3Z" fill="white"/>
<path d="M26.9 69.4H25.1C24.8 69.4 24.6 69.5 24.4 69.7C22.7 71.3 20.5 72.2 18 72.2C15.5 72.2 13.3 71.2 11.6 69.7C11.4 69.5 11.1 69.4 10.9 69.4H9.09998C7.19998 69.4 5.8 71 6 72.9L4.79999 84.8C4.89999 86.3 5.90002 87.7 7.40002 88.2C10.2 89.1 15 89.6 18.2 89.6C21.4 89.6 26.2 89.1 29 88.2C30.5 87.7 31.5 86.4 31.6 84.8L30.4 72.9C30.2 71 28.8 69.4 26.9 69.4Z" fill="white"/>
<path d="M17.9 70C21.8765 70 25.1 66.7764 25.1 62.8C25.1 58.8235 21.8765 55.6 17.9 55.6C13.9236 55.6 10.7 58.8235 10.7 62.8C10.7 66.7764 13.9236 70 17.9 70Z" fill="white"/>
<path d="M59 69.4H57.2C56.9 69.4 56.7 69.5 56.5 69.7C54.8 71.3 52.6 72.2 50.1 72.2C47.6 72.2 45.4 71.2 43.7 69.7C43.5 69.5 43.2 69.4 43 69.4H41.2C39.3 69.4 37.9 71 38.1 72.9L36.9 84.8C37 86.3 38 87.7 39.5 88.2C42.3 89.1 47.1 89.6 50.3 89.6C53.5 89.6 58.3 89.1 61.1 88.2C62.6 87.7 63.6 86.4 63.7 84.8L62.5 72.9C62.4 71 60.9 69.4 59 69.4Z" fill="white"/>
<path d="M50.1 70C54.0764 70 57.3 66.7764 57.3 62.8C57.3 58.8235 54.0764 55.6 50.1 55.6C46.1235 55.6 42.9 58.8235 42.9 62.8C42.9 66.7764 46.1235 70 50.1 70Z" fill="white"/>
<path d="M91.2 69.4H89.4C89.1 69.4 88.9 69.5 88.7 69.7C87 71.3 84.8 72.2 82.3 72.2C79.8 72.2 77.6 71.2 75.9 69.7C75.7 69.5 75.4 69.4 75.2 69.4H73.4C71.5 69.4 70.1 71 70.3 72.9L69.1 84.8C69.2 86.3 70.2 87.7 71.7 88.2C74.5 89.1 79.3 89.6 82.5 89.6C85.7 89.6 90.5 89.1 93.3 88.2C94.8 87.7 95.8 86.4 95.9 84.8L94.7 72.9C94.5 71 93 69.4 91.2 69.4Z" fill="white"/>
<path d="M82.2 70C86.1765 70 89.4 66.7764 89.4 62.8C89.4 58.8235 86.1765 55.6 82.2 55.6C78.2236 55.6 75 58.8235 75 62.8C75 66.7764 78.2236 70 82.2 70Z" fill="white"/>
<path d="M6.5 33.8L9.09998 28.4L8.29999 47.2C8.29999 48.4 9.20002 49.4 10.4 49.4H23.3C24.5 49.4 25.4 48.4 25.4 47.3L24.8 27.2L29.1 33L30 34.2C30.3 34.6 30.7 34.8 31.3 34.7C31.8 34.6 40.7 33.5 43.8 33C44.4 32.9 44.8 32.4 44.8 31.8L44.7 30.1C44.6 29.5 44.1 29 43.5 29.1L32.7 29.6C32.7 29.6 28.9 23.3 28.4 22.6C28 22 26.9 20.4 26.5 20C26.2 19.8 25.9 19.6 25.6 19.4L22 18C20.5 19 18.8 19.5 16.9 19.5C15 19.5 13.3 18.9 11.8 18L8.20001 19.3C7.40001 19.6 6.70002 20.3 6.40002 21.1L2.09998 31.4C1.79998 32 1.69998 32.6 1.59998 33.3L0.5 45.9C0.5 46.4 0.799988 46.8 1.29999 46.9L3.79999 47.1C4.29999 47.1 4.69999 46.8 4.79999 46.3L6.5 33.8Z" fill="white"/>
</svg>
