<svg width="96" height="63" viewBox="0 0 96 63" fill="none" xmlns="http://www.w3.org/2000/svg">
<path d="M95.4 57.2L92.4 44C91 37.9 85.6 33.6 79.4 33.6C78.6 33.6 77.9 34 77.4 34.6L72.3 42C71.6 42.9 70.3 42.9 69.6 42L64.5 34.6C64.1 34 63.3 33.6 62.5 33.6C56.3 33.6 50.8 37.9 49.5 44L46.5 57.2C45.8 60.2 48.1 63 51.1 63H90.8C93.8 63 96.1 60.2 95.4 57.2Z" fill="white"/>
<path d="M70.9 31.6C77.9 31.6 83.6 25.9 83.6 18.9V13.6C83.6 6.59999 77.9 0.899994 70.9 0.899994C63.9 0.899994 58.2 6.59999 58.2 13.6V19C58.3 25.9 64 31.6 70.9 31.6Z" fill="white"/>
<path d="M50.6 26.6V13.7C50.6 11.8 49 10.2 47.1 10.2H22.6C20.7 10.2 19.1 11.8 19.1 13.7V26.6C19.1 28.5 20.7 30.1 22.6 30.1H24.3V35.1C24.3 36.6 26.1 37.4 27.2 36.3L33.5 30H47.1C49 30.1 50.6 28.5 50.6 26.6ZM26.7 22.5C25.4 22.5 24.3 21.4 24.3 20.1C24.3 18.8 25.4 17.7 26.7 17.7C28 17.7 29.1 18.8 29.1 20.1C29.1 21.5 28.1 22.5 26.7 22.5ZM34.9 22.5C33.6 22.5 32.5 21.4 32.5 20.1C32.5 18.8 33.6 17.7 34.9 17.7C36.2 17.7 37.3 18.8 37.3 20.1C37.2 21.5 36.2 22.5 34.9 22.5ZM43 22.5C41.7 22.5 40.6 21.4 40.6 20.1C40.6 18.8 41.7 17.7 43 17.7C44.3 17.7 45.4 18.8 45.4 20.1C45.3 21.5 44.3 22.5 43 22.5Z" fill="white"/>
<path d="M32.1 46.5L27.2 42.6C26.2 41.8 24.7 42 23.9 42.9C23 43.9 22.4 44.6 22.3 44.8C20.8 46.3 17.7 44.1 14.5 40.9C11.3 37.7 9.1 34.6 10.6 33.1C10.8 32.9 11.4 32.3 12.5 31.5C13.5 30.7 13.6 29.2 12.8 28.2L8.9 23.3C8.2 22.5 7.1 22.2 6.1 22.6C4.8 23.2 2.4 25.1 1.8 25.8C-1.7 29.3 2.7 37.4 10.4 45.1C18.1 52.8 26.2 57.2 29.7 53.7C30.3 53.1 32.3 50.7 32.9 49.4C33.2 48.3 32.9 47.2 32.1 46.5Z" fill="white"/>
</svg>
