<svg xmlns:dc="http://purl.org/dc/elements/1.1/" xmlns:cc="http://creativecommons.org/ns#" xmlns:rdf="http://www.w3.org/1999/02/22-rdf-syntax-ns#" xmlns:svg="http://www.w3.org/2000/svg" xmlns="http://www.w3.org/2000/svg" xmlns:sodipodi="http://sodipodi.sourceforge.net/DTD/sodipodi-0.dtd" xmlns:inkscape="http://www.inkscape.org/namespaces/inkscape" viewBox="0 0 10.583333 13.2291675" version="1.1" x="0px" y="0px"><svg:g><svg:path style="color:#000000;font-style:normal;font-variant:normal;font-weight:normal;font-stretch:normal;font-size:medium;line-height:normal;font-family:sans-serif;font-variant-ligatures:normal;font-variant-position:normal;font-variant-caps:normal;font-variant-numeric:normal;font-variant-alternates:normal;font-feature-settings:normal;text-indent:0;text-align:start;text-decoration:none;text-decoration-line:none;text-decoration-style:solid;text-decoration-color:#000000;letter-spacing:normal;word-spacing:normal;text-transform:none;writing-mode:lr-tb;direction:ltr;text-orientation:mixed;dominant-baseline:auto;baseline-shift:baseline;text-anchor:start;white-space:normal;shape-padding:0;clip-rule:nonzero;display:inline;overflow:visible;visibility:visible;opacity:1;isolation:auto;mix-blend-mode:normal;color-interpolation:sRGB;color-interpolation-filters:linearRGB;solid-color:#000000;solid-opacity:1;vector-effect:none;fill:#000000;fill-opacity:1;fill-rule:nonzero;stroke:none;stroke-width:0.52916664;stroke-linecap:round;stroke-linejoin:round;stroke-miterlimit:4;stroke-dasharray:none;stroke-dashoffset:0;stroke-opacity:1;color-rendering:auto;image-rendering:auto;shape-rendering:auto;text-rendering:auto;enable-background:accumulate" d="m 1.6743178,1.487635 c -0.4837166,0 -0.8805651,0.39892 -0.88056774,0.882634 v 4.256072 c 0,0.483714 0.39685114,0.880565 0.88056774,0.880565 h 2.211234 l 1.1994091,1.490348 a 0.26460979,0.26460979 0 0 0 0.411861,0 L 6.6962337,7.506906 h 2.2107155 c 0.4837139,0 0.8826341,-0.396851 0.8826341,-0.880565 V 2.370269 c 0,-0.483714 -0.3989202,-0.882634 -0.8826341,-0.882634 z m 0,0.529167 h 7.2326314 c 0.1997048,0 0.3534674,0.15376 0.3534674,0.353467 v 4.256072 c 0,0.19971 -0.1537626,0.351398 -0.3534674,0.351398 H 6.5711758 a 0.26460979,0.26460979 0 0 0 -0.2072217,0.09974 l -1.0743538,1.3317 -1.0722848,-1.3317 A 0.26460979,0.26460979 0 0 0 4.0126761,6.977739 H 1.6743178 c -0.1997102,0 -0.3514011,-0.151688 -0.3514011,-0.351398 V 2.370269 c 0,-0.199707 0.1516909,-0.353467 0.3514011,-0.353467 z m 2.77554,0.568441 c -0.6170269,0 -1.1229287,0.503836 -1.1229287,1.120863 0,0.315203 0.1332362,0.600511 0.3446833,0.805119 C 3.2084592,4.780864 2.8954307,5.28181 2.8954307,5.854811 V 6.147815 A 0.26460979,0.26460979 0 0 0 3.1610485,6.411367 H 5.740736 A 0.26460979,0.26460979 0 0 0 6.0048008,6.147815 V 5.854811 c 0,-0.573001 -0.3130259,-1.073947 -0.776179,-1.343586 0.2114444,-0.204608 0.3441647,-0.489916 0.3441647,-0.805119 0,-0.617027 -0.5059019,-1.120863 -1.1229287,-1.120863 z m 0,0.5271 c 0.331044,0 0.593762,0.262719 0.593762,0.593763 0,0.331041 -0.262718,0.593762 -0.593762,0.593762 -0.3310414,0 -0.5937621,-0.262721 -0.5937621,-0.593762 0,-0.331044 0.2627207,-0.593763 0.5937621,-0.593763 z M 6.776331,3.266855 A 0.26460981,0.26460981 0 0 0 6.5163991,3.53609 V 3.909194 H 6.1412279 a 0.2648415,0.2648415 0 0 0 0,0.529683 h 0.3751712 v 0.372586 a 0.2646485,0.2646485 0 1 0 0.5291666,0 V 4.438877 h 0.3731022 a 0.2648415,0.2648415 0 0 0 0,-0.529683 H 7.0455657 V 3.53609 A 0.26460981,0.26460981 0 0 0 6.776331,3.266855 Z M 4.4498578,4.829034 c 0.5726826,0 1.0252604,0.453097 1.0252604,1.025777 v 0.02739 H 3.4245974 v -0.02739 c 0,-0.57268 0.4525777,-1.025777 1.0252604,-1.025777 z"/></svg:g><text x="0" y="25.583334" fill="#000000" font-size="5px" font-weight="bold" font-family="'Helvetica Neue', Helvetica, Arial-Unicode, Arial, Sans-serif">Created by Alzam</text><text x="0" y="30.583334" fill="#000000" font-size="5px" font-weight="bold" font-family="'Helvetica Neue', Helvetica, Arial-Unicode, Arial, Sans-serif">from the Noun Project</text></svg>