<svg width="35" height="47" viewBox="0 0 35 47" fill="none" xmlns="http://www.w3.org/2000/svg">
<path d="M26.22 6.2C26.22 1.45 18.22 1.45 18.22 1.45C17.49 1.45 18.22 0.0899983 18.22 0.0899983C13.14 -0.590002 11.68 2.8 11.68 2.8C7.31999 2.8 8.07999 7.55 8.07999 7.55V12.26V12.92C8.07999 15.3229 9.03452 17.6273 10.7336 19.3264C12.4327 21.0255 14.7371 21.98 17.14 21.98C19.5429 21.98 21.8473 21.0255 23.5464 19.3264C25.2455 17.6273 26.2 15.3229 26.2 12.92L26.22 6.2ZM17.13 20C15.2679 20.0001 13.4812 19.2645 12.1589 17.9534C10.8366 16.6424 10.0858 14.862 10.07 13L10.24 8.33C11.0367 7.489 12.0401 6.87178 13.15 6.54C13.88 8.87 23.32 10.32 23.32 10.32C23.479 10.3962 23.6327 10.4831 23.78 10.58C24.1723 11.6446 24.3 12.7887 24.152 13.9136C24.004 15.0385 23.5848 16.1106 22.9304 17.0375C22.2761 17.9644 21.4062 18.7184 20.3957 19.2345C19.3853 19.7505 18.2645 20.0133 17.13 20Z" fill="#0F243E"/>
<path d="M33.25 40.12H26.25C25.9848 40.12 25.7304 40.0146 25.5429 39.8271C25.3554 39.6396 25.25 39.3852 25.25 39.12C25.25 38.8548 25.3554 38.6004 25.5429 38.4129C25.7304 38.2253 25.9848 38.12 26.25 38.12H32.2C31.58 31.73 25.05 26.68 17.12 26.68C9.19 26.68 2.67 31.73 2 38.12H8C8.26522 38.12 8.51957 38.2253 8.70711 38.4129C8.89464 38.6004 9 38.8548 9 39.12C9 39.3852 8.89464 39.6396 8.70711 39.8271C8.51957 40.0146 8.26522 40.12 8 40.12H1C0.734784 40.12 0.48043 40.0146 0.292893 39.8271C0.105357 39.6396 0 39.3852 0 39.12C0 31.12 7.68 24.68 17.13 24.68C26.58 24.68 34.26 31.16 34.26 39.12C34.26 39.2522 34.2338 39.383 34.1829 39.505C34.1321 39.627 34.0575 39.7377 33.9636 39.8307C33.8697 39.9236 33.7582 39.9971 33.6358 40.0468C33.5133 40.0964 33.3822 40.1213 33.25 40.12Z" fill="#0F243E"/>
<path d="M17.13 31.73C15.6684 31.73 14.2396 32.1634 13.0243 32.9754C11.8091 33.7875 10.8619 34.9416 10.3025 36.292C9.74319 37.6423 9.59684 39.1282 9.88199 40.5617C10.1671 41.9952 10.871 43.312 11.9045 44.3455C12.938 45.379 14.2548 46.0829 15.6883 46.368C17.1218 46.6531 18.6077 46.5068 19.958 45.9475C21.3084 45.3881 22.4625 44.4409 23.2746 43.2257C24.0866 42.0104 24.52 40.5816 24.52 39.12C24.52 37.16 23.7414 35.2804 22.3555 33.8945C20.9696 32.5086 19.0899 31.73 17.13 31.73ZM16.49 35.18C16.6354 35.0343 16.8269 34.9434 17.0318 34.923C17.2366 34.9026 17.4423 34.9539 17.6136 35.0681C17.7849 35.1822 17.9113 35.3523 17.9714 35.5492C18.0314 35.7462 18.0212 35.9579 17.9427 36.1482C17.8641 36.3385 17.722 36.4957 17.5406 36.593C17.3592 36.6903 17.1496 36.7217 16.9476 36.6818C16.7456 36.6419 16.5637 36.5332 16.4328 36.3743C16.302 36.2153 16.2303 36.0159 16.23 35.81C16.2262 35.6935 16.2465 35.5774 16.2895 35.469C16.3325 35.3606 16.3973 35.2622 16.48 35.18H16.49ZM18.49 42.81H15.72V42.54C15.8674 42.5265 16.0087 42.4748 16.13 42.39C16.1939 42.3165 16.2419 42.2306 16.2712 42.1377C16.3004 42.0448 16.3102 41.9469 16.3 41.85V38.49C16.318 38.3208 16.2754 38.1508 16.18 38.01C16.0491 37.9022 15.8889 37.836 15.72 37.82V37.55H17.91V41.89C17.8873 42.058 17.9264 42.2286 18.02 42.37C18.1428 42.4624 18.2876 42.521 18.44 42.54L18.49 42.81Z" fill="#0F243E"/>
</svg>
