<svg width="61" height="65" viewBox="0 0 61 65" fill="none" xmlns="http://www.w3.org/2000/svg">
<path d="M10.5615 32.587C15.2619 30.1851 21.5977 31.941 25.8379 35.631C26.2555 35.9937 26.8868 35.9495 27.2481 35.5328C27.6113 35.1163 27.5674 34.485 27.1504 34.1222C22.2599 29.8654 15.0884 28.026 9.65137 30.8068C9.15918 31.0582 8.96485 31.6603 9.21582 32.152C9.46582 32.6442 10.0713 32.838 10.5615 32.587Z" fill="#0F243E"/>
<path d="M10.5615 39.6988C15.2548 37.2989 21.5919 39.0478 25.8379 42.7428C26.2555 43.1055 26.8868 43.0613 27.2481 42.6447C27.6113 42.2282 27.5674 41.5968 27.1504 41.234C22.315 37.0259 15.1127 35.1253 9.65137 37.9186C9.15918 38.17 8.96485 38.7721 9.21582 39.2638C9.46582 39.7565 10.0713 39.9503 10.5615 39.6988Z" fill="#0F243E"/>
<path d="M10.5615 46.8112C15.2646 44.4078 21.6002 46.1668 25.8379 49.8546C26.2555 50.2173 26.8868 50.1731 27.2481 49.7565C27.6113 49.34 27.5674 48.7086 27.1504 48.3458C22.2599 44.0898 15.0886 42.2505 9.65137 45.0299C9.15918 45.2814 8.96485 45.8839 9.21582 46.3756C9.4668 46.8678 10.0713 47.0626 10.5615 46.8112Z" fill="#0F243E"/>
<path d="M25.8379 56.9669C26.2571 57.331 26.8881 57.2836 27.2481 56.8693C27.6113 56.4523 27.5674 55.8209 27.1504 55.4581C22.2599 51.2014 15.0884 49.3619 9.65137 52.1427C9.15918 52.3942 8.96485 52.9962 9.21582 53.4879C9.46582 53.9796 10.0713 54.1735 10.5615 53.923C15.2619 51.5211 21.5977 53.2769 25.8379 56.9669Z" fill="#0F243E"/>
<path d="M35.1504 35.631C39.4016 31.9314 45.7441 30.1942 50.4268 32.587C50.9189 32.8395 51.5215 32.6447 51.7725 32.152C52.0234 31.6603 51.8291 31.0582 51.3369 30.8068C45.8174 27.9838 38.6082 29.97 33.8379 34.1222C33.4209 34.485 33.3769 35.1163 33.7402 35.5328C34.1011 35.9491 34.7324 35.994 35.1504 35.631Z" fill="#0F243E"/>
<path d="M35.1504 42.7428C39.4099 39.036 45.754 37.3094 50.4268 39.6988C50.9189 39.9518 51.5215 39.757 51.7725 39.2638C52.0234 38.7721 51.8291 38.17 51.3369 37.9186C45.8345 35.1043 38.6266 37.0665 33.8379 41.234C33.4209 41.5968 33.3769 42.2281 33.7402 42.6446C34.1011 43.0609 34.7324 43.1058 35.1504 42.7428Z" fill="#0F243E"/>
<path d="M35.1504 49.8546C39.4016 46.1551 45.7441 44.4183 50.4268 46.8111C50.9189 47.0626 51.5215 46.8678 51.7725 46.3756C52.0234 45.8839 51.8291 45.2814 51.3369 45.0299C45.8173 42.2084 38.6085 44.1941 33.8379 48.3458C33.4209 48.7086 33.3769 49.3399 33.7402 49.7564C34.1011 50.1727 34.7324 50.2177 35.1504 49.8546Z" fill="#0F243E"/>
<path d="M35.1504 56.9669C39.4016 53.2674 45.7441 51.5301 50.4268 53.923C50.9189 54.1749 51.5215 53.9801 51.7725 53.4879C52.0234 52.9962 51.8291 52.3942 51.3369 52.1427C45.8174 49.3197 38.6082 51.306 33.8379 55.4581C33.4209 55.8209 33.3769 56.4523 33.7402 56.8693C34.1016 57.2852 34.7327 57.3297 35.1504 56.9669Z" fill="#0F243E"/>
<path d="M1.4375 64.5001H59.5625C60.1152 64.5001 60.5625 64.0524 60.5625 63.5001V27.423C60.5625 26.8707 60.1152 26.423 59.5625 26.423H55.8818V26.34C55.8818 26.0372 55.7441 25.7506 55.5088 25.5607C48.646 20.0428 37.843 21.4872 30.4941 28.7357C23.1443 21.4859 12.3386 20.0442 5.47949 25.5607C5.24414 25.7506 5.10644 26.0372 5.10644 26.34V26.423H1.4375C0.88477 26.423 0.4375 26.8707 0.4375 27.423V63.5001C0.4375 64.0524 0.88477 64.5001 1.4375 64.5001ZM58.5625 28.423V62.5001H35.2795C42.2244 59.8333 48.5988 59.2322 54.6504 60.6705C54.9502 60.7418 55.2617 60.6715 55.5019 60.4821C55.7422 60.2921 55.8818 60.0031 55.8818 59.6974V28.423H58.5625ZM53.8818 26.8302V58.4586C46.8975 57.1032 39.5469 58.2379 31.4941 61.9186V30.5392C38.001 23.7931 47.6699 22.2028 53.8818 26.8302ZM7.10645 26.8302C13.3193 22.2033 22.9873 23.7916 29.4941 30.5392V61.9186C22.3067 58.6335 14.8016 56.964 7.10645 58.4586V26.8302ZM2.4375 28.423H5.10645V59.6974C5.10645 60.003 5.2461 60.2921 5.48633 60.4821C5.72754 60.6715 6.03809 60.7418 6.33789 60.6705C12.3887 59.2322 18.7633 59.8336 25.7083 62.5001H2.4375V28.423Z" fill="#0F243E"/>
<path d="M43.4297 15.4875L40.9824 20.2501C40.8232 20.5602 40.8369 20.9308 41.0185 21.2281C41.2002 21.5255 41.5234 21.7071 41.8721 21.7071H46.9873C47.3359 21.7071 47.6582 21.526 47.8408 21.2291C48.0225 20.9318 48.0361 20.5616 47.8779 20.2516L45.4297 15.4652V8.77508L47.3115 8.12756C47.7149 7.9884 47.9863 7.60901 47.9863 7.18225C47.9863 6.755 47.7158 6.37512 47.3125 6.23645L30.8203 0.554808C30.6074 0.481568 30.3789 0.481568 30.168 0.554808L13.6865 6.23645C13.2832 6.37561 13.0127 6.75549 13.0127 7.18225C13.0127 7.60901 13.2842 7.98889 13.6875 8.12756L19.668 10.1853V15.1847C19.668 15.6139 19.9414 15.9947 20.3486 16.132L30.1748 19.4484C30.2773 19.4835 30.3857 19.5011 30.4941 19.5011H30.5058C30.6142 19.5011 30.7226 19.4835 30.8252 19.4484L40.6514 16.132C41.0586 15.9947 41.332 15.6139 41.332 15.1847V10.1851L43.4297 9.46332V15.4875ZM43.5098 19.7071L44.4336 17.9103L45.3525 19.7071H43.5098ZM30.4941 2.55774L43.8898 7.17243C43.8726 7.18372 43.8553 7.19434 43.839 7.20661L40.0134 8.52326C40.0094 8.5246 40.0051 8.5246 40.001 8.52601L30.5 11.7975L21.2181 8.60285L20.999 8.526C20.9971 8.52533 20.9951 8.52606 20.9932 8.52545L17.085 7.1803L30.4941 2.55774ZM39.332 10.8771V14.4669L30.5 17.4479L21.668 14.4669V10.8771L30.1689 13.7985C30.2737 13.8342 30.3872 13.8519 30.5007 13.8518C30.5024 13.8518 30.5042 13.8527 30.5059 13.8527C30.6162 13.8527 30.7266 13.8341 30.8311 13.7985L39.332 10.8771Z" fill="#0F243E"/>
<path d="M30.4785 10.257C32.167 10.257 33.54 8.87415 33.54 7.17444C33.54 5.47669 32.167 4.09583 30.4785 4.09583C28.79 4.09583 27.417 5.47669 27.417 7.17444C27.417 8.87415 28.79 10.257 30.4785 10.257ZM30.4785 6.09583C31.0635 6.09583 31.54 6.57972 31.54 7.17444C31.54 7.77112 31.0635 8.25696 30.4785 8.25696C29.8936 8.25696 29.417 7.77112 29.417 7.17444C29.417 6.57971 29.8935 6.09583 30.4785 6.09583Z" fill="#0F243E"/>
</svg>
