<svg width="64" height="80" viewBox="0 0 64 80" fill="none" xmlns="http://www.w3.org/2000/svg">
<path d="M23.826 17.3C23.3595 17.8907 23.1074 18.6223 23.111 19.375C23.0678 20.1571 23.3356 20.9246 23.856 21.51C24.3764 22.0954 25.1072 22.4513 25.889 22.5C26.0915 22.4984 26.293 22.4718 26.489 22.421C26.5625 23.106 26.8783 23.7423 27.3793 24.2151C27.8804 24.6879 28.5339 24.9663 29.222 25C30.0038 24.9513 30.7346 24.5954 31.255 24.01C31.7754 23.4246 32.0432 22.6571 32 21.875C31.9568 22.6571 32.2246 23.4246 32.745 24.01C33.2654 24.5954 33.9962 24.9513 34.778 25C35.4654 24.9654 36.1179 24.6866 36.6182 24.2138C37.1184 23.7411 37.4336 23.1054 37.507 22.421C37.703 22.4718 37.9045 22.4984 38.107 22.5C38.8888 22.4513 39.6196 22.0954 40.14 21.51C40.6604 20.9246 40.9282 20.1571 40.885 19.375C40.8886 18.6223 40.6365 17.8907 40.17 17.3C40.7289 17.0465 41.2006 16.6338 41.5261 16.1135C41.8516 15.5932 42.0165 14.9885 42 14.375C42.0281 13.6779 41.8156 12.9922 41.3981 12.4332C40.9806 11.8742 40.3835 11.4759 39.707 11.305C39.7531 11.0812 39.7769 10.8535 39.778 10.625C39.8056 9.93111 39.5953 9.24862 39.1819 8.69064C38.7685 8.13266 38.1768 7.73268 37.505 7.557C37.4274 6.87669 37.1105 6.24611 36.611 5.77775C36.1115 5.3094 35.4619 5.03376 34.778 5C33.9962 5.0487 33.2654 5.40458 32.745 5.99C32.2246 6.57543 31.9568 7.3429 32 8.125C32.0432 7.3429 31.7754 6.57543 31.255 5.99C30.7346 5.40458 30.0038 5.0487 29.222 5C28.539 5.03491 27.8905 5.31106 27.3921 5.77931C26.8936 6.24756 26.5775 6.8775 26.5 7.557C25.8282 7.73268 25.2365 8.13266 24.8231 8.69064C24.4097 9.24862 24.1994 9.93111 24.227 10.625C24.2281 10.8535 24.2518 11.0812 24.298 11.305C23.6206 11.4749 23.0224 11.8729 22.6039 12.4319C22.1854 12.991 21.9721 13.6772 22 14.375C21.9832 14.988 22.1474 15.5924 22.4722 16.1127C22.797 16.6329 23.2679 17.0459 23.826 17.3V17.3Z" fill="white"/>
<path d="M36.167 26.667C36.167 26.2249 35.9914 25.8009 35.6787 25.4882C35.3661 25.1756 34.9421 25 34.5 25H29.5C29.2777 24.9946 29.0566 25.0336 28.8496 25.1149C28.6427 25.1962 28.4541 25.3181 28.295 25.4734C28.1358 25.6287 28.0093 25.8142 27.923 26.0191C27.8367 26.224 27.7922 26.4441 27.7922 26.6665C27.7922 26.8888 27.8367 27.1089 27.923 27.3138C28.0093 27.5187 28.1358 27.7043 28.295 27.8596C28.4541 28.0149 28.6427 28.1368 28.8496 28.2181C29.0566 28.2994 29.2777 28.3384 29.5 28.333H29.949C29.609 28.333 29.2829 28.4681 29.0425 28.7085C28.8021 28.9489 28.667 29.275 28.667 29.615V30.385C28.667 30.725 28.8021 31.0511 29.0425 31.2915C29.2829 31.5319 29.609 31.667 29.949 31.667H30.333V32.778C30.333 34.005 31.08 35 32 35C32.92 35 33.667 34.005 33.667 32.778V31.667H34.051C34.391 31.667 34.7171 31.5319 34.9575 31.2915C35.1979 31.0511 35.333 30.725 35.333 30.385V29.615C35.333 29.275 35.1979 28.9489 34.9575 28.7085C34.7171 28.4681 34.391 28.333 34.051 28.333H34.5C34.9419 28.333 35.3658 28.1575 35.6784 27.8451C35.991 27.5327 36.1667 27.1089 36.167 26.667V26.667Z" fill="white"/>
<path d="M22.434 47.818H20V52.182H22.434C22.6804 53.2592 23.1085 54.2866 23.7 55.22L21.977 56.943L25.062 60.028L26.785 58.305C27.7187 58.8948 28.7461 59.3212 29.823 59.566V62H34.187V59.566C35.2639 59.3212 36.2913 58.8948 37.225 58.305L38.948 60.028L42.033 56.943L40.305 55.22C40.8948 54.2863 41.3212 53.2589 41.566 52.182H44V47.818H41.566C41.3212 46.7411 40.8948 45.7137 40.305 44.78L42.028 43.057L38.943 39.972L37.22 41.7C36.2861 41.1103 35.2588 40.6836 34.182 40.438V38H29.818V40.433C28.7409 40.6801 27.7136 41.1086 26.78 41.7L25.057 39.977L21.972 43.062L23.7 44.78C23.1085 45.7134 22.6804 46.7408 22.434 47.818V47.818ZM32 44C33.1867 44 34.3467 44.3519 35.3334 45.0112C36.3201 45.6705 37.0892 46.6075 37.5433 47.7039C37.9974 48.8003 38.1162 50.0067 37.8847 51.1705C37.6532 52.3344 37.0818 53.4035 36.2426 54.2426C35.4035 55.0818 34.3344 55.6532 33.1705 55.8847C32.0067 56.1162 30.8003 55.9974 29.7039 55.5433C28.6075 55.0892 27.6705 54.3201 27.0112 53.3334C26.3519 52.3467 26 51.1867 26 50C26.0016 48.4092 26.6342 46.884 27.7591 45.7591C28.884 44.6342 30.4092 44.0016 32 44V44Z" fill="white"/>
<path d="M32 54C34.2091 54 36 52.2091 36 50C36 47.7909 34.2091 46 32 46C29.7909 46 28 47.7909 28 50C28 52.2091 29.7909 54 32 54Z" fill="white"/>
<path d="M11 38C12.1046 38 13 37.1046 13 36C13 34.8954 12.1046 34 11 34C9.89543 34 9 34.8954 9 36C9 37.1046 9.89543 38 11 38Z" fill="white"/>
<path d="M4.771 39.915L3.479 41.207L5.793 43.521L7.085 42.229C7.78574 42.6709 8.55633 42.9907 9.364 43.175V45H12.636V43.175C13.4437 42.9907 14.2143 42.6709 14.915 42.229L16.207 43.521L18.521 41.207L17.229 39.915C17.6709 39.2143 17.9907 38.4437 18.175 37.636H20V34.364H18.175C17.9907 33.5563 17.6709 32.7857 17.229 32.085L18.521 30.793L16.207 28.479L14.915 29.771C14.2143 29.3291 13.4437 29.0093 12.636 28.825V27H9.364V28.825C8.55633 29.0093 7.78574 29.3291 7.085 29.771L5.793 28.479L3.479 30.793L4.771 32.085C4.32913 32.7857 4.00927 33.5563 3.825 34.364H2V37.636H3.825C4.00927 38.4437 4.32913 39.2143 4.771 39.915V39.915ZM11 32C11.7911 32 12.5645 32.2346 13.2223 32.6741C13.8801 33.1136 14.3928 33.7384 14.6955 34.4693C14.9983 35.2002 15.0775 36.0044 14.9231 36.7804C14.7688 37.5563 14.3878 38.269 13.8284 38.8284C13.269 39.3878 12.5563 39.7688 11.7804 39.9231C11.0044 40.0775 10.2002 39.9983 9.46927 39.6955C8.73836 39.3928 8.11365 38.8801 7.67412 38.2223C7.2346 37.5645 7 36.7911 7 36C7 34.9391 7.42143 33.9217 8.17157 33.1716C8.92172 32.4214 9.93913 32 11 32V32Z" fill="white"/>
<path d="M53 38C54.1046 38 55 37.1046 55 36C55 34.8954 54.1046 34 53 34C51.8954 34 51 34.8954 51 36C51 37.1046 51.8954 38 53 38Z" fill="white"/>
<path d="M59.229 32.085L60.521 30.793L58.207 28.479L56.915 29.771C56.2143 29.3291 55.4437 29.0093 54.636 28.825V27H51.364V28.825C50.5563 29.0093 49.7857 29.3291 49.085 29.771L47.793 28.479L45.479 30.793L46.771 32.085C46.3291 32.7857 46.0093 33.5563 45.825 34.364H44V37.636H45.825C46.0093 38.4437 46.3291 39.2143 46.771 39.915L45.479 41.207L47.793 43.521L49.085 42.229C49.7857 42.6709 50.5563 42.9907 51.364 43.175V45H54.636V43.175C55.4437 42.9907 56.2143 42.6709 56.915 42.229L58.207 43.521L60.521 41.207L59.229 39.915C59.6709 39.2143 59.9907 38.4437 60.175 37.636H62V34.364H60.175C59.9907 33.5563 59.6709 32.7857 59.229 32.085ZM53 40C52.2089 40 51.4355 39.7654 50.7777 39.3259C50.1199 38.8864 49.6072 38.2616 49.3045 37.5307C49.0017 36.7998 48.9225 35.9956 49.0769 35.2196C49.2312 34.4437 49.6122 33.731 50.1716 33.1716C50.731 32.6122 51.4437 32.2312 52.2196 32.0769C52.9956 31.9225 53.7998 32.0017 54.5307 32.3045C55.2616 32.6072 55.8864 33.1199 56.3259 33.7777C56.7654 34.4355 57 35.2089 57 36C57 37.0609 56.5786 38.0783 55.8284 38.8284C55.0783 39.5786 54.0609 40 53 40Z" fill="white"/>
<path d="M45.528 10L48 8.633L50.472 10L50 7.106L52 5.056L49.236 4.633L48 2L46.764 4.633L44 5.056L46 7.106L45.528 10Z" fill="white"/>
<path d="M13.528 10L16 8.633L18.472 10L18 7.106L20 5.056L17.236 4.633L16 2L14.764 4.633L12 5.056L14 7.106L13.528 10Z" fill="white"/>
</svg>
