<svg width="24" height="24" viewBox="0 0 24 24" fill="none" xmlns="http://www.w3.org/2000/svg">
<path d="M13.976 9.15C11.804 8.344 10.62 7.724 10.62 6.741C10.62 5.91 11.303 5.436 12.521 5.436C14.748 5.436 17.036 6.294 18.611 7.067L19.501 1.573C18.252 0.975 15.697 0 12.165 0C9.667 0 7.589 0.654 6.104 1.872C4.56 3.147 3.757 4.992 3.757 7.218C3.757 11.257 6.224 12.978 10.233 14.437C12.818 15.357 13.678 16.011 13.678 17.02C13.678 18 12.838 18.565 11.324 18.565C9.449 18.565 6.359 17.644 4.334 16.456L3.434 22.011C5.175 22.99 8.385 24 11.714 24C14.355 24 16.557 23.376 18.042 22.187C19.706 20.882 20.567 18.951 20.567 16.455C20.567 12.327 18.043 10.604 13.973 9.15H13.976V9.15Z" fill="white"/>
</svg>
